<svg width="32" height="32" viewBox="0 0 32 32" fill="none" xmlns="http://www.w3.org/2000/svg">
<path fill-rule="evenodd" clip-rule="evenodd" d="M30.0575 30.5414C30.0047 28.7967 27.8212 25.9442 25.9278 25.6944C24.0573 25.4526 22.679 24.4447 21.5775 23.4914C21.3082 23.2582 21.0653 23.1457 20.8356 23.1457C20.5628 23.1457 20.3215 23.3019 20.0982 23.6247C19.5032 24.4838 18.7147 25.1724 17.952 25.8392C17.5552 26.186 17.1445 26.5444 16.7661 26.9229C16.6231 27.0629 16.5054 27.1279 16.3954 27.1279C16.2905 27.1279 16.1837 27.0669 16.0692 26.9412C15.6752 26.507 15.2054 26.1482 14.7509 25.8012C14.4787 25.5934 14.2064 25.3855 13.9477 25.1604C12.6601 24.0428 12.1257 22.7834 12.3141 21.3092C12.3199 21.262 12.3199 21.2098 12.3199 21.1569C12.3195 21.0541 12.3195 20.9473 12.3692 20.8979C12.3954 20.8715 12.437 20.8589 12.4967 20.8589C12.522 20.8589 12.5501 20.8611 12.5814 20.8657C12.6807 20.8818 12.7781 20.8927 12.8697 20.8927C13.1876 20.8927 13.3877 20.7543 13.4814 20.4695C13.6384 19.9767 13.2907 19.7137 12.9837 19.4823L12.9237 19.4369C11.67 18.4916 10.7038 17.2465 9.96986 15.6314C9.48342 14.5612 9.43379 13.4887 9.82261 12.4432C10.442 10.749 11.2035 9.6191 12.3294 8.75048C12.514 8.60629 12.6254 8.51935 12.7262 8.51935C12.8167 8.51935 12.922 8.58941 13.1024 8.76973C15.5675 11.216 17.8618 12.768 20.3227 13.6539C20.9027 13.8635 21.083 14.1756 20.9653 14.7674L20.8895 15.172C20.6104 16.6724 20.3462 18.0897 19.1293 19.1522C18.9599 19.2992 18.8617 19.4829 18.853 19.6713C18.845 19.8402 18.9122 20.0033 19.046 20.1417C19.1735 20.2737 19.3211 20.3409 19.4848 20.3409C19.6594 20.3409 19.8466 20.2651 20.0435 20.1157C20.7287 19.5966 21.2289 18.9241 21.5304 18.1172C21.9657 16.96 22.2242 15.8697 22.3207 14.7834C22.3562 14.3541 22.4039 14.0819 22.7698 13.9179C23.0851 13.7786 23.2165 13.4961 23.1212 13.1615C23.0409 12.8865 22.8232 12.7279 22.509 12.715C20.9435 12.6452 19.6226 11.986 18.1203 11.018C15.4699 9.31148 13.4958 7.64348 12.4755 5.04848C12.3113 4.6221 12.0914 4.41504 11.8028 4.41504C11.7083 4.41504 11.6061 4.43829 11.499 4.48423C11.3092 4.56629 11.1814 4.68954 11.1197 4.85029C11.043 5.05041 11.0717 5.30773 11.203 5.59398C11.3968 6.01698 11.6194 6.43216 11.8551 6.87204C11.9657 7.07823 12.0797 7.29073 12.1959 7.51385C11.8387 7.60548 11.4689 7.73066 11.1459 7.98479C9.49129 9.27466 8.55004 11.0509 8.26835 13.4159C8.01479 15.525 9.08235 17.2332 10.274 18.7648C11.0066 19.7078 10.9514 20.7771 10.898 21.8108C10.8702 22.3472 10.8417 22.9025 10.9222 23.4395C10.927 23.466 10.8584 23.536 10.817 23.578C10.7817 23.6141 10.7461 23.6509 10.7197 23.6865C9.99148 24.6777 9.11598 25.608 7.65348 25.7045C7.28223 25.7264 6.91379 25.8366 6.55748 25.9434C6.29817 26.0215 6.02998 26.1019 5.76523 26.1467C4.07598 26.4235 2.94773 27.4222 2.31629 29.1997C2.2801 29.3014 2.23217 29.411 2.18248 29.5236C2.02598 29.8802 1.84885 30.284 1.98067 30.5999C2.04817 30.7618 2.19229 30.887 2.40935 30.9697C2.51617 31.011 2.6161 31.0311 2.70623 31.0311C3.16798 31.0311 3.31354 30.5298 3.44217 30.0875C3.47835 29.9635 3.5131 29.8429 3.5536 29.7407C4.05379 28.4703 4.87479 27.7324 6.06323 27.4848C6.68667 27.355 7.30598 27.2034 7.9251 27.053C8.29354 26.9634 8.66192 26.8738 9.03117 26.7877C9.1621 26.7577 9.27985 26.7429 9.39098 26.7429C9.71142 26.7429 9.97417 26.868 10.2182 27.1368C10.8284 27.8133 11.4673 28.4795 12.0849 29.125C12.4154 29.4696 12.7462 29.8148 13.0745 30.1634C13.4909 30.6062 13.805 30.795 14.1252 30.795C14.4324 30.795 14.7557 30.6141 15.1732 30.207L15.2918 30.0915C15.7587 29.6339 16.016 29.3817 16.2202 29.3817C16.439 29.3817 16.6581 29.6775 17.0945 30.2679L17.1738 30.3747C17.2772 30.5194 17.3995 30.6825 17.5528 30.8026C17.7136 30.9249 17.9031 30.9955 18.0731 30.9955C18.2454 30.9955 18.3844 30.926 18.4774 30.7939C18.8347 30.2702 19.3228 29.8492 19.796 29.442C20.3841 28.9355 20.9929 28.4118 21.3477 27.687C21.748 26.8675 22.2815 26.4855 23.0253 26.4855C23.2866 26.4855 23.5726 26.5327 23.8988 26.628C24.0803 26.6825 24.271 26.7147 24.4501 26.7412C26.7525 27.0449 28.1325 28.3635 28.67 30.7733C28.7516 31.1477 28.9032 31.5762 29.3587 31.5762C29.404 31.5762 29.4522 31.5722 29.5039 31.5629C30.0805 31.458 30.0655 30.8843 30.0575 30.5414ZM21.3167 25.2212L21.2651 25.3303C21.2329 25.3998 21.2008 25.4699 21.1589 25.5365C20.3893 26.8229 19.4595 27.9198 18.3971 28.7967C18.2519 28.9156 18.1375 28.9714 18.0364 28.9714C17.9302 28.9714 17.8257 28.9093 17.7068 28.776C17.4581 28.4947 17.3169 28.2879 17.6138 27.9961C18.0192 27.6027 18.4568 27.2283 18.8807 26.8659C19.5331 26.3077 20.2074 25.7312 20.7862 25.0684C20.8562 24.9885 20.9275 24.9477 20.9981 24.9477C21.1175 24.9478 21.2359 25.0684 21.3167 25.2212ZM13.7892 28.9127C13.7545 28.869 13.7203 28.8265 13.6862 28.7904C13.3347 28.4257 12.989 28.053 12.6432 27.6803C12.172 27.1726 11.7005 26.6643 11.213 26.1734C11.0364 25.997 10.9514 25.8357 10.9537 25.6805C10.9571 25.4434 11.1639 25.2475 11.364 25.0592L11.4679 24.9593C11.5742 24.853 11.6675 24.7991 11.7453 24.7991C11.8843 24.7991 11.9834 24.9811 12.0709 25.1419C12.1065 25.2074 12.141 25.27 12.1763 25.3194C12.6039 25.9115 13.1795 26.345 13.7361 26.7643C14.1002 27.0382 14.4767 27.3219 14.8043 27.6453L14.9022 27.7354C15.0472 27.8669 15.1845 27.991 15.2195 28.1638C15.0113 28.5325 14.7029 28.8444 14.2756 29.1171C14.2216 29.1527 14.1719 29.17 14.1245 29.17C13.9969 29.17 13.8912 29.0391 13.7892 28.9127Z" fill="url(#paint0_linear_329_1299)"/>
<path fill-rule="evenodd" clip-rule="evenodd" d="M6.23518 17.3942C6.35349 17.4091 6.46262 17.4166 6.56249 17.4166C7.22124 17.4166 7.51037 17.0795 7.52937 16.2895C7.55668 15.0224 7.55493 13.7781 7.52386 12.5916C7.4613 10.4754 7.79924 8.44584 8.55705 6.38727C9.1098 4.87546 10.1567 3.66771 11.6683 2.79765C12.8812 2.10502 14.1934 1.75384 15.5689 1.75384C18.9402 1.75384 21.9691 3.86377 22.9351 6.88515C23.5111 8.67321 23.7413 10.2815 23.6391 11.8091C23.7012 13.1464 23.6127 14.3308 23.3692 15.4298C23.1149 16.5399 22.8317 17.5256 22.5044 18.4434C21.9174 20.0893 20.8148 21.154 19.2269 21.6071L19.1407 21.6319C19.023 21.6663 18.9012 21.7013 18.7932 21.7013C18.6716 21.7013 18.5865 21.6548 18.5267 21.5538C18.0346 20.732 17.2989 20.6211 16.6437 20.6211C16.4484 20.6211 16.2497 20.6315 16.0507 20.6418L15.9319 20.6481C14.9266 20.7027 14.2836 21.3333 14.2124 22.3348C14.1346 23.3421 14.7818 24.1714 15.7515 24.3063C15.9861 24.3391 16.1983 24.3551 16.3999 24.3551C17.1892 24.3551 17.8009 24.1001 18.2701 23.5752C18.6026 23.2106 19.0546 23.0595 19.4537 22.9596C21.7244 22.375 23.2044 20.8996 23.9768 18.4491C24.1537 17.892 24.3995 17.6956 24.9502 17.6715C26.2751 17.606 27.0941 16.9398 27.3864 15.6902C27.6994 14.3495 27.6075 12.993 27.1131 11.6584C26.8621 10.9821 26.471 10.6123 25.9822 10.5888C25.1105 10.5356 25.0266 9.9829 24.9289 9.34284L24.9151 9.25065C24.6131 7.25209 24.0974 5.72621 23.2899 4.4484C22.0512 2.47115 19.1051 0.342773 15.5648 0.342773C14.6836 0.342773 13.8178 0.481461 12.9919 0.755148C10.3174 1.64471 8.63386 2.98565 7.6938 4.97559C6.93055 6.5914 6.45762 8.09084 6.24774 9.55959C6.17312 10.0779 5.98499 10.2694 5.50318 10.3176C4.64518 10.3989 4.09212 10.9528 3.94568 11.8774C3.83143 12.639 3.71224 13.5403 3.69499 14.4531C3.65774 16.4668 4.2513 17.1536 6.23518 17.3942ZM5.71512 11.7527L5.74843 11.8066C6.0028 11.8276 6.06487 12.0068 6.08237 12.2879L6.11024 12.8625C6.14987 13.6823 6.18949 14.5044 6.21537 15.3221L6.21968 15.4244C6.2343 15.7118 6.22312 15.889 5.94774 15.922C5.91155 15.9266 5.87618 15.9289 5.8418 15.9289C5.55405 15.9289 5.33243 15.7641 5.21811 15.4657C5.09955 15.1418 5.10874 14.8147 5.1188 14.4681C5.12312 14.3191 5.12712 14.1698 5.1208 14.0222C5.10355 13.3474 5.16561 12.7548 5.3103 12.2097C5.38436 11.93 5.50818 11.8054 5.71143 11.8054V11.7531C5.71286 11.7533 5.71368 11.7527 5.71512 11.7527ZM25.455 11.9841C25.6486 11.9841 25.7939 12.1085 25.8869 12.3542C26.1097 12.9193 26.2292 13.5461 26.2073 14.0337C26.1964 15.0936 26.1201 15.8732 25.2276 16.2553C25.0759 16.3191 24.9611 16.3498 24.8749 16.3498C24.8106 16.3498 24.7635 16.3324 24.7314 16.2959C24.6699 16.2255 24.6526 16.0791 24.6808 15.8603C24.7267 15.5134 24.787 15.1683 24.8467 14.8228C24.9782 14.0618 25.1149 13.2751 25.0966 12.4805C25.0908 12.206 25.1402 12.017 25.3998 11.9871C25.4194 11.985 25.4372 11.9841 25.455 11.9841Z" fill="url(#paint1_linear_329_1299)"/>
<defs>
<linearGradient id="paint0_linear_329_1299" x1="30.0597" y1="17.9956" x2="0.66894" y2="17.9956" gradientUnits="userSpaceOnUse">
<stop stop-color="#F97316"/>
<stop offset="1" stop-color="#EF4444"/>
</linearGradient>
<linearGradient id="paint1_linear_329_1299" x1="27.568" y1="12.349" x2="2.619" y2="12.349" gradientUnits="userSpaceOnUse">
<stop stop-color="#F97316"/>
<stop offset="1" stop-color="#EF4444"/>
</linearGradient>
</defs>
</svg>
