<svg width="32" height="32" viewBox="0 0 32 32" fill="none" xmlns="http://www.w3.org/2000/svg">
<g clip-path="url(#clip0_329_1241)">
<path d="M30 5.99985C30.0019 4.95937 29.5974 3.95927 28.8728 3.21261C28.1481 2.46596 27.1606 2.03177 26.1205 2.00255C25.0804 1.97333 24.07 2.35139 23.3046 3.05619C22.5392 3.76098 22.0792 4.7368 22.0227 5.77575L9.58639 8.26255C9.29557 7.65824 8.85711 7.13698 8.31153 6.74695C7.76596 6.35692 7.13087 6.1107 6.46497 6.03104C5.79906 5.95139 5.12382 6.04087 4.50164 6.29122C3.87947 6.54156 3.33044 6.9447 2.90528 7.46337C2.48012 7.98204 2.19257 8.59951 2.06918 9.25871C1.94579 9.91792 1.99056 10.5976 2.19934 11.2349C2.40812 11.8722 2.77417 12.4467 3.26368 12.9051C3.75319 13.3635 4.35036 13.6912 4.99999 13.8578V22.142C4.31777 22.3169 3.69398 22.6693 3.19196 23.1632C2.68995 23.6572 2.32757 24.2752 2.14162 24.9545C1.95568 25.6338 1.95279 26.3503 2.13324 27.031C2.31369 27.7118 2.67107 28.3327 3.16908 28.8308C3.6671 29.3288 4.28802 29.6861 4.9688 29.8666C5.64959 30.0471 6.36601 30.0442 7.04532 29.8582C7.72462 29.6723 8.34264 29.3099 8.83661 28.8079C9.33059 28.3059 9.68294 27.6821 9.85789 26.9999H18.1421C18.3083 27.65 18.6359 28.2478 19.0943 28.7378C19.5528 29.2279 20.1275 29.5944 20.7651 29.8035C21.4028 30.0127 22.0829 30.0576 22.7426 29.9343C23.4022 29.8109 24.0201 29.5232 24.5391 29.0978C25.0581 28.6723 25.4615 28.1229 25.7119 27.5002C25.9622 26.8776 26.0516 26.2019 25.9717 25.5356C25.8917 24.8693 25.645 24.2339 25.2545 23.6882C24.8639 23.1425 24.342 22.704 23.7371 22.4135L26.2241 9.97735C27.2422 9.92156 28.2005 9.47851 28.9025 8.739C29.6045 7.9995 29.9972 7.01951 30 5.99985ZM26 3.99985C26.3956 3.99985 26.7822 4.11715 27.1111 4.33691C27.44 4.55668 27.6964 4.86903 27.8478 5.23449C27.9991 5.59994 28.0387 6.00207 27.9616 6.39003C27.8844 6.778 27.6939 7.13436 27.4142 7.41407C27.1345 7.69377 26.7781 7.88425 26.3902 7.96142C26.0022 8.03859 25.6001 7.99899 25.2346 7.84761C24.8692 7.69624 24.5568 7.43989 24.3371 7.11099C24.1173 6.7821 24 6.39542 24 5.99985C24.0006 5.46961 24.2115 4.96125 24.5865 4.58631C24.9614 4.21137 25.4697 4.00046 26 3.99985ZM3.99999 9.99985C3.99999 9.60429 4.11729 9.21761 4.33705 8.88871C4.55682 8.55981 4.86917 8.30347 5.23462 8.15209C5.60008 8.00072 6.00221 7.96111 6.39017 8.03828C6.77813 8.11545 7.1345 8.30593 7.41421 8.58564C7.69391 8.86534 7.88439 9.22171 7.96156 9.60967C8.03873 9.99763 7.99913 10.3998 7.84775 10.7652C7.69638 11.1307 7.44003 11.443 7.11113 11.6628C6.78223 11.8826 6.39555 11.9999 5.99999 11.9999C5.46975 11.9992 4.96139 11.7883 4.58645 11.4134C4.21151 11.0385 4.0006 10.5301 3.99999 9.99985ZM5.99999 27.9999C5.60443 27.9999 5.21775 27.8826 4.88885 27.6628C4.55995 27.443 4.30361 27.1307 4.15223 26.7652C4.00086 26.3998 3.96125 25.9976 4.03842 25.6097C4.11559 25.2217 4.30607 24.8653 4.58578 24.5856C4.86548 24.3059 5.22185 24.1155 5.60981 24.0383C5.99777 23.9611 6.39991 24.0007 6.76536 24.1521C7.13081 24.3035 7.44317 24.5598 7.66293 24.8887C7.88269 25.2176 7.99999 25.6043 7.99999 25.9999C7.99938 26.5301 7.78847 27.0385 7.41353 27.4134C7.03859 27.7883 6.53024 27.9992 5.99999 27.9999ZM18.1421 24.9999H9.85789C9.67874 24.3124 9.31946 23.6851 8.8171 23.1827C8.31474 22.6804 7.68748 22.3211 6.99999 22.142V13.8578C7.81706 13.6453 8.54559 13.1789 9.08064 12.5259C9.6157 11.8729 9.92966 11.0668 9.97729 10.224L22.4136 7.73715C22.8058 8.54307 23.4569 9.19416 24.2629 9.58625L21.7759 22.0224C20.933 22.07 20.127 22.384 19.4739 22.9191C18.8209 23.4542 18.3546 24.1828 18.1421 24.9999ZM22 27.9999C21.6044 27.9999 21.2177 27.8826 20.8889 27.6628C20.56 27.443 20.3036 27.1307 20.1522 26.7652C20.0009 26.3998 19.9613 25.9976 20.0384 25.6097C20.1156 25.2217 20.3061 24.8653 20.5858 24.5856C20.8655 24.3059 21.2218 24.1155 21.6098 24.0383C21.9978 23.9611 22.3999 24.0007 22.7654 24.1521C23.1308 24.3035 23.4432 24.5598 23.6629 24.8887C23.8827 25.2176 24 25.6043 24 25.9999C23.9994 26.5301 23.7885 27.0385 23.4135 27.4134C23.0386 27.7883 22.5302 27.9992 22 27.9999Z" fill="url(#paint0_linear_329_1241)"/>
</g>
<defs>
<linearGradient id="paint0_linear_329_1241" x1="30" y1="16.0016" x2="0.740001" y2="16.0016" gradientUnits="userSpaceOnUse">
<stop stop-color="#F97316"/>
<stop offset="1" stop-color="#EF4444"/>
</linearGradient>
<clipPath id="clip0_329_1241">
<rect width="32" height="32" fill="white"/>
</clipPath>
</defs>
</svg>
