<svg width="32" height="32" viewBox="0 0 32 32" fill="none" xmlns="http://www.w3.org/2000/svg">
<path fill-rule="evenodd" clip-rule="evenodd" d="M4 6.66699C4 4.45786 5.79085 2.66699 8 2.66699C10.2091 2.66699 12 4.45786 12 6.66699C12 8.87613 10.2091 10.667 8 10.667C5.79085 10.667 4 8.87613 4 6.66699ZM8 5.33366C7.26361 5.33366 6.66667 5.93062 6.66667 6.66699C6.66667 7.40337 7.26361 8.00033 8 8.00033C8.73637 8.00033 9.33333 7.40337 9.33333 6.66699C9.33333 5.93062 8.73637 5.33366 8 5.33366Z" fill="url(#paint0_linear_329_1288)"/>
<path fill-rule="evenodd" clip-rule="evenodd" d="M20 6.66699C20 4.45786 21.7908 2.66699 24 2.66699C26.2091 2.66699 28 4.45786 28 6.66699C28 8.87613 26.2091 10.667 24 10.667C21.7908 10.667 20 8.87613 20 6.66699ZM24 5.33366C23.2636 5.33366 22.6667 5.93062 22.6667 6.66699C22.6667 7.40337 23.2636 8.00033 24 8.00033C24.7364 8.00033 25.3333 7.40337 25.3333 6.66699C25.3333 5.93062 24.7364 5.33366 24 5.33366Z" fill="url(#paint1_linear_329_1288)"/>
<path fill-rule="evenodd" clip-rule="evenodd" d="M10.666 16.0003C10.666 13.0548 13.0538 10.667 15.9993 10.667C18.9449 10.667 21.3327 13.0548 21.3327 16.0003C21.3327 18.9458 18.9449 21.3337 15.9993 21.3337C13.0538 21.3337 10.666 18.9458 10.666 16.0003ZM15.9993 13.3337C14.5267 13.3337 13.3327 14.5275 13.3327 16.0003C13.3327 17.4731 14.5267 18.667 15.9993 18.667C17.4721 18.667 18.666 17.4731 18.666 16.0003C18.666 14.5275 17.4721 13.3337 15.9993 13.3337Z" fill="url(#paint2_linear_329_1288)"/>
<path d="M1.6007 15.1984C3.05801 13.2588 5.38221 12 8.00003 12H9.33337V14.6667H8.00003C6.25625 14.6667 4.70799 15.5021 3.73269 16.8003L2.93179 17.8663L0.799805 16.2644L1.6007 15.1984Z" fill="url(#paint3_linear_329_1288)"/>
<path d="M22.666 12H23.9993C26.6175 12 28.942 13.2591 30.3992 15.1992L31.2 16.2653L29.0679 17.8668L28.2671 16.8008C27.2917 15.5024 25.7433 14.6667 23.9993 14.6667H22.666V12Z" fill="url(#paint4_linear_329_1288)"/>
<path d="M7.24425 27.2375C9.16951 24.4774 12.3724 22.667 15.9982 22.667C19.6242 22.667 22.827 24.4774 24.7522 27.2375L25.515 28.3311L23.3279 29.8567L22.5651 28.7631C21.1171 26.6873 18.7157 25.3337 15.9982 25.3337C13.2808 25.3337 10.8793 26.6873 9.43141 28.7631L8.66861 29.8567L6.48145 28.3311L7.24425 27.2375Z" fill="url(#paint5_linear_329_1288)"/>
<defs>
<linearGradient id="paint0_linear_329_1288" x1="12" y1="6.66699" x2="3.64" y2="6.66699" gradientUnits="userSpaceOnUse">
<stop stop-color="#F97316"/>
<stop offset="1" stop-color="#EF4444"/>
</linearGradient>
<linearGradient id="paint1_linear_329_1288" x1="28" y1="6.66699" x2="19.64" y2="6.66699" gradientUnits="userSpaceOnUse">
<stop stop-color="#F97316"/>
<stop offset="1" stop-color="#EF4444"/>
</linearGradient>
<linearGradient id="paint2_linear_329_1288" x1="21.3327" y1="16.0003" x2="10.186" y2="16.0003" gradientUnits="userSpaceOnUse">
<stop stop-color="#F97316"/>
<stop offset="1" stop-color="#EF4444"/>
</linearGradient>
<linearGradient id="paint3_linear_329_1288" x1="9.33337" y1="14.9331" x2="0.415795" y2="14.9331" gradientUnits="userSpaceOnUse">
<stop stop-color="#F97316"/>
<stop offset="1" stop-color="#EF4444"/>
</linearGradient>
<linearGradient id="paint4_linear_329_1288" x1="31.2" y1="14.9334" x2="22.282" y2="14.9334" gradientUnits="userSpaceOnUse">
<stop stop-color="#F97316"/>
<stop offset="1" stop-color="#EF4444"/>
</linearGradient>
<linearGradient id="paint5_linear_329_1288" x1="25.515" y1="26.2619" x2="5.62494" y2="26.2619" gradientUnits="userSpaceOnUse">
<stop stop-color="#F97316"/>
<stop offset="1" stop-color="#EF4444"/>
</linearGradient>
</defs>
</svg>
