<svg width="48" height="48" viewBox="0 0 48 48" fill="none" xmlns="http://www.w3.org/2000/svg">
<g clip-path="url(#clip0_280_2)">
<path d="M23.957 0C10.702 0 -0.0429688 10.745 -0.0429688 24C-0.0429688 37.255 10.702 48 23.957 48C37.212 48 47.957 37.255 47.957 24C47.957 10.745 37.212 0 23.957 0ZM24.663 36.56C24.212 37.046 23.572 37.289 22.739 37.289C21.907 37.289 21.268 37.052 20.823 36.577C20.378 36.102 20.155 35.437 20.155 34.582C20.155 32.812 21.016 31.928 22.739 31.928C23.583 31.928 24.227 32.159 24.673 32.622C25.119 33.085 25.341 33.738 25.341 34.582C25.341 35.414 25.114 36.073 24.663 36.56ZM30.931 19.403C30.673 20.089 30.283 20.742 29.761 21.363C29.239 21.984 28.341 22.793 27.064 23.789C25.974 24.644 25.244 25.353 24.875 25.916C24.563 26.391 24.392 27.012 24.344 27.763C24.341 27.779 24.336 27.784 24.333 27.8C24.123 28.983 22.749 28.975 22.749 28.975H22.027C22.027 28.975 20.832 28.787 20.877 27.85C20.877 26.561 21.111 25.489 21.58 24.633C22.049 23.777 22.87 22.893 24.041 21.979C25.436 20.877 26.334 20.022 26.738 19.413C27.142 18.804 27.345 18.077 27.345 17.233C27.345 16.249 27.017 15.493 26.361 14.965C25.705 14.437 24.761 14.174 23.531 14.174C22.417 14.174 21.386 14.332 20.437 14.649C19.919 14.822 19.41 15.018 18.905 15.229C18.894 15.233 18.89 15.231 18.878 15.236C17.712 15.687 17.171 14.77 17.171 14.77L16.713 13.811C16.711 13.805 16.197 12.634 17.343 12.119C19.386 11.185 21.547 10.713 23.829 10.713C26.125 10.713 27.948 11.276 29.295 12.401C30.642 13.526 31.316 15.079 31.316 17.059C31.317 17.936 31.188 18.718 30.931 19.403Z" fill="url(#paint0_linear_280_2)"/>
</g>
<defs>
<linearGradient id="paint0_linear_280_2" x1="47.957" y1="24" x2="-2.20297" y2="24" gradientUnits="userSpaceOnUse">
<stop stop-color="#F97316"/>
<stop offset="1" stop-color="#EF4444"/>
</linearGradient>
<clipPath id="clip0_280_2">
<rect width="48" height="48" fill="white"/>
</clipPath>
</defs>
</svg>
