<svg width="264" height="35" viewBox="0 0 264 35" fill="none" xmlns="http://www.w3.org/2000/svg">
<g clip-path="url(#clip0_172_39603)">
<path d="M257.7 4.06012C261.328 7.23426 263.602 11.4541 263.942 16.29C264.199 20.6331 263.09 25.0014 260.3 28.4157C260.09 28.65 259.877 28.881 259.659 29.1081C259.421 29.357 259.214 29.6093 259.004 29.8814C257.136 32.0693 254.174 33.5959 251.452 34.4139C251.317 34.4548 251.317 34.4548 251.179 34.4966C246.91 35.7009 242.046 35.1527 238.143 33.0559C233.969 30.6956 230.857 26.905 229.564 22.2804C228.369 17.6544 228.962 12.8103 231.336 8.65168C233.619 4.82453 237.385 1.86461 241.695 0.673324C241.848 0.635967 242.002 0.59861 242.16 0.560121C242.328 0.518433 242.495 0.476744 242.668 0.433793C247.893 -0.731894 253.593 0.654858 257.7 4.06012Z" fill="url(#paint0_linear_172_39603)"/>
<path d="M249.86 8.26002C250.238 8.51201 250.496 8.69175 250.7 9.10002C250.759 9.79782 250.588 10.3418 250.331 10.9796C250.293 11.0784 250.255 11.1773 250.215 11.2791C250.092 11.5945 249.967 11.9092 249.842 12.2238C249.681 12.6342 249.52 13.045 249.36 13.4559C249.32 13.5586 249.28 13.6614 249.238 13.7673C248.924 14.5756 248.631 15.3905 248.346 16.2095C247.994 17.2173 247.621 18.2165 247.244 19.215C247.208 19.3088 247.173 19.4026 247.136 19.4992C247.1 19.595 247.064 19.6909 247.027 19.7896C246.99 19.8865 246.954 19.9834 246.916 20.0832C246.842 20.2801 246.767 20.4769 246.693 20.6737C246.471 21.2627 246.252 21.8527 246.035 22.4437C245.897 22.8186 245.758 23.193 245.619 23.5674C245.522 23.8295 245.427 24.0921 245.331 24.3547C245.272 24.5131 245.213 24.6715 245.152 24.8347C245.102 24.9733 245.051 25.112 244.998 25.2548C244.803 25.654 244.598 25.894 244.26 26.18C243.828 26.2903 243.435 26.2711 243 26.18C242.641 25.8913 242.641 25.8913 242.44 25.48C242.368 24.6562 242.558 24.0514 242.851 23.2991C242.895 23.1832 242.938 23.0673 242.983 22.9479C243.127 22.5664 243.274 22.1857 243.42 21.805C243.521 21.5371 243.623 21.2692 243.724 21.0012C243.935 20.4424 244.147 19.8838 244.36 19.3254C244.819 18.1153 245.269 16.9015 245.719 15.6878C245.86 15.3062 246.002 14.9248 246.145 14.5434C246.54 13.4835 246.934 12.4234 247.321 11.3603C247.407 11.1237 247.407 11.1237 247.496 10.8824C247.597 10.6052 247.698 10.3276 247.797 10.0496C248.197 8.96136 248.572 8.13377 249.86 8.26002Z" fill="white"/>
<path d="M240.9 11.34C241.378 11.6784 241.568 11.8734 241.679 12.4512C241.515 13.3434 240.845 13.9546 240.22 14.5676C240.143 14.6441 240.066 14.7206 239.987 14.7995C239.743 15.0411 239.499 15.2818 239.255 15.5225C239.089 15.6872 238.923 15.852 238.757 16.0169C238.352 16.4187 237.946 16.8196 237.54 17.22C238.27 18.1071 239.076 18.9078 239.894 19.7137C240.161 19.9767 240.427 20.2402 240.693 20.504C240.81 20.6194 240.927 20.7349 241.048 20.8539C241.478 21.3063 241.507 21.6396 241.501 22.2638C241.46 22.54 241.46 22.54 241.198 22.8812C240.702 23.2457 240.397 23.2949 239.78 23.24C239.474 23.0446 239.474 23.0446 239.174 22.7527C239.053 22.6375 238.933 22.5223 238.809 22.4036C238.742 22.3371 238.674 22.2707 238.605 22.2022C238.354 21.9543 238.1 21.7096 237.846 21.465C237.344 20.981 236.848 20.4924 236.353 20.0016C236.145 19.796 235.936 19.5912 235.727 19.3871C235.422 19.0898 235.119 18.7904 234.817 18.4904C234.676 18.3536 234.676 18.3536 234.531 18.2142C234.446 18.1286 234.361 18.043 234.273 17.9548C234.197 17.8803 234.122 17.8057 234.044 17.7289C233.9 17.5 233.9 17.5 233.915 17.2267C234.073 16.8657 234.273 16.6555 234.553 16.3774C234.661 16.2686 234.769 16.1598 234.881 16.0477C234.999 15.9316 235.117 15.8155 235.238 15.6958C235.359 15.5758 235.479 15.4557 235.603 15.332C235.857 15.0784 236.112 14.8253 236.368 14.5727C236.76 14.1848 237.151 13.7955 237.541 13.4058C237.789 13.1599 238.036 12.9141 238.283 12.6683C238.401 12.5514 238.518 12.4344 238.639 12.3139C238.748 12.2065 238.857 12.099 238.969 11.9882C239.065 11.8932 239.161 11.7982 239.26 11.7003C239.742 11.2581 240.273 11.2344 240.9 11.34Z" fill="white"/>
<path d="M253.36 11.34C253.651 11.5452 253.651 11.5452 253.957 11.8322C254.079 11.9463 254.201 12.0604 254.326 12.1779C255.259 13.0796 256.173 13.999 257.088 14.9188C257.297 15.1289 257.507 15.339 257.716 15.549C258.224 16.059 258.732 16.5694 259.24 17.08C259.038 17.5422 258.788 17.8473 258.432 18.2026C258.323 18.3114 258.215 18.4202 258.103 18.5323C257.928 18.7065 257.928 18.7065 257.748 18.8841C257.628 19.0042 257.508 19.1243 257.384 19.248C257.13 19.5014 256.876 19.7545 256.622 20.0073C256.231 20.3955 255.841 20.7847 255.452 21.1742C255.205 21.4201 254.959 21.6659 254.712 21.9116C254.595 22.0286 254.478 22.1455 254.357 22.266C254.195 22.4273 254.195 22.4273 254.029 22.5918C253.933 22.6868 253.838 22.7818 253.739 22.8797C253.423 23.1712 253.257 23.2351 252.826 23.2925C252.38 23.24 252.38 23.24 251.986 22.9513C251.606 22.4407 251.497 22.1989 251.54 21.56C252.229 20.542 253.249 19.6947 254.121 18.83C254.265 18.6868 254.409 18.5435 254.553 18.4002C254.902 18.0531 255.251 17.7064 255.6 17.36C254.851 16.447 254.016 15.6248 253.176 14.7963C252.897 14.5201 252.617 14.2435 252.338 13.9666C252.215 13.8453 252.092 13.724 251.965 13.599C251.527 13.1396 251.489 12.8137 251.503 12.1767C251.54 11.9 251.54 11.9 251.741 11.55C252.306 11.2196 252.726 11.1814 253.36 11.34Z" fill="white"/>
</g>
<path d="M16.8945 23.8945L17.0312 22.8105L17.0117 21.209V13.6406C17.0117 13.237 17.1549 12.8431 17.4414 12.459H16.9043C16.7155 13.39 16.1296 15.0436 15.1465 17.4199C14.2155 19.6725 13.75 21.1048 13.75 21.7168L13.7695 23.8652C13.7695 24.0996 13.8216 24.4479 13.9258 24.9102C14.0365 25.3789 14.0918 25.7337 14.0918 25.9746C14.0918 26.3457 13.9486 26.5312 13.6621 26.5312C13.3757 26.5312 13.2324 26.3424 13.2324 25.9648C13.2324 25.7174 13.291 25.3496 13.4082 24.8613C13.5254 24.3796 13.584 24.015 13.584 23.7676C13.584 22.9863 13.3887 22.4036 12.998 22.0195C12.6139 21.6419 12.1842 21.4531 11.709 21.4531C11.2402 21.4531 10.8529 21.554 10.5469 21.7559C10.2409 21.9577 10.0879 22.2083 10.0879 22.5078L10.2051 23.5723C10.2051 23.8132 10.1172 23.9336 9.94141 23.9336C9.76562 23.9336 9.67773 23.8034 9.67773 23.543L9.85352 21.7168C9.85352 21.0918 9.38477 19.6693 8.44727 17.4492C7.4707 15.125 6.89128 13.4648 6.70898 12.4688H6.17188C6.44531 12.8333 6.58203 13.224 6.58203 13.6406V23.2891L6.77734 24.9297C6.77734 25.2747 6.66016 25.4473 6.42578 25.4473C6.19141 25.4473 6.07422 25.2812 6.07422 24.9492L6.28906 23.3477C6.28906 23.1003 6.24023 22.9212 6.14258 22.8105C5.92773 22.5697 5.19531 22.4492 3.94531 22.4492C2.69531 22.4492 2.07031 22.4557 2.07031 22.4688L2.11914 23.7578C2.11914 23.9076 2.04427 23.9824 1.89453 23.9824C1.74479 23.9824 1.66992 23.9141 1.66992 23.7773L1.72852 22.4199V10.418C1.72852 9.64974 1.49414 9.00846 1.02539 8.49414L1.23047 8.28906C1.76432 8.75781 2.4056 8.99219 3.1543 8.99219H8.14453C8.9974 8.99219 9.60938 8.74479 9.98047 8.25L10.2344 8.43555C9.90234 8.91732 9.73633 9.36328 9.73633 9.77344C9.73633 10.1771 9.84049 10.6263 10.0488 11.1211C10.2572 11.6094 10.485 12.0749 10.7324 12.5176C11.403 13.7155 11.7383 14.6953 11.7383 15.457H11.875C11.875 14.6693 12.207 13.6895 12.8711 12.5176C13.5286 11.3587 13.8574 10.5091 13.8574 9.96875C13.8574 9.42188 13.6947 8.91081 13.3691 8.43555L13.623 8.25C13.9941 8.74479 14.6061 8.99219 15.459 8.99219H20.459C21.2142 8.99219 21.8555 8.75781 22.3828 8.28906L22.5781 8.49414C22.1159 9.01497 21.8848 9.65625 21.8848 10.418V21.209C21.8848 21.5085 21.8783 21.834 21.8652 22.1855L21.6699 22.3809C21.5397 22.127 21.3477 22 21.0938 22H17.8027C17.6595 22 17.5293 22.0879 17.4121 22.2637C17.2949 22.4395 17.2363 22.6022 17.2363 22.752L17.4023 23.9629C17.4023 24.1973 17.3177 24.3145 17.1484 24.3145C16.9792 24.3145 16.8945 24.1745 16.8945 23.8945ZM30.6543 20.3789L30.498 19.168V19.0605C30.6348 18.8197 30.8203 18.6992 31.0547 18.6992L39.0234 18.709C39.4206 18.709 39.7428 18.582 39.9902 18.3281L40.1855 18.5234C39.821 19.194 39.6387 20.4082 39.6387 22.166C39.6387 22.4395 39.6973 22.9668 39.8145 23.748C39.9382 24.5358 40 25.0566 40 25.3105C40 25.571 39.9577 25.763 39.873 25.8867C39.7884 26.0104 39.6875 26.0723 39.5703 26.0723C39.4531 26.0723 39.349 26.0039 39.2578 25.8672C39.1732 25.7305 39.1309 25.5417 39.1309 25.3008L39.2871 23.1426C39.2871 22.5697 39.1862 22.14 38.9844 21.8535C38.7826 21.5605 38.5091 21.4141 38.1641 21.4141C37.3893 21.4141 37.002 21.9967 37.002 23.1621C37.002 23.6113 37.0671 24.2624 37.1973 25.1152C37.334 25.9681 37.4023 26.502 37.4023 26.7168C37.4023 26.9316 37.3535 27.0944 37.2559 27.2051C37.1582 27.3223 37.0443 27.3809 36.9141 27.3809C36.7904 27.3809 36.6797 27.3255 36.582 27.2148C36.4909 27.1107 36.4453 26.9674 36.4453 26.7852L36.6211 23.6699C36.6211 22.5306 36.377 21.9609 35.8887 21.9609L35.1465 21.9805H27.4707C26.8913 21.9805 26.4648 22.0911 26.1914 22.3125C25.8789 22.5729 25.7227 23.3086 25.7227 24.5195C25.7227 25.0078 25.7975 25.7272 25.9473 26.6777C26.097 27.6348 26.1719 28.3542 26.1719 28.8359C26.1719 29.5326 25.9245 29.8809 25.4297 29.8809C24.8958 29.8809 24.6289 29.5228 24.6289 28.8066C24.6289 28.3184 24.7363 27.5957 24.9512 26.6387C25.166 25.6816 25.2734 24.9557 25.2734 24.4609L25.2246 21.1895V9.80273C25.2246 9.39909 25.1009 9.07682 24.8535 8.83594L25.0488 8.63086C25.3158 8.88477 25.6413 9.01172 26.0254 9.01172H38.5645C38.9616 9.01172 39.2871 8.88477 39.541 8.63086L39.7363 8.83594C39.4499 9.1224 39.3066 9.68229 39.3066 10.5156V10.9551C39.3066 11.6908 39.4499 12.1953 39.7363 12.4688L39.541 12.6543C39.2155 12.3223 38.4505 12.1562 37.2461 12.1562L32.3926 12.3809C31.1947 12.3809 30.4329 12.2148 30.1074 11.8828L29.9023 12.0781C30.1562 12.3255 30.2832 12.6543 30.2832 13.0645C30.2832 13.4681 30.1562 13.7936 29.9023 14.041L30.1074 14.2266C30.4199 13.901 31.0775 13.7383 32.0801 13.7383L36.1719 13.9629C37.181 13.9629 37.8483 13.8001 38.1738 13.4746L38.3789 13.6699C38.0924 13.9564 37.9492 14.5553 37.9492 15.4668V15.8477C37.9492 16.5443 38.0924 17.0358 38.3789 17.3223L38.1738 17.5273C37.8613 17.2018 37.2005 17.0391 36.1914 17.0391L32.0996 17.2539C31.097 17.2539 30.4329 17.0911 30.1074 16.7656L29.9121 16.9609C30.1855 17.2409 30.3223 17.7292 30.3223 18.4258L30.3027 19.1875L30.1367 20.3594C30.1367 20.5938 30.2214 20.7109 30.3906 20.7109C30.5664 20.7109 30.6543 20.6003 30.6543 20.3789ZM48.1543 20.3789L47.998 19.168V19.0605C48.1348 18.8197 48.3203 18.6992 48.5547 18.6992L56.5234 18.709C56.9206 18.709 57.2428 18.582 57.4902 18.3281L57.6855 18.5234C57.321 19.194 57.1387 20.4082 57.1387 22.166C57.1387 22.4395 57.1973 22.9668 57.3145 23.748C57.4382 24.5358 57.5 25.0566 57.5 25.3105C57.5 25.571 57.4577 25.763 57.373 25.8867C57.2884 26.0104 57.1875 26.0723 57.0703 26.0723C56.9531 26.0723 56.849 26.0039 56.7578 25.8672C56.6732 25.7305 56.6309 25.5417 56.6309 25.3008L56.7871 23.1426C56.7871 22.5697 56.6862 22.14 56.4844 21.8535C56.2826 21.5605 56.0091 21.4141 55.6641 21.4141C54.8893 21.4141 54.502 21.9967 54.502 23.1621C54.502 23.6113 54.5671 24.2624 54.6973 25.1152C54.834 25.9681 54.9023 26.502 54.9023 26.7168C54.9023 26.9316 54.8535 27.0944 54.7559 27.2051C54.6582 27.3223 54.5443 27.3809 54.4141 27.3809C54.2904 27.3809 54.1797 27.3255 54.082 27.2148C53.9909 27.1107 53.9453 26.9674 53.9453 26.7852L54.1211 23.6699C54.1211 22.5306 53.877 21.9609 53.3887 21.9609L52.6465 21.9805H44.9707C44.3913 21.9805 43.9648 22.0911 43.6914 22.3125C43.3789 22.5729 43.2227 23.3086 43.2227 24.5195C43.2227 25.0078 43.2975 25.7272 43.4473 26.6777C43.597 27.6348 43.6719 28.3542 43.6719 28.8359C43.6719 29.5326 43.4245 29.8809 42.9297 29.8809C42.3958 29.8809 42.1289 29.5228 42.1289 28.8066C42.1289 28.3184 42.2363 27.5957 42.4512 26.6387C42.666 25.6816 42.7734 24.9557 42.7734 24.4609L42.7246 21.1895V9.80273C42.7246 9.39909 42.6009 9.07682 42.3535 8.83594L42.5488 8.63086C42.8158 8.88477 43.1413 9.01172 43.5254 9.01172H56.0645C56.4616 9.01172 56.7871 8.88477 57.041 8.63086L57.2363 8.83594C56.9499 9.1224 56.8066 9.68229 56.8066 10.5156V10.9551C56.8066 11.6908 56.9499 12.1953 57.2363 12.4688L57.041 12.6543C56.7155 12.3223 55.9505 12.1562 54.7461 12.1562L49.8926 12.3809C48.6947 12.3809 47.9329 12.2148 47.6074 11.8828L47.4023 12.0781C47.6562 12.3255 47.7832 12.6543 47.7832 13.0645C47.7832 13.4681 47.6562 13.7936 47.4023 14.041L47.6074 14.2266C47.9199 13.901 48.5775 13.7383 49.5801 13.7383L53.6719 13.9629C54.681 13.9629 55.3483 13.8001 55.6738 13.4746L55.8789 13.6699C55.5924 13.9564 55.4492 14.5553 55.4492 15.4668V15.8477C55.4492 16.5443 55.5924 17.0358 55.8789 17.3223L55.6738 17.5273C55.3613 17.2018 54.7005 17.0391 53.6914 17.0391L49.5996 17.2539C48.597 17.2539 47.9329 17.0911 47.6074 16.7656L47.4121 16.9609C47.6855 17.2409 47.8223 17.7292 47.8223 18.4258L47.8027 19.1875L47.6367 20.3594C47.6367 20.5938 47.7214 20.7109 47.8906 20.7109C48.0664 20.7109 48.1543 20.6003 48.1543 20.3789ZM59.5117 11.5215L59.5605 10.2715C59.5605 9.55534 59.4206 9.06055 59.1406 8.78711L59.3359 8.5918C59.5964 8.8457 59.9186 8.97266 60.3027 8.97266H73.125C73.5221 8.97266 73.8477 8.8457 74.1016 8.5918L74.2969 8.78711C74.0495 9.03451 73.9258 9.36003 73.9258 9.76367L73.877 11.0137C73.877 11.7168 74.0169 12.2083 74.2969 12.4883L74.1016 12.6934C73.8086 12.3939 73.3333 12.2441 72.6758 12.2441L70.5176 12.3809C69.834 12.3809 69.3424 12.2311 69.043 11.9316L68.8379 12.127C69.0918 12.3743 69.2188 12.6999 69.2188 13.1035V21.209C69.2188 21.8861 69.2773 22.8952 69.3945 24.2363C69.5182 25.5775 69.5801 26.4596 69.5801 26.8828C69.5801 27.625 69.4466 27.9961 69.1797 27.9961C68.9128 27.9961 68.7793 27.7324 68.7793 27.2051C68.7793 26.6777 68.8216 25.9616 68.9062 25.0566C68.9974 24.1582 69.043 23.4811 69.043 23.0254C69.043 22.3158 68.903 21.9609 68.623 21.9609C68.4863 21.9609 68.3789 22.0423 68.3008 22.2051C68.2227 22.3678 68.1836 22.5273 68.1836 22.6836L68.4082 24.7246C68.4082 25.1934 68.2747 25.4277 68.0078 25.4277C67.8711 25.4277 67.7702 25.3594 67.7051 25.2227C67.64 25.0859 67.6074 24.9264 67.6074 24.7441C67.6074 24.5618 67.666 24.2624 67.7832 23.8457C67.9004 23.4355 67.959 23.1003 67.959 22.8398C67.959 22.5794 67.8451 22.3809 67.6172 22.2441C67.3958 22.1074 67.1126 22.0391 66.7676 22.0391C66.429 22.0391 66.0742 22.1074 65.7031 22.2441C65.3385 22.3809 65.0163 22.5924 64.7363 22.8789C64.4564 23.1719 64.3164 23.4583 64.3164 23.7383C64.3164 24.0247 64.3587 24.3698 64.4434 24.7734C64.5345 25.1771 64.5801 25.5124 64.5801 25.7793C64.5801 26.0527 64.4596 26.1895 64.2188 26.1895C63.9453 26.1895 63.8086 26.043 63.8086 25.75C63.8086 25.4635 63.8607 25.099 63.9648 24.6562C64.069 24.2135 64.1211 23.8815 64.1211 23.6602V21.1211C64.1341 17.5534 64.1406 14.8809 64.1406 13.1035C64.1406 12.6934 64.2643 12.3678 64.5117 12.127L64.3164 11.9316C64.0299 12.2246 63.5547 12.3711 62.8906 12.3711L60.791 12.2441C60.1204 12.2441 59.6354 12.3939 59.3359 12.6934L59.1406 12.4883C59.388 12.2409 59.5117 11.9186 59.5117 11.5215ZM67.9297 26.9023C68.0859 27.6185 68.1641 28.2402 68.1641 28.7676C68.1641 28.9954 68.0827 29.1094 67.9199 29.1094C67.7572 29.1094 67.6758 29.0052 67.6758 28.7969C67.6758 28.2109 67.7604 27.5794 67.9297 26.9023ZM83.2812 16.541H77.7344C77.2396 16.541 76.8197 16.5605 76.4746 16.5996V13.3672C76.8132 13.4518 77.3698 13.4941 78.1445 13.4941H82.8613C83.6035 13.4941 84.1439 13.4518 84.4824 13.3672V16.5996C84.1439 16.5605 83.7435 16.541 83.2812 16.541ZM86.709 22.625L86.7383 24.1777C86.7383 24.4902 86.6895 24.7246 86.5918 24.8809C86.4941 25.0436 86.377 25.125 86.2402 25.125C85.9668 25.125 85.8301 24.8613 85.8301 24.334C85.8301 23.8066 85.8952 23.2207 86.0254 22.5762C86.1556 21.9382 86.2695 21.4987 86.3672 21.2578L91.0547 9.72461C91.1198 9.55534 91.1523 9.38932 91.1523 9.22656C91.1523 9.0638 91.097 8.9043 90.9863 8.74805L91.2598 8.57227C91.4486 8.85221 91.7415 8.99219 92.1387 8.99219H96.6309C97.0215 8.99219 97.3112 8.85221 97.5 8.57227L97.7832 8.74805C97.6725 8.9043 97.6172 9.05404 97.6172 9.19727C97.6172 9.34049 97.6562 9.51302 97.7344 9.71484L102.559 21.2676C102.708 21.6322 102.939 21.9186 103.252 22.127L103.135 22.3125C102.816 22.1042 102.461 22 102.07 22H100.156C100.169 22.1432 100.176 22.2441 100.176 22.3027C100.176 22.5176 100.088 22.625 99.9121 22.625C99.834 22.625 99.7624 22.5924 99.6973 22.5273C99.6387 22.4688 99.6094 22.3809 99.6094 22.2637C99.6094 22.153 99.6159 22.0651 99.6289 22H98.4473C98.1608 22 97.9753 22.1562 97.8906 22.4688C97.7865 22.8529 97.7344 23.2923 97.7344 23.7871C97.7344 24.2884 97.7669 24.7441 97.832 25.1543C97.8971 25.5645 97.9297 25.8444 97.9297 25.9941C97.9297 26.1504 97.8906 26.2741 97.8125 26.3652C97.7409 26.4629 97.6497 26.5117 97.5391 26.5117C97.4284 26.5117 97.334 26.4661 97.2559 26.375C97.1777 26.2839 97.1387 26.1569 97.1387 25.9941C97.1387 25.8314 97.1777 25.5156 97.2559 25.0469C97.3405 24.5781 97.3828 24.2266 97.3828 23.9922V21.248C97.3177 21.0723 97.2852 20.9095 97.2852 20.7598C97.2852 20.61 97.3438 20.4505 97.4609 20.2812L97.207 20.0957C97.0117 20.3757 96.7188 20.5156 96.3281 20.5156H92.3145C91.9238 20.5156 91.6309 20.3789 91.4355 20.1055L91.1816 20.2812C91.3053 20.457 91.3672 20.6198 91.3672 20.7695C91.3672 20.9193 91.3444 21.0788 91.2988 21.248V21.2578C91.2402 21.4792 91.2109 21.6484 91.2109 21.7656C91.2109 21.8828 91.276 22.0358 91.4062 22.2246L91.1523 22.4102C90.957 22.1367 90.6641 22 90.2734 22H86.7383C86.7188 22.1237 86.709 22.332 86.709 22.625ZM93.3203 17.8105H95.1855C95.5762 17.8105 95.9277 17.9147 96.2402 18.123L96.3672 17.9375C96.0612 17.7292 95.8398 17.4395 95.7031 17.0684L94.4629 13.8945C94.3197 13.5234 94.2448 13.1458 94.2383 12.7617H94.1113C94.0983 13.1914 94.0332 13.569 93.916 13.8945L92.793 17.0586C92.6562 17.4362 92.4382 17.7292 92.1387 17.9375L92.2656 18.1328C92.5716 17.918 92.9232 17.8105 93.3203 17.8105ZM99.6582 25.2324C99.6582 24.7832 99.7428 24.2201 99.9121 23.543C100.101 24.3242 100.195 24.832 100.195 25.0664C100.195 25.4115 100.104 25.584 99.9219 25.584C99.7461 25.584 99.6582 25.4668 99.6582 25.2324ZM109.414 27.2637L109.521 24.666C109.521 23.8262 109.489 23.2956 109.424 23.0742C109.365 22.8529 109.303 22.6576 109.238 22.4883C109.173 22.319 109.089 22.1823 108.984 22.0781C108.88 21.974 108.757 21.8763 108.613 21.7852C108.34 21.6029 107.91 21.5117 107.324 21.5117C106.738 21.5117 106.243 21.7493 105.84 22.2246C105.443 22.6999 105.244 23.2695 105.244 23.9336C105.244 24.181 105.293 24.5488 105.391 25.0371C105.488 25.5319 105.537 25.903 105.537 26.1504C105.537 26.6191 105.371 26.8535 105.039 26.8535C104.707 26.8535 104.541 26.6257 104.541 26.1699C104.541 25.916 104.59 25.5352 104.688 25.0273C104.792 24.5195 104.844 24.1354 104.844 23.875L104.912 21.2578V9.7832C104.912 9.37956 104.785 9.05404 104.531 8.80664L104.727 8.60156C105 8.86198 105.326 8.99219 105.703 8.99219H109.238C109.629 8.99219 109.954 8.86198 110.215 8.60156L110.41 8.80664C110.156 9.06055 110.029 9.38607 110.029 9.7832V21.209C110.029 21.5475 109.993 22.1302 109.922 22.957C109.85 23.7904 109.827 24.4316 109.854 24.8809H109.844C110.085 25.9616 110.205 26.7852 110.205 27.3516C110.205 27.918 110.098 28.2012 109.883 28.2012C109.57 28.2012 109.414 27.8887 109.414 27.2637ZM123.545 26.873L123.73 22.2344C121.745 21.9544 120.215 21.2383 119.141 20.0859C118.073 18.9336 117.539 17.3613 117.539 15.3691C117.539 13.2467 118.236 11.6159 119.629 10.4766C121.165 9.20703 123.447 8.57227 126.475 8.57227C131.325 8.57227 134.036 9.96549 134.609 12.752C134.688 13.1556 134.86 13.4648 135.127 13.6797L134.961 13.8945C134.648 13.6602 134.31 13.5592 133.945 13.5918L130.186 13.8262C129.749 13.8587 129.466 14.0182 129.336 14.3047L129.014 14.1484C129.079 14.0052 129.111 13.8815 129.111 13.7773C129.111 13.4388 128.997 13.1458 128.77 12.8984C128.548 12.6445 128.265 12.4557 127.92 12.332C127.249 12.0911 126.598 11.9707 125.967 11.9707C125.003 11.9707 124.251 12.2995 123.711 12.957C123.177 13.6081 122.91 14.4577 122.91 15.5059C122.91 16.5475 123.213 17.4004 123.818 18.0645C124.43 18.722 125.286 19.0508 126.387 19.0508C126.738 19.0508 127.129 18.9661 127.559 18.7969C127.995 18.6211 128.379 18.3704 128.711 18.0449C129.049 17.7194 129.219 17.3743 129.219 17.0098C129.219 16.9056 129.183 16.7754 129.111 16.6191L129.434 16.4531C129.59 16.7461 129.84 16.9056 130.186 16.9316C130.537 16.9577 130.99 16.9935 131.543 17.0391C132.76 17.1497 133.607 17.2051 134.082 17.2051C134.557 17.2051 134.932 17.1042 135.205 16.9023L135.361 17.1074C135.12 17.2897 134.938 17.6283 134.814 18.123C134.697 18.6113 134.466 19.0833 134.121 19.5391C133.776 19.9883 133.385 20.3626 132.949 20.6621C132.52 20.9551 132.018 21.2122 131.445 21.4336C130.462 21.8242 129.385 22.1009 128.213 22.2637C128.213 22.8626 128.291 23.7513 128.447 24.9297C128.604 26.1081 128.682 26.8926 128.682 27.2832C128.682 27.6738 128.633 27.9473 128.535 28.1035C128.444 28.2598 128.307 28.3379 128.125 28.3379C127.943 28.3379 127.803 28.2598 127.705 28.1035C127.607 27.9473 127.559 27.6966 127.559 27.3516C127.559 27.013 127.611 26.3522 127.715 25.3691C127.826 24.3861 127.881 23.7285 127.881 23.3965C127.881 23.0645 127.865 22.8398 127.832 22.7227C127.799 22.6055 127.76 22.5143 127.715 22.4492C127.669 22.3906 127.591 22.3451 127.48 22.3125C127.227 22.2474 126.921 22.2311 126.562 22.2637C125.846 22.3223 125.488 22.4427 125.488 22.625L125.723 25.2812C125.723 25.7044 125.599 25.916 125.352 25.916C125.104 25.916 124.98 25.737 124.98 25.3789C124.98 25.0208 125.023 24.5456 125.107 23.9531C125.199 23.3607 125.244 22.9342 125.244 22.6738C125.244 22.4199 125.16 22.293 124.99 22.293C124.658 22.293 124.434 22.3288 124.316 22.4004C124.206 22.472 124.15 22.5371 124.15 22.5957L124.258 26.8242C124.258 26.9349 124.222 27.0326 124.15 27.1172C124.079 27.2083 123.991 27.2539 123.887 27.2539C123.783 27.2539 123.698 27.2148 123.633 27.1367C123.574 27.0651 123.545 26.9772 123.545 26.873ZM145.713 23.582L145.781 22.6445C145.781 22.4818 145.703 22.3548 145.547 22.2637C145.391 22.179 145.221 22.1367 145.039 22.1367C144.857 22.1367 144.694 22.1855 144.551 22.2832C144.408 22.3809 144.336 22.5208 144.336 22.7031V24.9492C144.336 25.2747 144.404 25.7533 144.541 26.3848C144.678 27.0163 144.746 27.4655 144.746 27.7324C144.746 28.0059 144.688 28.2305 144.57 28.4062C144.453 28.582 144.29 28.6699 144.082 28.6699C143.88 28.6699 143.727 28.5788 143.623 28.3965C143.519 28.2142 143.467 27.9766 143.467 27.6836C143.467 27.3906 143.542 26.8828 143.691 26.1602C143.841 25.4375 143.916 24.8776 143.916 24.4805C143.916 22.8724 143.617 22.0684 143.018 22.0684C142.21 22.0684 141.807 22.0358 141.807 21.9707V21.9902C141.807 22.4395 141.904 23.097 142.1 23.9629C142.301 24.8353 142.402 25.4603 142.402 25.8379C142.402 26.2155 142.334 26.5247 142.197 26.7656C142.061 27.013 141.849 27.1367 141.562 27.1367C141.283 27.1367 141.061 27.0195 140.898 26.7852C140.742 26.5508 140.664 26.2448 140.664 25.8672C140.664 25.4961 140.758 24.8548 140.947 23.9434C141.136 23.0384 141.23 22.3516 141.23 21.8828C139.688 21.3945 138.525 20.597 137.744 19.4902C136.969 18.3835 136.582 17.0163 136.582 15.3887C136.582 12.0163 138.281 9.88737 141.68 9.00195C142.78 8.71549 143.916 8.57227 145.088 8.57227C146.266 8.57227 147.266 8.63737 148.086 8.76758C148.913 8.89779 149.71 9.12891 150.479 9.46094C151.253 9.78646 151.911 10.2031 152.451 10.7109C152.998 11.2122 153.434 11.8633 153.76 12.6641C154.085 13.4583 154.248 14.3665 154.248 15.3887C154.248 17.472 153.662 19.0866 152.49 20.2324C151.318 21.3717 149.671 22.0716 147.549 22.332C147.523 22.3776 147.51 22.4492 147.51 22.5469L147.559 23.084C147.559 23.416 147.467 23.582 147.285 23.582C147.103 23.582 147.012 23.4225 147.012 23.1035L147.041 22.5566C147.041 22.3613 146.901 22.2637 146.621 22.2637C146.595 22.3223 146.582 22.4329 146.582 22.5957L146.631 23.543C146.631 23.7383 146.595 23.9271 146.523 24.1094C146.452 24.2917 146.331 24.3828 146.162 24.3828C145.863 24.3828 145.713 24.1159 145.713 23.582ZM142.021 15.3984C142.021 17.7812 143.154 18.9727 145.42 18.9727C147.686 18.9727 148.818 17.7812 148.818 15.3984C148.818 14.3047 148.525 13.4681 147.939 12.8887C147.354 12.3092 146.514 12.0195 145.42 12.0195C144.326 12.0195 143.486 12.3092 142.9 12.8887C142.314 13.4681 142.021 14.3047 142.021 15.3984ZM161.953 24.4121L162.158 23.0254C162.158 22.0684 161.136 21.5898 159.092 21.5898C158.74 21.5898 158.496 21.6712 158.359 21.834C158.223 21.9967 158.154 22.2734 158.154 22.6641C158.154 23.0547 158.213 23.5951 158.33 24.2852C158.447 24.9818 158.506 25.5124 158.506 25.877C158.506 26.248 158.359 26.4336 158.066 26.4336C157.773 26.4336 157.627 26.2383 157.627 25.8477C157.627 25.4635 157.673 24.8809 157.764 24.0996C157.855 23.3184 157.9 22.7878 157.9 22.5078C157.9 21.8438 157.78 21.5117 157.539 21.5117C157.383 21.5117 157.305 21.6973 157.305 22.0684L157.539 23.6895C157.539 24.0736 157.399 24.2656 157.119 24.2656C156.846 24.2656 156.709 24.0703 156.709 23.6797L156.934 21.8828L156.924 20.2617V9.7832C156.924 9.37956 156.797 9.05404 156.543 8.80664L156.738 8.60156C157.005 8.86198 157.331 8.99219 157.715 8.99219H165.781C169.674 8.99219 172.09 10.2585 173.027 12.791C173.288 13.5072 173.418 14.2721 173.418 15.0859C173.418 15.8932 173.366 16.5898 173.262 17.1758C173.164 17.7552 173.037 18.2663 172.881 18.709C172.725 19.1452 172.503 19.5326 172.217 19.8711C171.937 20.2096 171.654 20.4961 171.367 20.7305C171.087 20.9583 170.729 21.1536 170.293 21.3164C169.857 21.4792 169.453 21.6061 169.082 21.6973C168.711 21.7819 168.245 21.847 167.686 21.8926C166.807 21.9642 165.775 22 164.59 22H163.174C162.627 22 162.354 22.3906 162.354 23.1719L162.51 24.4219C162.51 24.6693 162.425 24.793 162.256 24.793C162.054 24.793 161.953 24.666 161.953 24.4121ZM167.549 17.6934C167.751 17.4329 167.907 17.0977 168.018 16.6875C168.128 16.2708 168.184 15.7728 168.184 15.1934C168.184 14.6074 168.086 14.1191 167.891 13.7285C167.695 13.3379 167.435 13.0514 167.109 12.8691C166.784 12.6868 166.423 12.5534 166.025 12.4688C165.628 12.3776 165.212 12.3288 164.775 12.3223C164.339 12.3092 163.932 12.2995 163.555 12.293C162.63 12.2799 162.038 12.1432 161.777 11.8828L161.582 12.0781C161.829 12.319 161.953 12.6445 161.953 13.0547V15.3008C161.953 16.7982 161.96 17.918 161.973 18.6602H164.189C165.303 18.6602 166.09 18.5625 166.553 18.3672C167.021 18.1719 167.354 17.9473 167.549 17.6934ZM162.578 27.8691C162.578 28.1686 162.467 28.3184 162.246 28.3184C162.031 28.3184 161.924 28.1947 161.924 27.9473C161.924 27.7064 161.937 27.4948 161.963 27.3125C161.995 27.1302 162.048 26.8958 162.119 26.6094C162.191 26.3294 162.233 26.1536 162.246 26.082C162.266 26.1667 162.301 26.3066 162.354 26.502C162.406 26.7038 162.445 26.86 162.471 26.9707C162.542 27.2767 162.578 27.5762 162.578 27.8691ZM181.494 20.3789L181.338 19.168V19.0605C181.475 18.8197 181.66 18.6992 181.895 18.6992L189.863 18.709C190.26 18.709 190.583 18.582 190.83 18.3281L191.025 18.5234C190.661 19.194 190.479 20.4082 190.479 22.166C190.479 22.4395 190.537 22.9668 190.654 23.748C190.778 24.5358 190.84 25.0566 190.84 25.3105C190.84 25.571 190.798 25.763 190.713 25.8867C190.628 26.0104 190.527 26.0723 190.41 26.0723C190.293 26.0723 190.189 26.0039 190.098 25.8672C190.013 25.7305 189.971 25.5417 189.971 25.3008L190.127 23.1426C190.127 22.5697 190.026 22.14 189.824 21.8535C189.622 21.5605 189.349 21.4141 189.004 21.4141C188.229 21.4141 187.842 21.9967 187.842 23.1621C187.842 23.6113 187.907 24.2624 188.037 25.1152C188.174 25.9681 188.242 26.502 188.242 26.7168C188.242 26.9316 188.193 27.0944 188.096 27.2051C187.998 27.3223 187.884 27.3809 187.754 27.3809C187.63 27.3809 187.52 27.3255 187.422 27.2148C187.331 27.1107 187.285 26.9674 187.285 26.7852L187.461 23.6699C187.461 22.5306 187.217 21.9609 186.729 21.9609L185.986 21.9805H178.311C177.731 21.9805 177.305 22.0911 177.031 22.3125C176.719 22.5729 176.562 23.3086 176.562 24.5195C176.562 25.0078 176.637 25.7272 176.787 26.6777C176.937 27.6348 177.012 28.3542 177.012 28.8359C177.012 29.5326 176.764 29.8809 176.27 29.8809C175.736 29.8809 175.469 29.5228 175.469 28.8066C175.469 28.3184 175.576 27.5957 175.791 26.6387C176.006 25.6816 176.113 24.9557 176.113 24.4609L176.064 21.1895V9.80273C176.064 9.39909 175.941 9.07682 175.693 8.83594L175.889 8.63086C176.156 8.88477 176.481 9.01172 176.865 9.01172H189.404C189.801 9.01172 190.127 8.88477 190.381 8.63086L190.576 8.83594C190.29 9.1224 190.146 9.68229 190.146 10.5156V10.9551C190.146 11.6908 190.29 12.1953 190.576 12.4688L190.381 12.6543C190.055 12.3223 189.29 12.1562 188.086 12.1562L183.232 12.3809C182.035 12.3809 181.273 12.2148 180.947 11.8828L180.742 12.0781C180.996 12.3255 181.123 12.6543 181.123 13.0645C181.123 13.4681 180.996 13.7936 180.742 14.041L180.947 14.2266C181.26 13.901 181.917 13.7383 182.92 13.7383L187.012 13.9629C188.021 13.9629 188.688 13.8001 189.014 13.4746L189.219 13.6699C188.932 13.9564 188.789 14.5553 188.789 15.4668V15.8477C188.789 16.5443 188.932 17.0358 189.219 17.3223L189.014 17.5273C188.701 17.2018 188.04 17.0391 187.031 17.0391L182.939 17.2539C181.937 17.2539 181.273 17.0911 180.947 16.7656L180.752 16.9609C181.025 17.2409 181.162 17.7292 181.162 18.4258L181.143 19.1875L180.977 20.3594C180.977 20.5938 181.061 20.7109 181.23 20.7109C181.406 20.7109 181.494 20.6003 181.494 20.3789ZM209.219 25.2031L209.434 23.1816C209.434 22.3613 209.098 21.7363 208.428 21.3066C207.764 20.8704 207.064 20.6784 206.328 20.7305C205.592 20.776 205.078 21.0234 204.785 21.4727C204.635 21.6875 204.561 21.9414 204.561 22.2344L204.512 24.8516C204.512 25.2096 204.567 25.7402 204.678 26.4434C204.788 27.153 204.844 27.6868 204.844 28.0449C204.844 28.6764 204.665 28.9922 204.307 28.9922C203.949 28.9922 203.77 28.6862 203.77 28.0742C203.77 27.6706 203.828 27.0911 203.945 26.3359C204.062 25.5807 204.128 25.0078 204.141 24.6172C204.16 24.2266 204.17 23.3932 204.17 22.1172C204.17 21.7786 204.066 21.388 203.857 20.9453C203.649 20.5026 203.32 19.8939 202.871 19.1191C202.422 18.3444 202.054 17.6608 201.768 17.0684L201.475 16.9023C201.318 17.1888 201.042 17.332 200.645 17.332L199.824 17.3613C199.264 17.3613 198.844 17.2246 198.564 16.9512L198.359 17.1465C198.379 17.3874 198.389 17.9017 198.389 18.6895L198.379 21.082C198.379 21.7982 198.392 22.3255 198.418 22.6641L198.604 24.0996C198.604 24.3665 198.512 24.5 198.33 24.5C198.148 24.5 198.057 24.3763 198.057 24.1289L198.213 22.918C198.213 22.625 198.125 22.3906 197.949 22.2148C197.78 22.0456 197.555 21.9609 197.275 21.9609C197.002 21.9609 196.758 22.0814 196.543 22.3223C196.335 22.5697 196.23 22.8887 196.23 23.2793C196.23 23.6699 196.302 24.1973 196.445 24.8613C196.589 25.5319 196.66 26.0137 196.66 26.3066C196.66 26.9186 196.442 27.2246 196.006 27.2246C195.57 27.2246 195.352 26.9251 195.352 26.3262C195.352 26.0462 195.413 25.5579 195.537 24.8613C195.667 24.1647 195.732 23.6113 195.732 23.2012C195.732 22.791 195.638 22.4525 195.449 22.1855C195.26 21.9251 195.046 21.7949 194.805 21.7949C194.564 21.7949 194.359 21.8763 194.189 22.0391C194.02 22.2083 193.936 22.4167 193.936 22.6641L194.199 24.9785C194.199 25.3757 194.053 25.5742 193.76 25.5742C193.467 25.5742 193.32 25.3724 193.32 24.9688C193.32 24.7344 193.382 24.3242 193.506 23.7383C193.63 23.1589 193.688 22.7064 193.682 22.3809C193.675 22.0553 193.672 17.8431 193.672 9.74414C193.672 9.34049 193.548 9.01823 193.301 8.77734L193.496 8.58203C193.75 8.82943 194.072 8.95312 194.463 8.95312H203.213C204.58 8.95312 205.498 8.99544 205.967 9.08008C206.442 9.1582 206.855 9.24284 207.207 9.33398C207.565 9.42513 207.865 9.53906 208.105 9.67578C208.353 9.80599 208.6 9.97201 208.848 10.1738C209.102 10.3691 209.303 10.5938 209.453 10.8477C209.798 11.4271 209.971 12.0423 209.971 12.6934C209.971 13.3444 209.919 13.8783 209.814 14.2949C209.717 14.7051 209.551 15.0924 209.316 15.457C208.809 16.2448 207.917 16.6387 206.641 16.6387L206.562 16.8633C206.973 17.026 207.246 17.2507 207.383 17.5371C207.956 18.7871 208.379 19.5814 208.652 19.9199C208.926 20.252 209.18 20.5189 209.414 20.7207C209.648 20.9225 209.984 21.1276 210.42 21.3359C210.856 21.5443 211.12 21.681 211.211 21.7461C211.302 21.8047 211.348 21.8535 211.348 21.8926C211.348 22.5436 211.436 23.3802 211.611 24.4023C211.787 25.4245 211.875 26.082 211.875 26.375C211.875 26.668 211.862 26.8796 211.836 27.0098C211.816 27.14 211.768 27.2669 211.689 27.3906C211.611 27.5208 211.497 27.5859 211.348 27.5859C211.198 27.5859 211.084 27.4785 211.006 27.2637C210.934 27.0488 210.898 26.7852 210.898 26.4727C210.898 26.1602 210.941 25.6003 211.025 24.793C211.11 23.9922 211.152 23.3867 211.152 22.9766C211.152 22.1628 210.889 21.7559 210.361 21.7559C210.101 21.7559 209.906 21.8014 209.775 21.8926C209.652 21.9837 209.59 22.1693 209.59 22.4492C209.59 22.7357 209.648 23.1882 209.766 23.8066C209.883 24.4251 209.941 24.8906 209.941 25.2031C209.941 25.5221 209.821 25.6816 209.58 25.6816C209.339 25.6816 209.219 25.5221 209.219 25.2031ZM202.715 12.1953L200.41 12.2637C199.466 12.2637 198.851 12.1237 198.564 11.8438L198.359 12.0293C198.62 12.2832 198.75 12.6087 198.75 13.0059V13.6602C198.75 14.0508 198.62 14.3763 198.359 14.6367L198.564 14.832C198.844 14.5456 199.424 14.4023 200.303 14.4023L202.773 14.4902C203.431 14.4902 203.939 14.4056 204.297 14.2363C204.661 14.0605 204.844 13.7415 204.844 13.2793C204.844 12.9863 204.743 12.7585 204.541 12.5957C204.339 12.4264 204.095 12.319 203.809 12.2734C203.522 12.2214 203.158 12.1953 202.715 12.1953Z" fill="white"/>
<defs>
<linearGradient id="paint0_linear_172_39603" x1="263.978" y1="17.5769" x2="227.389" y2="17.5769" gradientUnits="userSpaceOnUse">
<stop stop-color="#F97316"/>
<stop offset="1" stop-color="#EF4444"/>
</linearGradient>
<clipPath id="clip0_172_39603">
<rect width="35" height="35" fill="white" transform="translate(229)"/>
</clipPath>
</defs>
</svg>
