<svg width="40" height="40" viewBox="0 0 40 40" fill="none" xmlns="http://www.w3.org/2000/svg">
<g id="299033_microphone_icon 1">
<g id="Group">
<path id="Vector" d="M31.667 16.6667C32.587 16.6667 33.3337 17.3334 33.3337 18.3334V20C33.3337 26.6667 28.2403 32.3334 21.667 33.1667V36.6667H31.667C32.587 36.6667 33.3337 37.3334 33.3337 38.3334C33.3337 39.1667 32.587 40 31.667 40H8.33366C7.41316 40 6.66699 39.1667 6.66699 38.3334C6.66699 37.3334 7.41316 36.6667 8.33366 36.6667H18.3337V33.1667C11.7597 32.3334 6.66699 26.6667 6.66699 20V18.3334C6.66699 17.3334 7.41316 16.6667 8.33366 16.6667C9.25416 16.6667 10.0003 17.3334 10.0003 18.3334V20C10.0003 25.5 14.4775 30 20.0003 30C25.5237 30 30.0003 25.5 30.0003 20V18.3334C30.0003 17.3334 30.747 16.6667 31.667 16.6667Z" fill="url(#paint0_linear_329_1424)"/>
<path id="Vector_2" d="M20.0007 0C23.6823 0 26.6673 3 26.6673 6.66667V20C26.6673 23.6667 23.6823 26.6667 20.0007 26.6667C16.3188 26.6667 13.334 23.6667 13.334 20V6.66667C13.334 3 16.3188 0 20.0007 0Z" fill="url(#paint1_linear_329_1424)"/>
<path id="Vector_3" d="M20.0007 0V26.6667C16.3188 26.6667 13.334 23.6667 13.334 20V6.66667C13.334 3 16.3188 0 20.0007 0Z" fill="url(#paint2_linear_329_1424)"/>
<path id="Vector_4" d="M26.6673 8.33331V9.99998H23.334V8.33331H26.6673ZM26.6673 11.6666V13.3333H23.334V11.6666H26.6673ZM26.6673 15V16.6666H23.334V15H26.6673Z" fill="url(#paint3_linear_329_1424)"/>
<path id="Vector_5" d="M16.6673 8.33331V9.99998H13.334V8.33331H16.6673ZM16.6673 11.6666V13.3333H13.334V11.6666H16.6673ZM16.6673 15V16.6666H13.334V15H16.6673Z" fill="url(#paint4_linear_329_1424)"/>
</g>
</g>
<defs>
<linearGradient id="paint0_linear_329_1424" x1="33.3337" y1="28.3334" x2="5.46699" y2="28.3334" gradientUnits="userSpaceOnUse">
<stop stop-color="#F97316"/>
<stop offset="1" stop-color="#EF4444"/>
</linearGradient>
<linearGradient id="paint1_linear_329_1424" x1="26.6673" y1="13.3333" x2="12.734" y2="13.3333" gradientUnits="userSpaceOnUse">
<stop stop-color="#F97316"/>
<stop offset="1" stop-color="#EF4444"/>
</linearGradient>
<linearGradient id="paint2_linear_329_1424" x1="20.0007" y1="13.3333" x2="13.034" y2="13.3333" gradientUnits="userSpaceOnUse">
<stop stop-color="#F97316"/>
<stop offset="1" stop-color="#EF4444"/>
</linearGradient>
<linearGradient id="paint3_linear_329_1424" x1="26.6673" y1="12.5" x2="23.184" y2="12.5" gradientUnits="userSpaceOnUse">
<stop stop-color="#F97316"/>
<stop offset="1" stop-color="#EF4444"/>
</linearGradient>
<linearGradient id="paint4_linear_329_1424" x1="16.6673" y1="12.5" x2="13.184" y2="12.5" gradientUnits="userSpaceOnUse">
<stop stop-color="#F97316"/>
<stop offset="1" stop-color="#EF4444"/>
</linearGradient>
</defs>
</svg>
