<svg width="500" height="501" viewBox="0 0 500 501" fill="none" xmlns="http://www.w3.org/2000/svg">
<g clip-path="url(#clip0_431_594)">
<path opacity="0.3" d="M97.4535 83.5926C84.3895 109.531 79.0385 138.398 76.4135 167.091C74.0085 193.451 78.4175 213.258 64.9525 238.224C55.9295 254.958 44.4215 270.556 38.4185 288.593C25.7935 326.55 52.8115 359.945 79.9415 383.552C151.967 446.216 250.043 477.947 345.117 469.349C369.691 467.13 394.517 462.16 415.939 449.919C437.357 437.671 455.082 417.271 459.521 392.999C465.044 362.804 449.867 332.823 447.953 302.186C446.014 271.081 457.779 240.943 462.846 210.191C467.91 179.436 464.028 143.256 439.043 124.631C418.008 108.956 389.287 110.797 363.582 105.574C322.967 97.3256 288.922 70.8146 252.26 51.4866C215.598 32.1586 169.379 20.2636 133.862 41.6216C117.776 51.2996 105.9 66.8326 97.4535 83.5926Z" fill="#99A5ED"/>
<path d="M139.223 163.146C139.223 169.291 144.204 174.272 150.351 174.272H187.067C193.213 174.272 198.197 169.29 198.197 163.146V153.132C198.197 146.984 193.214 142.005 187.067 142.005H150.351C144.205 142.005 139.223 146.984 139.223 153.132V163.146Z" fill="#4849D3"/>
<path d="M139.223 199.306C139.223 205.454 144.204 210.436 150.351 210.436H187.067C193.213 210.436 198.197 205.453 198.197 199.306V189.291C198.197 183.148 193.214 178.165 187.067 178.165H150.351C144.205 178.165 139.223 183.148 139.223 189.291V199.306Z" fill="#4849D3"/>
<path d="M294.555 320.333C294.555 329.567 287.073 337.038 277.846 337.038H164.839C155.614 337.038 148.141 329.567 148.141 320.333V90.2509C148.141 81.0249 155.615 73.5469 164.839 73.5469H277.846C287.073 73.5469 294.555 81.0249 294.555 90.2509V320.333Z" fill="#6A77E0"/>
<path d="M191.815 122.446C191.815 127.218 187.949 131.084 183.178 131.084C178.406 131.084 174.539 127.218 174.539 122.446C174.539 117.675 178.406 113.809 183.178 113.809C187.949 113.809 191.815 117.676 191.815 122.446Z" fill="#99A5ED"/>
<path d="M217.986 122.446C217.986 127.218 214.12 131.084 209.347 131.084C204.577 131.084 200.71 127.218 200.71 122.446C200.71 117.675 204.577 113.809 209.347 113.809C214.12 113.809 217.986 117.676 217.986 122.446Z" fill="#99A5ED"/>
<path d="M244.157 122.446C244.157 127.218 240.29 131.084 235.518 131.084C230.746 131.084 226.88 127.218 226.88 122.446C226.88 117.675 230.746 113.809 235.518 113.809C240.29 113.809 244.157 117.676 244.157 122.446Z" fill="#99A5ED"/>
<path d="M270.327 122.446C270.327 127.218 266.458 131.084 261.69 131.084C256.917 131.084 253.051 127.218 253.051 122.446C253.051 117.675 256.916 113.809 261.69 113.809C266.458 113.809 270.327 117.676 270.327 122.446Z" fill="#99A5ED"/>
<path d="M191.815 158.153C191.815 162.924 187.949 166.791 183.178 166.791C178.406 166.791 174.539 162.923 174.539 158.153C174.539 153.381 178.406 149.514 183.178 149.514C187.949 149.514 191.815 153.381 191.815 158.153Z" fill="url(#paint0_linear_431_594)"/>
<path d="M217.986 158.153C217.986 162.924 214.12 166.791 209.347 166.791C204.577 166.791 200.71 162.923 200.71 158.153C200.71 153.381 204.577 149.514 209.347 149.514C214.12 149.514 217.986 153.381 217.986 158.153Z" fill="#99A5ED"/>
<path d="M244.157 158.153C244.157 162.924 240.29 166.791 235.518 166.791C230.746 166.791 226.88 162.923 226.88 158.153C226.88 153.381 230.746 149.514 235.518 149.514C240.29 149.514 244.157 153.381 244.157 158.153Z" fill="#99A5ED"/>
<path d="M270.327 158.153C270.327 162.924 266.458 166.791 261.69 166.791C256.917 166.791 253.051 162.923 253.051 158.153C253.051 153.381 256.916 149.514 261.69 149.514C266.458 149.514 270.327 153.381 270.327 158.153Z" fill="#99A5ED"/>
<path d="M191.815 300.977C191.815 305.747 187.949 309.614 183.178 309.614C178.406 309.614 174.539 305.747 174.539 300.977C174.539 296.204 178.406 292.338 183.178 292.338C187.949 292.339 191.815 296.204 191.815 300.977Z" fill="#99A5ED"/>
<path d="M217.986 300.977C217.986 305.747 214.12 309.614 209.347 309.614C204.577 309.614 200.71 305.747 200.71 300.977C200.71 296.204 204.577 292.338 209.347 292.338C214.12 292.339 217.986 296.204 217.986 300.977Z" fill="#99A5ED"/>
<path d="M244.157 300.977C244.157 305.747 240.29 309.614 235.518 309.614C230.746 309.614 226.88 305.747 226.88 300.977C226.88 296.204 230.746 292.338 235.518 292.338C240.29 292.338 244.157 296.204 244.157 300.977Z" fill="#4849D3"/>
<path d="M270.327 300.977C270.327 305.747 266.458 309.614 261.69 309.614C256.917 309.614 253.051 305.747 253.051 300.977C253.051 296.204 256.916 292.338 261.69 292.338C266.458 292.339 270.327 296.204 270.327 300.977Z" fill="#99A5ED"/>
<path d="M191.815 229.565C191.815 234.335 187.949 238.204 183.178 238.204C178.406 238.204 174.539 234.336 174.539 229.565C174.539 224.794 178.406 220.927 183.178 220.927C187.949 220.927 191.815 224.794 191.815 229.565Z" fill="#99A5ED"/>
<path d="M217.986 229.565C217.986 234.335 214.12 238.204 209.347 238.204C204.577 238.204 200.71 234.336 200.71 229.565C200.71 224.794 204.577 220.927 209.347 220.927C214.12 220.927 217.986 224.794 217.986 229.565Z" fill="#4849D3"/>
<path d="M244.157 229.565C244.157 234.335 240.29 238.204 235.518 238.204C230.746 238.204 226.88 234.336 226.88 229.565C226.88 224.794 230.746 220.927 235.518 220.927C240.29 220.927 244.157 224.794 244.157 229.565Z" fill="#4849D3"/>
<path d="M270.327 229.565C270.327 234.335 266.458 238.204 261.69 238.204C256.917 238.204 253.051 234.336 253.051 229.565C253.051 224.794 256.916 220.927 261.69 220.927C266.458 220.927 270.327 224.794 270.327 229.565Z" fill="#99A5ED"/>
<path d="M191.815 193.859C191.815 198.629 187.949 202.497 183.178 202.497C178.406 202.497 174.539 198.629 174.539 193.859C174.539 189.088 178.406 185.219 183.178 185.219C187.949 185.22 191.815 189.088 191.815 193.859Z" fill="#99A5ED"/>
<path d="M217.986 193.859C217.986 198.629 214.12 202.497 209.347 202.497C204.577 202.497 200.71 198.629 200.71 193.859C200.71 189.088 204.577 185.219 209.347 185.219C214.12 185.22 217.986 189.088 217.986 193.859Z" fill="#99A5ED"/>
<path d="M244.157 193.859C244.157 198.629 240.29 202.497 235.518 202.497C230.746 202.497 226.88 198.629 226.88 193.859C226.88 189.088 230.746 185.219 235.518 185.219C240.29 185.219 244.157 189.088 244.157 193.859Z" fill="#99A5ED"/>
<path d="M270.327 193.859C270.327 198.629 266.458 202.497 261.69 202.497C256.917 202.497 253.051 198.629 253.051 193.859C253.051 189.088 256.916 185.219 261.69 185.219C266.458 185.22 270.327 189.088 270.327 193.859Z" fill="#99A5ED"/>
<path d="M282.124 265.268C282.124 272.371 276.366 278.127 269.265 278.127H174.517C167.415 278.127 161.658 272.371 161.658 265.268C161.658 258.166 167.416 252.411 174.517 252.411H269.265C276.366 252.41 282.124 258.166 282.124 265.268Z" fill="#4849D3"/>
<path d="M191.272 265.271C191.272 270.04 187.406 273.91 182.635 273.91C177.864 273.91 173.996 270.041 173.996 265.271C173.996 260.501 177.863 256.63 182.635 256.63C187.406 256.63 191.272 260.501 191.272 265.271Z" fill="#99A5ED"/>
<path d="M217.443 265.271C217.443 270.04 213.576 273.91 208.804 273.91C204.034 273.91 200.166 270.041 200.166 265.271C200.166 260.501 204.034 256.63 208.804 256.63C213.576 256.63 217.443 260.501 217.443 265.271Z" fill="#E2E2E2"/>
<path d="M243.614 265.271C243.614 270.04 239.746 273.91 234.974 273.91C230.203 273.91 226.337 270.041 226.337 265.271C226.337 260.501 230.203 256.63 234.974 256.63C239.746 256.63 243.614 260.501 243.614 265.271Z" fill="#99A5ED"/>
<path d="M269.784 265.271C269.784 270.04 265.915 273.91 261.145 273.91C256.374 273.91 252.508 270.041 252.508 265.271C252.508 260.501 256.373 256.63 261.145 256.63C265.915 256.63 269.784 260.501 269.784 265.271Z" fill="#99A5ED"/>
<path d="M294.555 106.247V90.2509C294.555 81.0249 287.073 73.5469 277.846 73.5469H164.839C155.614 73.5469 148.141 81.0249 148.141 90.2509V106.246L294.555 106.247Z" fill="#99A5ED"/>
<path d="M277.846 341.001H164.839C153.443 341.001 144.172 331.737 144.172 320.333V90.2511C144.172 78.8551 153.443 69.5811 164.839 69.5811H277.846C289.25 69.5811 298.522 78.8551 298.522 90.2511V320.333C298.521 331.737 289.25 341.001 277.846 341.001ZM164.839 77.5161C157.818 77.5161 152.104 83.2271 152.104 90.2521V320.334C152.104 327.359 157.819 333.072 164.839 333.072H277.846C284.871 333.072 290.586 327.359 290.586 320.334V90.2511C290.586 83.2271 284.871 77.5151 277.846 77.5151L164.839 77.5161Z" fill="#4849D3"/>
<path d="M360.797 202.979C360.797 207.525 357.113 211.21 352.567 211.21H206.938C202.394 211.21 198.709 207.525 198.709 202.979V145.053C198.709 140.506 202.393 136.821 206.938 136.821H352.567C357.113 136.821 360.797 140.507 360.797 145.053V202.979Z" stroke="white"/>
<path d="M266.045 174.015C266.045 191.013 252.267 204.79 235.272 204.79C218.277 204.79 204.498 191.013 204.498 174.015C204.498 157.021 218.277 143.242 235.272 143.242C252.267 143.242 266.045 157.021 266.045 174.015Z" fill="#FFA500" stroke="white"/>
<path d="M218.872 171.225L235.271 190.372L251.672 157.662" stroke="white" stroke-width="4" stroke-miterlimit="10" stroke-linecap="round"/>
<path d="M273.17 157.434H350.44V160.635H273.17V157.434Z" fill="#99A5ED" stroke="white"/>
<path d="M273.17 172.835H350.44V176.035H273.17V172.835Z" fill="#99A5ED" stroke="white"/>
<path d="M273.17 187.399H350.44V190.598H273.17V187.399Z" fill="#99A5ED" stroke="white"/>
<path d="M69.3086 429.965V440.326L91.4936 445.201H94.3796L83.4996 433.738L81.1786 429.965V425.693L69.3086 424.478V429.965Z" fill="#221F4F"/>
<path d="M125.705 431.15L127.933 441.27L150.648 441.258L153.467 440.639L140.376 431.783L137.297 428.598L136.378 424.428L124.525 425.791L125.705 431.15Z" fill="#221F4F"/>
<path d="M110.546 265.625C110.546 265.625 108.207 288.959 110.27 295.107C112.33 301.255 115.229 433.685 115.229 433.685C115.229 433.685 147.007 432.724 147.483 431.65C148.386 429.611 137.706 299.431 137.706 294.459C137.706 289.478 134.904 263.215 134.904 263.215L110.546 265.625Z" fill="#4849D3"/>
<path d="M125.671 264.127C125.671 264.127 120.019 281.437 116.401 293.172C111.444 309.246 91.4938 433.686 91.4938 433.686C91.4938 433.686 65.8728 433.803 63.0918 433.686C63.0918 433.686 88.8388 274.526 90.7268 264.997L125.671 264.127Z" fill="#6A77E0"/>
<path d="M139.144 204.67C141.832 211.331 139.516 219.437 138.856 230.188C138.4 237.599 138.481 262.43 135.162 265.647C128.967 271.653 94.605 271.256 89.865 269.86C86.741 268.932 87.83 259.889 82.615 243.214C77.131 225.681 77.995 206.789 79.519 204.65C81.874 201.35 104.679 195.237 109.391 194.577C114.101 193.915 136.065 197.036 139.144 204.67Z" fill="#F05A00"/>
<path d="M117.483 200.774L117.024 183.894V181.458L104.922 180.465L103.058 199.286C103.058 199.286 107.36 204.691 112.996 203.447C115.598 202.87 117.483 200.774 117.483 200.774Z" fill="#FAC1AC"/>
<path d="M103.37 178.719C104.086 185.789 109.605 190.788 115.597 190.533C126.985 190.048 125.992 181.878 125.282 174.809C124.566 167.743 118.895 164.918 112.912 165.276C106.934 165.632 102.661 171.654 103.37 178.719Z" fill="#FAC1AC"/>
<path d="M100.661 182.653C102.275 184.788 104.764 185.537 106.212 184.334C107.671 183.121 107.536 180.411 105.921 178.276C104.309 176.14 101.831 175.391 100.369 176.606C98.9212 177.813 99.0492 180.525 100.661 182.653Z" fill="#FAC1AC"/>
<path d="M134.258 157.741C133.795 157.836 131.991 158.382 131.528 158.475C131.672 157.908 131.854 156.119 131.986 155.549C132.062 155.222 131.641 154.97 131.368 155.103C130.875 155.345 130.466 155.601 129.965 155.72C130.375 154.05 130.622 152.349 130.979 150.665C131.071 150.227 130.426 150.025 130.189 150.361C128.29 153.061 125.726 154.917 122.792 155.821C120.517 155.894 118.333 155.841 115.982 155.416C113.432 154.957 110.736 154.982 108.166 155.239C104.112 155.65 101.35 157.409 99.3632 160.919C97.5902 164.053 97.3792 166.81 97.9092 169.684C98.1922 171.208 99.1042 175.608 100.37 176.605C100.963 177.07 103.801 176.867 105.612 180.731C105.751 181.027 106.158 180.677 106.145 180.404C106.016 177.829 105.867 176.767 106.487 174.242C107.607 169.684 115.371 169.065 119.749 169.11C122.545 169.138 123.828 170.412 124.456 171.861C124.999 173.121 125.403 176.023 125.403 176.023C125.403 176.023 125.664 175.669 126.016 175.424C128.493 173.703 131.746 171.172 132.821 168.391C133.909 165.581 134.589 157.601 134.258 157.741Z" fill="#4849D3"/>
<path d="M121.381 180.465C120.578 178.494 119.12 176.836 118.922 174.683C118.902 174.479 118.568 174.489 118.562 174.693C118.505 176.716 119.962 178.593 120.675 180.465C120.198 180.641 119.27 180.998 118.746 181.05C118.413 181.084 118.183 181.458 118.483 181.475C119.425 181.533 119.884 181.293 120.611 181.075C121.388 180.843 121.456 180.649 121.381 180.465Z" fill="#221F4F"/>
<path d="M115.287 173.625C115.278 173.605 115.27 173.584 115.263 173.564C115.221 173.462 115.112 173.382 115.002 173.375C114.076 173.321 112.617 173.635 111.988 174.368C111.923 174.446 112.009 174.537 112.089 174.534C112.711 174.509 113.336 174.214 113.944 174.089C114.33 174.014 115 174.159 115.263 173.839C115.313 173.781 115.314 173.693 115.287 173.625Z" fill="#221F4F"/>
<path d="M122.416 172.935C121.909 172.882 121.352 172.924 120.861 173.055C120.673 173.106 120.581 173.418 120.816 173.483C121.334 173.622 121.902 173.667 122.438 173.612C122.831 173.571 122.794 172.974 122.416 172.935Z" fill="#221F4F"/>
<path d="M115.329 175.774C115.329 176.264 114.948 176.662 114.481 176.662C114.013 176.662 113.633 176.264 113.633 175.774C113.633 175.282 114.013 174.885 114.481 174.885C114.948 174.885 115.329 175.282 115.329 175.774Z" fill="#221F4F"/>
<path d="M122.718 175.423C122.718 175.913 122.338 176.312 121.87 176.312C121.402 176.312 121.023 175.913 121.023 175.423C121.023 174.932 121.402 174.534 121.87 174.534C122.338 174.535 122.718 174.932 122.718 175.423Z" fill="#221F4F"/>
<path d="M103.382 180.195C103.763 180.912 103.734 181.671 103.319 181.89C102.905 182.108 102.262 181.707 101.882 180.991C101.503 180.274 101.531 179.515 101.945 179.296C102.359 179.077 103.003 179.479 103.382 180.195Z" fill="#F05A00"/>
<path d="M110.451 189.078C110.451 189.078 113.367 190.507 114.481 190.52C115.596 190.533 117.201 190.401 117.201 190.401L117.313 194.574C117.313 194.574 113.675 191.36 112.491 190.542C111.306 189.724 110.451 189.078 110.451 189.078Z" fill="#F05A00"/>
<path d="M169.442 180.594C169.442 180.594 156.926 201.403 149.622 201.894C141.272 202.458 134.726 199.774 130.235 198.38C126.506 197.225 125.671 196.723 125.671 196.723L130.665 228.703C130.665 228.703 151.067 228.703 159.543 221.979C165.063 217.601 167.886 216.179 173.416 199.716C176.066 191.827 176.066 189.079 177.215 184.908L169.442 180.594Z" fill="#F05A00"/>
<path opacity="0.4" d="M151.967 223.128C147.291 223.128 142.903 221.779 139.097 219.424L138.998 228.21C138.998 228.21 141.38 228.058 145.23 227.341C152.776 225.937 156.693 224.415 160.247 221.657C157.643 222.606 154.861 223.128 151.967 223.128Z" fill="#F05A00"/>
<path d="M184.213 169.392C184.397 168.84 184.527 168.331 184.54 168.159C184.565 167.847 183.357 166.477 182.448 167.762C182.433 167.783 182.418 167.809 182.402 167.829C182.622 167.257 182.769 166.731 182.684 166.576C182.434 166.118 181.225 165.276 180.326 166.322C181.052 164.428 182.427 160.867 182.743 160.277C183.174 159.468 183.481 157.19 182.232 157.547C180.858 157.942 178.808 162.422 177.296 165.384C176.015 167.895 175.306 169.526 174.926 170.591C174.744 169.997 174.549 169.29 174.334 168.444C173.805 166.36 172.544 165.286 171.915 165.392C171.285 165.496 171.415 166.542 171.401 168.392C171.359 174.095 171.416 178.619 171.423 179.239L170.422 181.152L176.405 184.558C176.781 183.795 177.099 183.153 177.333 182.681C177.934 181.89 179.179 180.341 180.874 178.704C181.72 177.884 182.32 177.054 182.75 176.314L182.753 176.315C182.753 176.315 182.761 176.301 182.773 176.278C182.91 176.037 183.032 175.809 183.135 175.593C183.529 174.849 184.156 173.665 184.656 172.727C185.086 171.918 185.364 170.191 185.389 169.881C185.414 169.618 184.918 168.842 184.213 169.392Z" fill="#FAC1AC"/>
<path opacity="0.4" d="M81.1787 238.025L93.5877 229.546C93.5877 229.546 95.5027 244.18 94.3797 252.248C93.2577 260.31 89.8637 269.859 89.8637 269.859C89.8637 269.859 88.1567 269.556 87.3217 264.127C86.4827 258.697 86.4827 258.697 84.7927 251.123C83.7137 246.288 81.1787 238.025 81.1787 238.025Z" fill="#F05A00"/>
<path d="M108.683 277.254L120.675 322.264L66.3659 337.377L54.5469 291.119L108.683 277.254Z" fill="#FFA500"/>
<path d="M58.502 293.613L118.746 321.193L107.224 280.793L58.502 293.613Z" fill="#F7BC81"/>
<path d="M74.2146 274.991C74.6276 274.302 78.7396 276.909 82.6146 279.987C83.4946 280.682 85.2546 283.282 85.2546 283.282L81.3516 284.278C81.3516 284.278 81.3256 286.438 85.2546 287.889C87.9826 288.893 80.7016 291.741 77.6856 290.774C72.2676 289.034 69.3096 278.131 69.3096 278.131L74.2146 274.991Z" fill="#FAC1AC"/>
<path d="M94.7319 200.599C98.3019 203.75 99.5779 216.386 97.6539 221.708C92.7469 235.298 86.8069 233.537 73.2149 242.876C65.0749 248.465 78.3079 275.792 78.3079 275.792L68.9949 282.106C68.9949 282.106 45.5219 257.053 46.8099 242.566C48.6639 221.708 78.9139 203.657 82.7759 202.173C90.3539 199.261 92.9219 199 94.7319 200.599Z" fill="#F05A00"/>
<path d="M91.9085 146.332C91.4605 145.239 91.1235 144.13 90.8665 143.05L92.3885 142.847C95.1375 142.482 97.0715 139.958 96.7055 137.206L93.5455 113.425C93.1825 110.675 90.6555 108.742 87.9055 109.109L45.5865 114.73C42.8375 115.095 40.9015 117.62 41.2695 120.371L44.4265 144.153C44.7935 146.902 47.3185 148.833 50.0685 148.468L78.4045 144.703C80.4995 147.179 83.1425 149.939 85.3905 151.142C92.5855 154.991 97.3895 151.99 97.3895 151.99C97.3895 151.99 94.1335 151.727 91.9085 146.332Z" fill="#99A5ED"/>
<path d="M66.2337 131.208C66.4417 132.73 67.8427 133.793 69.3647 133.586C70.8867 133.375 71.9527 131.975 71.7437 130.452C71.5347 128.931 70.1327 127.866 68.6097 128.074C67.0887 128.284 66.0227 129.686 66.2337 131.208Z" fill="#FFA500"/>
<path d="M54.5868 132.803C54.7958 134.324 56.1968 135.389 57.7188 135.18C59.2398 134.972 60.3067 133.571 60.0987 132.048C59.8887 130.526 58.4857 129.463 56.9647 129.671C55.4417 129.879 54.3778 131.281 54.5868 132.803Z" fill="#FFA500"/>
<path d="M395.783 188.16C396.232 187.068 396.568 185.958 396.826 184.879L395.304 184.675C392.554 184.309 390.622 181.786 390.986 179.035L394.146 155.254C394.511 152.503 397.037 150.571 399.787 150.937L442.105 156.559C444.855 156.925 446.79 159.45 446.423 162.2L443.267 185.981C442.898 188.732 440.374 190.663 437.626 190.298L409.288 186.533C407.194 189.009 404.55 191.768 402.3 192.97C395.107 196.818 390.302 193.818 390.302 193.818C390.302 193.818 393.56 193.555 395.783 188.16Z" fill="#6A77E0"/>
<path d="M426.616 161.608C428.864 164.025 430.114 167.057 430.002 170.37C429.868 173.342 428.801 176.234 426.656 178.357C426.497 178.502 426.335 178.644 426.17 178.782C425.99 178.935 425.831 179.092 425.668 179.262C424.239 180.616 422.111 181.443 420.198 181.806C420.103 181.824 420.103 181.824 420.006 181.842C417.009 182.357 413.733 181.637 411.221 179.933C408.543 178.03 406.692 175.23 406.139 171.993C405.653 168.762 406.402 165.509 408.317 162.85C410.145 160.41 412.923 158.666 415.946 158.163C416.053 158.149 416.161 158.134 416.271 158.119C416.388 158.103 416.506 158.087 416.627 158.07C420.271 157.649 424.058 158.999 426.616 161.608Z" fill="url(#paint1_linear_431_594)"/>
<path d="M420.973 163.905C421.213 164.103 421.376 164.244 421.486 164.536C421.477 165.015 421.321 165.373 421.101 165.788C421.068 165.853 421.035 165.917 421 165.984C420.894 166.189 420.787 166.394 420.679 166.6C420.54 166.867 420.401 167.135 420.263 167.403C420.228 167.47 420.193 167.537 420.157 167.606C419.885 168.133 419.628 168.667 419.375 169.203C419.064 169.864 418.738 170.517 418.41 171.169C418.379 171.23 418.349 171.291 418.317 171.355C418.285 171.417 418.254 171.48 418.222 171.544C418.19 171.608 418.158 171.671 418.125 171.736C418.06 171.865 417.996 171.993 417.931 172.122C417.738 172.506 417.546 172.892 417.356 173.278C417.236 173.524 417.114 173.768 416.993 174.013C416.908 174.184 416.825 174.356 416.741 174.528C416.689 174.632 416.638 174.735 416.585 174.842C416.54 174.932 416.496 175.023 416.45 175.116C416.289 175.374 416.131 175.523 415.881 175.693C415.578 175.737 415.312 175.696 415.022 175.603C414.798 175.381 414.798 175.381 414.69 175.087C414.699 174.522 414.872 174.124 415.125 173.633C415.163 173.558 415.201 173.482 415.24 173.404C415.366 173.155 415.492 172.906 415.619 172.658C415.707 172.483 415.796 172.308 415.884 172.133C416.067 171.768 416.252 171.403 416.436 171.038C416.836 170.248 417.228 169.455 417.621 168.661C417.745 168.412 417.869 168.163 417.993 167.913C418.338 167.221 418.682 166.528 419.022 165.832C419.097 165.678 419.097 165.678 419.175 165.52C419.264 165.339 419.352 165.157 419.439 164.975C419.789 164.263 420.104 163.727 420.973 163.905Z" fill="white"/>
<path d="M414.645 165.36C414.947 165.625 415.063 165.771 415.097 166.172C414.922 166.767 414.422 167.135 413.952 167.507C413.894 167.553 413.836 167.6 413.777 167.648C413.594 167.795 413.41 167.941 413.226 168.087C413.101 168.188 412.977 168.288 412.852 168.388C412.547 168.633 412.242 168.876 411.937 169.12C412.371 169.775 412.864 170.377 413.364 170.983C413.527 171.181 413.69 171.38 413.852 171.578C413.924 171.665 413.995 171.752 414.069 171.841C414.331 172.18 414.326 172.408 414.278 172.832C414.23 173.017 414.23 173.017 414.027 173.231C413.663 173.443 413.452 173.455 413.035 173.374C412.841 173.219 412.841 173.219 412.657 172.999C412.583 172.912 412.509 172.825 412.433 172.735C412.392 172.685 412.351 172.635 412.308 172.584C412.155 172.397 411.999 172.213 411.843 172.028C411.535 171.664 411.232 171.296 410.929 170.927C410.802 170.772 410.674 170.618 410.546 170.464C410.359 170.24 410.175 170.015 409.99 169.789C409.903 169.686 409.903 169.686 409.815 169.581C409.763 169.517 409.711 169.453 409.657 169.386C409.611 169.33 409.565 169.274 409.517 169.216C409.435 169.051 409.435 169.051 409.465 168.866C409.598 168.631 409.75 168.503 409.96 168.334C410.042 168.267 410.123 168.201 410.207 168.133C410.296 168.062 410.385 167.992 410.476 167.919C410.566 167.846 410.657 167.773 410.75 167.698C410.942 167.543 411.134 167.389 411.326 167.236C411.621 167 411.915 166.763 412.209 166.526C412.395 166.376 412.581 166.227 412.767 166.077C412.855 166.006 412.944 165.935 413.035 165.861C413.117 165.796 413.199 165.731 413.283 165.663C413.355 165.606 413.427 165.548 413.502 165.488C413.862 165.222 414.225 165.244 414.645 165.36Z" fill="white"/>
<path d="M423.14 166.249C423.324 166.409 423.324 166.409 423.512 166.626C423.587 166.712 423.662 166.799 423.739 166.888C424.311 167.567 424.869 168.258 425.427 168.948C425.554 169.106 425.682 169.264 425.81 169.422C426.121 169.805 426.431 170.188 426.74 170.572C426.57 170.872 426.377 171.061 426.109 171.278C426.028 171.344 425.946 171.41 425.862 171.478C425.73 171.584 425.73 171.584 425.595 171.692C425.505 171.765 425.414 171.839 425.321 171.914C425.13 172.068 424.938 172.222 424.747 172.376C424.453 172.612 424.16 172.849 423.867 173.086C423.681 173.236 423.495 173.385 423.31 173.535C423.222 173.606 423.133 173.677 423.043 173.751C422.92 173.849 422.92 173.849 422.795 173.949C422.724 174.006 422.652 174.064 422.578 174.124C422.341 174.3 422.224 174.331 421.926 174.34C421.625 174.272 421.625 174.272 421.378 174.048C421.155 173.673 421.097 173.501 421.172 173.07C421.714 172.426 422.47 171.923 423.126 171.397C423.235 171.31 423.343 171.223 423.451 171.135C423.714 170.924 423.976 170.713 424.239 170.503C423.793 169.828 423.283 169.21 422.769 168.586C422.598 168.378 422.427 168.17 422.256 167.962C422.181 167.871 422.106 167.78 422.029 167.686C421.762 167.342 421.76 167.118 421.814 166.685C421.86 166.5 421.86 166.5 422.022 166.276C422.43 166.092 422.719 166.096 423.14 166.249Z" fill="white"/>
<path d="M435.035 431.505L424.912 369.147L420.162 369.439L433.164 431.505H435.035Z" fill="#6A77E0"/>
<path d="M414.264 431.505L404.143 369.147L399.92 369.3L412.393 431.505H414.264Z" fill="#6A77E0"/>
<path d="M337.09 431.505L347.211 369.147L352.072 369.3L338.959 431.505H337.09Z" fill="#6A77E0"/>
<path d="M357.861 431.505L367.98 369.147L372.203 369.439L359.73 431.505H357.861Z" fill="#6A77E0"/>
<path d="M458.211 326.766C452.51 370.332 413.979 389.051 375.334 384.663C307.775 376.989 327.873 339.149 347.326 303.546C366.277 268.855 372.277 248.216 411.168 248.216C450.057 248.214 461.609 300.828 458.211 326.766Z" fill="#6A77E0"/>
<path opacity="0.5" d="M423.91 250.28C434.935 267.879 438.162 292.569 436.152 307.918C430.451 351.484 391.918 370.203 353.277 365.815C343.791 364.739 336.031 363.065 329.757 360.887C333.572 372.573 346.441 381.297 375.179 384.563C413.822 388.952 452.353 370.233 458.056 326.668C461.043 303.857 452.467 260.426 423.91 250.28Z" fill="#6A77E0"/>
<path d="M335.977 309.554C336.342 308.841 331.955 306.734 327.291 305.079C326.236 304.702 322.871 304.616 322.871 304.616L324.016 308.257C324.016 308.257 322.504 309.591 319.188 307.028C316.891 305.245 318.335 312.93 320.753 314.975C325.101 318.645 335.913 315.381 335.913 315.381L335.977 309.554Z" fill="#F7BC81"/>
<path d="M386.396 257.219C381.828 255.858 377.584 258.18 374.091 262.633C365.163 273.994 368.056 279.406 367.337 295.885C366.905 305.75 333.13 306.51 333.13 306.51L332.15 316.391C332.15 316.391 370.996 317.668 385.107 315.407C394.334 313.93 395.123 273.981 394.334 269.919C392.787 261.945 388.709 257.908 386.396 257.219Z" fill="#F59300"/>
<path d="M448.754 262.698C450.627 257.577 457.092 252.382 454.772 246.243C453.989 244.165 452.68 243.145 450.516 242.725C449.151 242.461 447.707 242.528 446.323 242.35C443.758 242.02 442.149 240.04 440.489 238.274C438.436 236.088 435.516 235.157 433.62 232.789C431.247 229.829 431.175 225.032 430.481 221.45C429.674 217.29 427.083 210.921 421.918 211.128C419.795 211.213 417.709 211.717 415.574 211.566C413.445 211.415 411.381 210.416 409.543 209.407C406.801 207.905 404.445 205.781 401.252 205.336C398.566 204.961 395.9 207.161 393.592 208.196C389.563 210.004 385.549 208.377 381.483 207.634C370.243 205.584 361.753 219.501 366.969 228.931C368.102 230.979 370.024 232.392 371.17 234.388C371.275 234.574 371.516 234.519 371.566 234.367C371.8 234.375 372.05 234.277 372.187 234.022C373.136 232.283 373.382 230.783 374.949 229.355C376.322 228.107 378.019 227.229 379.709 226.498C382.852 225.133 386.269 225.661 388.434 228.551C391.622 232.808 390.938 239.629 391.051 244.543C391.117 247.477 391.371 250.054 392.455 252.806C393.58 255.663 395.215 258.288 397.105 260.693C399.08 263.207 400.744 265.496 401.023 268.787C401.253 271.515 401.951 273.765 403.533 276.019C405.072 278.21 407.312 280.054 409.23 281.902C411.029 283.632 413.019 284.173 415.46 283.841C418.249 283.462 420.933 281.993 423.423 280.782C425.05 279.991 426.685 279.339 428.482 279.061C430.546 278.741 432.964 279.459 435.031 279.672C438.127 279.99 441.058 279.549 444.025 278.649C446.246 277.975 449.248 277.163 451.166 275.829C452.572 274.849 452.971 273.764 452.424 272.136C451.273 268.718 447.207 266.937 448.754 262.698Z" fill="url(#paint2_linear_431_594)"/>
<path d="M418.754 323.945C418.754 323.945 374.16 319.863 342.147 326.631C312.61 332.873 311.477 339.184 305.936 357.498C302.169 369.943 295.276 401.859 291.163 420.15C290.39 423.589 282.009 429.949 282.009 429.949L278.128 433.014C278.128 433.014 287.882 432.914 293.134 431.414C298.386 429.912 296.384 429.662 297.386 425.764C297.995 423.379 298.124 422.699 298.206 422.561C308.61 405.061 313.499 400.155 317.978 389.422C322.085 379.588 325.646 357.391 325.646 357.391C325.646 357.391 375.005 370.125 388.144 369.938C393.003 369.873 423.767 364.875 425.425 351.139C426.568 341.734 418.754 323.945 418.754 323.945ZM298.203 422.565C298.203 422.563 298.203 422.563 298.203 422.563V422.565Z" fill="#6A77E0"/>
<path d="M297.232 427.963C297.232 427.537 297.232 426.799 297.232 426.799C297.232 426.799 291.619 429.602 289.416 430.334C278.127 434.082 282.353 429.879 282.008 429.949C278.856 430.586 270.211 435.248 270.211 435.248C270.211 435.248 275.488 436.875 275.775 436.912C280.73 437.564 283.064 437.418 284.728 437.121C287.671 436.598 290.08 434.496 292.763 433.279C293.228 434.494 293.581 435.726 293.874 436.998C293.937 437.277 294.466 437.424 294.466 437.424C294.466 437.424 297.23 430.205 297.232 427.963Z" fill="#221F4F"/>
<path d="M420.514 333.424C420.514 333.424 365.696 332.92 351.834 333.424C321.775 334.469 319.004 349.778 318.473 355.381C317.77 362.772 331.825 402.506 335.418 417.002C336.146 419.941 337.867 429.125 336.203 434.115C335.922 434.955 336.203 437.666 336.203 437.666C336.203 437.666 340.564 437.703 342.398 434.35C344.234 430.996 348.232 425.2 348.232 425.2L346.734 423.432C346.734 423.432 343.908 421.159 344.32 419.43C346.787 409.508 354.652 376.106 334.623 362.514C334.623 362.514 379.078 370.766 392.168 370.578C397.008 370.519 420.756 369.623 422.408 355.937C423.555 346.563 420.514 333.424 420.514 333.424Z" fill="#99A5ED"/>
<path d="M347.462 423.68C347.216 423.332 346.079 422.84 346.079 422.84C346.079 422.84 343.837 428.264 342.464 430.141C335.431 439.731 336.441 433.86 336.202 434.116C333.999 436.46 329.649 445.268 329.649 445.268C329.649 445.268 334.895 443.538 335.153 443.401C339.567 441.063 341.387 439.592 342.573 438.387C344.667 436.256 345.415 433.149 346.897 430.598C347.979 431.321 348.981 432.123 349.958 432.991C350.173 433.182 350.686 432.997 350.686 432.997C350.686 432.997 348.761 425.51 347.462 423.68Z" fill="#221F4F"/>
<path d="M423.82 319.887C423.82 319.887 430.867 335.209 431.109 345.287C431.853 376.596 393.595 372.678 388.433 372.74C374.474 372.941 344.181 364.334 344.181 364.334C344.181 364.334 347.103 349.725 338.683 338.984C332.078 330.562 322.935 331.839 322.935 331.839C322.935 331.839 332.978 322.089 380.33 321.706C395.125 321.586 423.82 319.887 423.82 319.887Z" fill="url(#paint3_linear_431_594)"/>
<path opacity="0.4" d="M431.109 345.287C430.867 335.209 423.683 319.887 423.683 319.887C423.683 319.887 423.029 319.926 421.886 319.992C421.437 347.717 391.556 366.924 359.019 368.137C369.345 370.741 383.855 372.871 390.226 372.782C395.389 372.717 431.853 376.596 431.109 345.287Z" fill="url(#paint4_linear_431_594)"/>
<path d="M373.557 263.617C370.323 268.23 366.633 286.771 374.393 294.238C381.67 301.24 378.344 320.179 380.331 321.707C388.124 327.699 397.52 330.051 416.704 324.533C418.12 324.127 425.073 322.09 425.073 322.09C425.073 322.09 424.237 305.029 425.43 295.537C427.717 277.31 421.764 262.676 412.002 255.172C408.789 252.703 396.734 249.729 390.256 251.893C385.744 253.398 378.281 256.877 373.557 263.617Z" fill="#FFA500"/>
<path d="M412.292 255.172C409.53 253.27 403.997 252.326 400.792 251.535C401.868 255.344 401.366 261.494 398.347 264.361C388.435 273.769 393.265 274.414 390.228 294.004C389.894 296.154 389.068 299.031 384.652 301.481C376.197 306.17 379.695 320.997 380.619 321.708C388.412 327.7 397.81 330.052 416.992 324.534C418.408 324.128 425.363 322.091 425.363 322.091C425.363 322.091 424.527 305.03 425.716 295.538C428.005 277.31 421.899 261.793 412.292 255.172Z" fill="#F59300"/>
<path d="M362.844 310.898C363.211 310.183 358.823 308.076 354.16 306.421C353.105 306.044 349.738 305.958 349.738 305.958L350.883 309.601C350.883 309.601 349.371 310.933 346.057 308.371C343.76 306.59 345.204 314.273 347.622 316.32C351.97 319.99 362.782 316.724 362.782 316.724L362.844 310.898Z" fill="#F7BC81"/>
<path d="M413.265 258.56C408.7 257.201 404.454 259.521 400.96 263.974C392.034 275.337 394.927 280.747 394.208 297.226C393.776 307.091 359.999 307.853 359.999 307.853L359.021 317.732C359.021 317.732 397.867 319.009 411.976 316.75C421.203 315.27 421.992 275.324 421.203 271.26C419.655 263.287 415.579 259.25 413.265 258.56Z" fill="#FFA500"/>
<path d="M383.586 259.953L381.045 243.258L380.615 240.86L392.347 237.736L397.519 255.929C397.519 255.929 394.244 262.011 388.476 261.786C385.814 261.682 383.586 259.953 383.586 259.953Z" fill="#F7BC81"/>
<path d="M392.041 236.002C392.586 243.086 389.568 248.728 383.627 249.54C380.121 250.019 378.865 249.384 377.117 248.307C373.24 245.916 371.689 240.665 371.308 235.783C370.759 228.701 373.347 224.851 379.3 224.142C385.246 223.432 391.484 228.925 392.041 236.002Z" fill="#F7BC81"/>
<path d="M396.931 239.135C395.132 241.31 392.874 242.287 391.765 241.775C390.044 240.975 389.622 237.733 390.831 235.345C392.04 232.957 394.489 232.196 396.144 233.131C397.784 234.062 398.63 237.078 396.931 239.135Z" fill="#F7BC81"/>
<path d="M380.323 232.877C380.329 232.857 380.333 232.836 380.339 232.814C380.359 232.707 380.454 232.61 380.56 232.583C381.462 232.365 382.953 232.415 383.703 233.024C383.783 233.091 383.711 233.196 383.633 233.206C383.016 233.292 382.35 233.113 381.727 233.1C381.336 233.093 380.702 233.355 380.385 233.086C380.325 233.036 380.308 232.951 380.323 232.877Z" fill="#221F4F"/>
<path d="M372.762 233.651C373.252 233.508 373.809 233.452 374.315 233.495C374.51 233.511 374.657 233.804 374.434 233.907C373.952 234.136 373.401 234.28 372.862 234.322C372.467 234.35 372.396 233.758 372.762 233.651Z" fill="#221F4F"/>
<path d="M380.663 235.001C380.751 235.482 381.194 235.808 381.655 235.725C382.114 235.642 382.417 235.183 382.331 234.701C382.243 234.217 381.8 233.892 381.339 233.976C380.88 234.057 380.575 234.516 380.663 235.001Z" fill="#221F4F"/>
<path d="M372.908 236.153C372.994 236.636 373.439 236.962 373.9 236.878C374.357 236.795 374.662 236.335 374.574 235.855C374.488 235.371 374.043 235.047 373.586 235.13C373.123 235.211 372.818 235.669 372.908 236.153Z" fill="#221F4F"/>
<path d="M393.398 236.901C393.152 237.674 393.314 238.416 393.761 238.558C394.206 238.7 394.769 238.192 395.015 237.418C395.261 236.645 395.099 235.902 394.652 235.761C394.207 235.619 393.645 236.129 393.398 236.901Z" fill="#F05A00"/>
<path d="M388.434 247.196C388.434 247.196 386.369 248.975 384.723 249.329C383.633 249.565 382.028 249.695 382.028 249.695L382.655 253.823C382.655 253.823 385.665 250.014 386.684 248.999C387.707 247.983 388.434 247.196 388.434 247.196Z" fill="#F05A00"/>
<path d="M378.676 240.234C378.303 240.232 377.221 240.912 377.074 240.357C376.939 239.848 377.246 239.166 377.398 238.69C377.664 237.871 378.343 236.643 377.959 235.771C377.934 235.71 377.836 235.737 377.85 235.804C377.977 236.412 377.551 237.246 377.34 237.806C377.076 238.512 376.774 239.217 376.651 239.966C376.434 241.304 378.135 241.351 378.809 240.532C378.895 240.429 378.814 240.236 378.676 240.234Z" fill="#221F4F"/>
<path d="M339.61 268.088L354.218 317.732H297.165L282.815 268.088H339.61Z" fill="#221F4F"/>
<path d="M386.243 315.1H352.848V317.733H386.243V315.1Z" fill="#221F4F"/>
<path d="M448.832 443.76L428.111 320.27L418.387 320.844L445.004 443.76H448.832Z" fill="#99A5ED"/>
<path d="M248.311 443.76L269.031 320.27L278.986 320.572L252.139 443.76H248.311Z" fill="#99A5ED"/>
<path d="M440.94 317.731H257.155V322.286H440.94V317.731Z" fill="#99A5ED"/>
<path d="M393.931 115.542C393.931 119.43 390.777 122.583 386.89 122.583H334.12C330.231 122.583 327.079 119.43 327.079 115.542V62.7725C327.079 58.8835 330.231 55.7305 334.12 55.7305H386.89C390.777 55.7305 393.931 58.8825 393.931 62.7725V115.542Z" fill="url(#paint5_linear_431_594)"/>
<path d="M360.505 63.0439C349.86 63.0439 341.232 71.6739 341.232 82.3179C341.232 85.0389 341.8 87.6269 342.816 89.9739L343.439 91.271C344.203 92.727 360.22 115.271 360.22 115.271C360.22 115.271 376.757 92.8519 377.642 91.1309L378.195 89.9749C379.211 87.6269 379.779 85.0399 379.779 82.3189C379.778 71.6739 371.149 63.0439 360.505 63.0439ZM360.505 89.1579C356.316 89.1579 352.919 85.7619 352.919 81.5749C352.919 77.3859 356.316 73.9899 360.505 73.9899C364.694 73.9899 368.087 77.3859 368.087 81.5749C368.087 85.7619 364.694 89.1579 360.505 89.1579Z" fill="white"/>
</g>
<defs>
<linearGradient id="paint0_linear_431_594" x1="191.815" y1="158.152" x2="173.762" y2="158.152" gradientUnits="userSpaceOnUse">
<stop stop-color="#F97316"/>
<stop offset="1" stop-color="#EF4444"/>
</linearGradient>
<linearGradient id="paint1_linear_431_594" x1="429.935" y1="171.248" x2="404.991" y2="168.639" gradientUnits="userSpaceOnUse">
<stop stop-color="#F97316"/>
<stop offset="1" stop-color="#EF4444"/>
</linearGradient>
<linearGradient id="paint2_linear_431_594" x1="455.268" y1="244.614" x2="361.35" y2="244.614" gradientUnits="userSpaceOnUse">
<stop stop-color="#F97316"/>
<stop offset="1" stop-color="#EF4444"/>
</linearGradient>
<linearGradient id="paint3_linear_431_594" x1="431.119" y1="346.377" x2="318.066" y2="346.377" gradientUnits="userSpaceOnUse">
<stop stop-color="#F97316"/>
<stop offset="1" stop-color="#EF4444"/>
</linearGradient>
<linearGradient id="paint4_linear_431_594" x1="431.12" y1="346.395" x2="355.774" y2="346.395" gradientUnits="userSpaceOnUse">
<stop stop-color="#F97316"/>
<stop offset="1" stop-color="#EF4444"/>
</linearGradient>
<linearGradient id="paint5_linear_431_594" x1="393.931" y1="89.157" x2="324.071" y2="89.157" gradientUnits="userSpaceOnUse">
<stop stop-color="#F97316"/>
<stop offset="1" stop-color="#EF4444"/>
</linearGradient>
<clipPath id="clip0_431_594">
<rect width="500" height="500" fill="white" transform="translate(0 0.5)"/>
</clipPath>
</defs>
</svg>
