<svg width="24" height="24" viewBox="0 0 24 24" fill="none" xmlns="http://www.w3.org/2000/svg">
<g id="contact-new-svgrepo-com 1">
<path id="Vector" d="M12 1.5C9.51562 1.5 7.5 3.51562 7.5 6C7.5 8.48438 9.51562 10.5 12 10.5C14.4844 10.5 16.5 8.48438 16.5 6C16.5 3.51562 14.4844 1.5 12 1.5ZM9.75 12C6.01172 12 3 15.0117 3 18.75V19.5C3 21.1641 4.33594 22.5 6 22.5H15V21H10.5V15H15V12.041C14.7539 12.0117 14.502 12 14.25 12H9.75ZM16.5 12V16.5H12V19.5H16.5V24H19.5V19.5H24V16.5H19.5V12H16.5Z" fill="white"/>
</g>
</svg>
