<svg width="24" height="24" viewBox="0 0 24 24" fill="none" xmlns="http://www.w3.org/2000/svg">
<g id="curve-arrow-right-9-svgrepo-com 1">
<path id="secondary" d="M21.7098 8.29L18.7098 5.29C18.6166 5.19676 18.5059 5.1228 18.384 5.07234C18.2622 5.02188 18.1316 4.99591 17.9998 4.99591C17.7335 4.99591 17.4781 5.1017 17.2898 5.29C17.1015 5.47831 16.9957 5.7337 16.9957 6C16.9957 6.2663 17.1015 6.5217 17.2898 6.71L18.5898 8H16.7098C14.5073 7.99166 12.3465 8.60097 10.4729 9.75876C8.59919 10.9166 7.08764 12.5764 6.10979 14.55C5.99118 14.7862 5.97088 15.0597 6.05333 15.3108C6.13577 15.5619 6.31427 15.7701 6.54979 15.89C6.68811 15.964 6.84291 16.0019 6.99979 16C7.18446 15.9994 7.36536 15.9478 7.52246 15.8507C7.67955 15.7536 7.80669 15.6149 7.88979 15.45C8.70421 13.8085 9.96212 12.4279 11.521 11.4646C13.0798 10.5014 14.8773 9.994 16.7098 10H18.5898L17.2898 11.29C17.1961 11.383 17.1217 11.4936 17.0709 11.6154C17.0201 11.7373 16.994 11.868 16.994 12C16.994 12.132 17.0201 12.2627 17.0709 12.3846C17.1217 12.5064 17.1961 12.617 17.2898 12.71C17.3828 12.8037 17.4934 12.8781 17.6152 12.9289C17.7371 12.9797 17.8678 13.0058 17.9998 13.0058C18.1318 13.0058 18.2625 12.9797 18.3844 12.9289C18.5062 12.8781 18.6168 12.8037 18.7098 12.71L21.7098 9.71C21.8035 9.61704 21.8779 9.50644 21.9287 9.38458C21.9795 9.26272 22.0056 9.13201 22.0056 9C22.0056 8.86799 21.9795 8.73728 21.9287 8.61543C21.8779 8.49357 21.8035 8.38297 21.7098 8.29Z" fill="white"/>
<path id="primary" d="M20 21H4C3.46957 21 2.96086 20.7893 2.58579 20.4142C2.21071 20.0391 2 19.5304 2 19V5C2 4.46957 2.21071 3.96086 2.58579 3.58579C2.96086 3.21071 3.46957 3 4 3H12C12.2652 3 12.5196 3.10536 12.7071 3.29289C12.8946 3.48043 13 3.73478 13 4C13 4.26522 12.8946 4.51957 12.7071 4.70711C12.5196 4.89464 12.2652 5 12 5H4V19H20V16C20 15.7348 20.1054 15.4804 20.2929 15.2929C20.4804 15.1054 20.7348 15 21 15C21.2652 15 21.5196 15.1054 21.7071 15.2929C21.8946 15.4804 22 15.7348 22 16V19C22 19.5304 21.7893 20.0391 21.4142 20.4142C21.0391 20.7893 20.5304 21 20 21Z" fill="white"/>
</g>
</svg>
