<svg width="32" height="32" viewBox="0 0 32 32" fill="none" xmlns="http://www.w3.org/2000/svg">
<path d="M8.60764 20.2667C9.54646 21.8944 10.9963 23.1668 12.7322 23.8863C14.4681 24.6058 16.3929 24.7322 18.208 24.2459C20.0231 23.7597 21.6269 22.6879 22.7705 21.1969C23.9142 19.7059 24.5337 17.8791 24.533 16M7.46631 16C7.46558 14.1209 8.08511 12.2941 9.22876 10.8031C10.3724 9.31213 11.9762 8.24033 13.7913 7.75404C15.6064 7.26775 17.5312 7.39417 19.2671 8.11368C21.003 8.8332 22.4528 10.1056 23.3916 11.7333" stroke="white" stroke-width="2.13333" stroke-linecap="round" stroke-linejoin="round"/>
<path d="M13.867 20.2667H8.53369V25.6M23.467 6.40001V11.7333H18.1337" stroke="#65A30D" stroke-width="2.13333" stroke-linecap="round" stroke-linejoin="round"/>
</svg>
