<svg width="424" height="382" viewBox="0 0 424 382" fill="none" xmlns="http://www.w3.org/2000/svg">
<path d="M253.086 41.052H44.7949V133.626H253.086V41.052Z" stroke="#EEE8FF" stroke-width="3" stroke-miterlimit="10" stroke-linecap="round"/>
<path d="M101.367 41.052V134.484" stroke="#EEE8FF" stroke-width="3" stroke-miterlimit="10"/>
<path d="M178.514 41.052V134.484" stroke="#EEE8FF" stroke-width="3" stroke-miterlimit="10"/>
<path d="M44.7949 67.624H253.087" stroke="#EEE8FF" stroke-width="3" stroke-miterlimit="10" stroke-linecap="round"/>
<path d="M53.3672 52.196H88.5112" stroke="#EEE8FF" stroke-width="3" stroke-miterlimit="10" stroke-linecap="round"/>
<path d="M122.701 52.196H157.845" stroke="#EEE8FF" stroke-width="3" stroke-miterlimit="10" stroke-linecap="round"/>
<path d="M53.3672 80.387H88.5112" stroke="#EEE8FF" stroke-width="3" stroke-miterlimit="10" stroke-linecap="round"/>
<path d="M53.3672 89.911H88.5112" stroke="#EEE8FF" stroke-width="3" stroke-miterlimit="10" stroke-linecap="round"/>
<path d="M53.3672 99.4351H73.3682" stroke="#EEE8FF" stroke-width="3" stroke-miterlimit="10" stroke-linecap="round"/>
<path d="M79.082 99.4351H88.225" stroke="#EEE8FF" stroke-width="3" stroke-miterlimit="10" stroke-linecap="round"/>
<path d="M53.3672 107.054H73.3682" stroke="#EEE8FF" stroke-width="3" stroke-miterlimit="10" stroke-linecap="round"/>
<path d="M79.082 107.054H88.225" stroke="#EEE8FF" stroke-width="3" stroke-miterlimit="10" stroke-linecap="round"/>
<path d="M119.006 80.7681H161.15" stroke="#EEE8FF" stroke-width="3" stroke-miterlimit="10" stroke-linecap="round"/>
<path d="M168.609 76.577L165.562 80.768L168.99 84.577" stroke="#EEE8FF" stroke-width="3" stroke-miterlimit="10" stroke-linecap="round"/>
<path d="M111.385 76.577L114.433 80.768L111.004 84.577" stroke="#EEE8FF" stroke-width="3" stroke-miterlimit="10" stroke-linecap="round"/>
<path d="M136.24 97.149C144.543 97.149 152.845 97.149 161.148 97.149" stroke="#EEE8FF" stroke-width="3" stroke-miterlimit="10" stroke-linecap="round"/>
<path d="M119.004 97.149C121.91 97.149 124.815 97.149 127.721 97.149" stroke="#EEE8FF" stroke-width="3" stroke-miterlimit="10" stroke-linecap="round"/>
<path d="M168.227 105.149L165.18 109.34L168.608 113.15" stroke="#EEE8FF" stroke-width="3" stroke-miterlimit="10" stroke-linecap="round"/>
<path d="M191.466 76.577L188.418 80.768L191.847 84.577" stroke="#EEE8FF" stroke-width="3" stroke-miterlimit="10" stroke-linecap="round"/>
<path d="M237.944 76.577L240.991 80.768L237.562 84.577" stroke="#EEE8FF" stroke-width="3" stroke-miterlimit="10" stroke-linecap="round"/>
<path d="M117.178 109.34H131.655" stroke="#EEE8FF" stroke-width="3" stroke-miterlimit="10" stroke-linecap="round"/>
<path d="M135.846 109.34H144.99" stroke="#EEE8FF" stroke-width="3" stroke-miterlimit="10" stroke-linecap="round"/>
<path d="M150.703 109.34H159.465" stroke="#EEE8FF" stroke-width="3" stroke-miterlimit="10" stroke-linecap="round"/>
<path d="M197.18 80.7681H205.562" stroke="#EEE8FF" stroke-width="3" stroke-miterlimit="10" stroke-linecap="round"/>
<path d="M210.514 82.292H218.895" stroke="#EEE8FF" stroke-width="3" stroke-miterlimit="10" stroke-linecap="round"/>
<path d="M205.943 96.7681H240.991" stroke="#EEE8FF" stroke-width="3" stroke-miterlimit="10" stroke-linecap="round"/>
<path d="M189.561 110.483H209.371" stroke="#EEE8FF" stroke-width="3" stroke-miterlimit="10" stroke-linecap="round"/>
<path d="M215.086 110.483H224.991" stroke="#EEE8FF" stroke-width="3" stroke-miterlimit="10" stroke-linecap="round"/>
<path d="M230.324 109.721H244.42" stroke="#EEE8FF" stroke-width="3" stroke-miterlimit="10" stroke-linecap="round"/>
<path d="M223.848 83.8149H232.229" stroke="#EEE8FF" stroke-width="3" stroke-miterlimit="10" stroke-linecap="round"/>
<path d="M223.848 79.244H232.229" stroke="#EEE8FF" stroke-width="3" stroke-miterlimit="10" stroke-linecap="round"/>
<path d="M194.514 91.816L189.561 100.197" stroke="#EEE8FF" stroke-width="3" stroke-miterlimit="10" stroke-linecap="round"/>
<path d="M200.989 91.816L196.037 100.197" stroke="#EEE8FF" stroke-width="3" stroke-miterlimit="10" stroke-linecap="round"/>
<path d="M198.704 50.672L192.609 56.767" stroke="#EEE8FF" stroke-width="3" stroke-miterlimit="10" stroke-linecap="round"/>
<path d="M208.99 50.672L202.895 56.767" stroke="#EEE8FF" stroke-width="3" stroke-miterlimit="10" stroke-linecap="round"/>
<path d="M219.277 50.672L213.182 56.767" stroke="#EEE8FF" stroke-width="3" stroke-miterlimit="10" stroke-linecap="round"/>
<path d="M229.562 50.672L223.467 56.767" stroke="#EEE8FF" stroke-width="3" stroke-miterlimit="10" stroke-linecap="round"/>
<path d="M239.847 50.672L233.752 56.767" stroke="#EEE8FF" stroke-width="3" stroke-miterlimit="10" stroke-linecap="round"/>
<path d="M385.691 139.469H177.4V212.465H385.691V139.469Z" stroke="#EEE8FF" stroke-width="3" stroke-miterlimit="10" stroke-linecap="round"/>
<path d="M233.973 139.469V213.517" stroke="#EEE8FF" stroke-width="3" stroke-miterlimit="10" stroke-linejoin="round"/>
<path d="M311.119 139.469V213.517" stroke="#EEE8FF" stroke-width="3" stroke-miterlimit="10" stroke-linejoin="round"/>
<path d="M177.4 166.042H385.692" stroke="#EEE8FF" stroke-width="3" stroke-miterlimit="10" stroke-linecap="round"/>
<path d="M185.973 150.613H221.117" stroke="#EEE8FF" stroke-width="3" stroke-miterlimit="10" stroke-linecap="round"/>
<path d="M255.307 150.613H290.451" stroke="#EEE8FF" stroke-width="3" stroke-miterlimit="10" stroke-linecap="round"/>
<path d="M185.973 178.804H221.117" stroke="#EEE8FF" stroke-width="3" stroke-miterlimit="10" stroke-linecap="round"/>
<path d="M185.973 188.328H221.117" stroke="#EEE8FF" stroke-width="3" stroke-miterlimit="10" stroke-linecap="round"/>
<path d="M185.973 197.852H205.974" stroke="#EEE8FF" stroke-width="3" stroke-miterlimit="10" stroke-linecap="round"/>
<path d="M211.688 197.852H220.831" stroke="#EEE8FF" stroke-width="3" stroke-miterlimit="10" stroke-linecap="round"/>
<path d="M185.973 205.471H205.974" stroke="#EEE8FF" stroke-width="3" stroke-miterlimit="10" stroke-linecap="round"/>
<path d="M211.688 205.471H220.831" stroke="#EEE8FF" stroke-width="3" stroke-miterlimit="10" stroke-linecap="round"/>
<path d="M251.609 179.185H293.753" stroke="#EEE8FF" stroke-width="3" stroke-miterlimit="10" stroke-linecap="round"/>
<path d="M301.213 174.994L298.166 179.185L301.594 182.994" stroke="#EEE8FF" stroke-width="3" stroke-miterlimit="10" stroke-linecap="round"/>
<path d="M243.99 174.994L247.037 179.185L243.609 182.994" stroke="#EEE8FF" stroke-width="3" stroke-miterlimit="10" stroke-linecap="round"/>
<path d="M268.846 195.566C277.148 195.566 285.451 195.566 293.754 195.566" stroke="#EEE8FF" stroke-width="3" stroke-miterlimit="10" stroke-linecap="round"/>
<path d="M251.609 195.566C254.515 195.566 257.421 195.566 260.326 195.566" stroke="#EEE8FF" stroke-width="3" stroke-miterlimit="10" stroke-linecap="round"/>
<path d="M324.071 174.994L321.023 179.185L324.452 182.994" stroke="#EEE8FF" stroke-width="3" stroke-miterlimit="10" stroke-linecap="round"/>
<path d="M370.549 174.994L373.596 179.185L370.168 182.994" stroke="#EEE8FF" stroke-width="3" stroke-miterlimit="10" stroke-linecap="round"/>
<path d="M330.779 178.61H365.828" stroke="#EEE8FF" stroke-width="3" stroke-miterlimit="10" stroke-linecap="round"/>
<path d="M347.119 190.233L342.166 198.614" stroke="#EEE8FF" stroke-width="3" stroke-miterlimit="10" stroke-linecap="round"/>
<path d="M353.595 190.233L348.643 198.614" stroke="#EEE8FF" stroke-width="3" stroke-miterlimit="10" stroke-linecap="round"/>
<path d="M331.31 149.089L325.215 155.184" stroke="#EEE8FF" stroke-width="3" stroke-miterlimit="10" stroke-linecap="round"/>
<path d="M341.595 149.089L335.5 155.184" stroke="#EEE8FF" stroke-width="3" stroke-miterlimit="10" stroke-linecap="round"/>
<path d="M372.452 149.089L366.357 155.184" stroke="#EEE8FF" stroke-width="3" stroke-miterlimit="10" stroke-linecap="round"/>
<path d="M247.01 217.283H38.7188V309.857H247.01V217.283Z" stroke="#EEE8FF" stroke-width="3" stroke-miterlimit="10" stroke-linecap="round"/>
<path d="M95.291 217.283V310.714" stroke="#EEE8FF" stroke-width="3" stroke-miterlimit="10"/>
<path d="M172.438 217.283V310.714" stroke="#EEE8FF" stroke-width="3" stroke-miterlimit="10" stroke-linecap="round"/>
<path d="M38.7188 243.855H247.01" stroke="#EEE8FF" stroke-width="3" stroke-miterlimit="10" stroke-linecap="round"/>
<path d="M47.291 228.426H82.434" stroke="#EEE8FF" stroke-width="3" stroke-miterlimit="10" stroke-linecap="round"/>
<path d="M116.625 228.426H151.769" stroke="#EEE8FF" stroke-width="3" stroke-miterlimit="10" stroke-linecap="round"/>
<path d="M47.291 256.617H82.434" stroke="#EEE8FF" stroke-width="3" stroke-miterlimit="10" stroke-linecap="round"/>
<path d="M47.291 266.141H82.434" stroke="#EEE8FF" stroke-width="3" stroke-miterlimit="10" stroke-linecap="round"/>
<path d="M47.291 275.665H67.291" stroke="#EEE8FF" stroke-width="3" stroke-miterlimit="10" stroke-linecap="round"/>
<path d="M73.0039 275.665H82.1479" stroke="#EEE8FF" stroke-width="3" stroke-miterlimit="10" stroke-linecap="round"/>
<path d="M47.291 283.284H67.291" stroke="#EEE8FF" stroke-width="3" stroke-miterlimit="10" stroke-linecap="round"/>
<path d="M73.0039 283.284H82.1479" stroke="#EEE8FF" stroke-width="3" stroke-miterlimit="10" stroke-linecap="round"/>
<path d="M116.926 256.998H155.07" stroke="#EEE8FF" stroke-width="3" stroke-miterlimit="10" stroke-linecap="round"/>
<path d="M105.307 252.807L108.355 256.998L104.926 260.808" stroke="#EEE8FF" stroke-width="3" stroke-miterlimit="10" stroke-linecap="round"/>
<path d="M130.164 273.379C138.466 273.379 146.769 273.379 155.072 273.379" stroke="#EEE8FF" stroke-width="3" stroke-miterlimit="10" stroke-linecap="round"/>
<path d="M112.926 273.379C115.832 273.379 118.737 273.379 121.643 273.379" stroke="#EEE8FF" stroke-width="3" stroke-miterlimit="10" stroke-linecap="round"/>
<path d="M162.152 281.38L159.104 285.57L162.533 289.38" stroke="#EEE8FF" stroke-width="3" stroke-miterlimit="10" stroke-linecap="round"/>
<path d="M185.39 252.807L182.342 256.998L185.771 260.808" stroke="#EEE8FF" stroke-width="3" stroke-miterlimit="10" stroke-linecap="round"/>
<path d="M231.867 252.807L234.915 256.998L231.486 260.808" stroke="#EEE8FF" stroke-width="3" stroke-miterlimit="10" stroke-linecap="round"/>
<path d="M111.102 285.57H125.578" stroke="#EEE8FF" stroke-width="3" stroke-miterlimit="10" stroke-linecap="round"/>
<path d="M129.77 285.57H138.913" stroke="#EEE8FF" stroke-width="3" stroke-miterlimit="10" stroke-linecap="round"/>
<path d="M144.627 285.57H153.389" stroke="#EEE8FF" stroke-width="3" stroke-miterlimit="10" stroke-linecap="round"/>
<path d="M191.104 256.998H199.485" stroke="#EEE8FF" stroke-width="3" stroke-miterlimit="10" stroke-linecap="round"/>
<path d="M204.438 258.522H212.818" stroke="#EEE8FF" stroke-width="3" stroke-miterlimit="10" stroke-linecap="round"/>
<path d="M199.865 272.999H234.914" stroke="#EEE8FF" stroke-width="3" stroke-miterlimit="10" stroke-linecap="round"/>
<path d="M183.484 286.713H203.294" stroke="#EEE8FF" stroke-width="3" stroke-miterlimit="10" stroke-linecap="round"/>
<path d="M209.008 286.713H218.913" stroke="#EEE8FF" stroke-width="3" stroke-miterlimit="10" stroke-linecap="round"/>
<path d="M224.248 285.951H238.343" stroke="#EEE8FF" stroke-width="3" stroke-miterlimit="10" stroke-linecap="round"/>
<path d="M217.771 260.046H226.153" stroke="#EEE8FF" stroke-width="3" stroke-miterlimit="10" stroke-linecap="round"/>
<path d="M217.771 255.474H226.153" stroke="#EEE8FF" stroke-width="3" stroke-miterlimit="10" stroke-linecap="round"/>
<path d="M188.436 268.046L183.484 276.427" stroke="#EEE8FF" stroke-width="3" stroke-miterlimit="10" stroke-linecap="round"/>
<path d="M194.914 268.046L189.961 276.427" stroke="#EEE8FF" stroke-width="3" stroke-miterlimit="10" stroke-linecap="round"/>
<path d="M192.627 226.902L186.531 232.997" stroke="#EEE8FF" stroke-width="3" stroke-miterlimit="10" stroke-linecap="round"/>
<path d="M202.914 226.902L196.818 232.997" stroke="#EEE8FF" stroke-width="3" stroke-miterlimit="10" stroke-linecap="round"/>
<path d="M213.2 226.902L207.104 232.997" stroke="#EEE8FF" stroke-width="3" stroke-miterlimit="10" stroke-linecap="round"/>
<path d="M223.487 226.902L217.391 232.997" stroke="#EEE8FF" stroke-width="3" stroke-miterlimit="10" stroke-linecap="round"/>
<path d="M233.772 226.902L227.676 232.997" stroke="#EEE8FF" stroke-width="3" stroke-miterlimit="10" stroke-linecap="round"/>
<path d="M199.023 270.513C203.058 275.008 207.839 279.181 212.966 282.402C215.965 284.286 219.178 285.791 222.3 287.447C222.371 287.535 222.449 287.616 222.518 287.706C223.52 288.997 224.51 290.542 224.192 292.141C223.814 294.046 221.754 295.124 219.846 295.534C214.787 296.62 207.264 296.018 202.261 294.781C191.817 292.197 181.577 287.683 174.313 279.541C166.934 271.27 163.663 260.417 162.581 249.625C161.446 238.302 160.726 228.03 165.182 217.144C166.487 213.956 168.165 210.825 170.755 208.543C173.345 206.261 176.992 204.945 180.339 205.819C183.38 206.613 185.767 209.1 187.068 211.946C188.369 214.792 188.714 217.976 188.79 221.102C188.991 229.368 188.736 234.888 189.418 243.192C190.196 252.646 192.758 263.535 199.023 270.513Z" fill="#DACAFC"/>
<path d="M195.94 186.265C194.07 183.885 191.276 177.799 194.335 175.207C194.8 174.813 195.39 174.604 195.974 174.429C197.849 173.867 199.797 173.572 201.67 173.001C204.54 172.126 208.092 170.812 208.78 167.63C209.365 164.922 208.959 162.114 209.333 159.385C199.548 159.151 196.23 149.696 194.984 141.48C194.318 137.09 194.448 133.096 194.857 128.763C195.327 123.785 194.631 118.938 195.595 113.919C195.721 113.262 195.887 112.561 196.386 112.116C196.89 111.667 197.613 111.585 198.285 111.529C204.461 111.01 210.71 110.812 216.829 111.796C222.039 112.633 231.094 114.457 233.317 119.971C236.01 126.649 236.343 133.991 235.933 141.087C235.606 146.737 234.557 152.318 234.24 157.969C234.027 161.768 234.353 166.196 236.424 169.514C237.365 171.022 238.534 172.308 240.141 173.131C242.189 174.179 243.624 173.099 245.215 174.942C246.632 176.585 247.589 179.338 247.121 181.48C246.637 183.693 244.797 185.324 242.985 186.683C238.007 190.419 232.44 193.369 226.553 195.389C223.98 196.272 221.304 196.984 218.585 196.936C214.974 196.872 211.536 195.479 208.205 194.083C204.555 192.553 200.848 190.951 197.887 188.326C197.183 187.704 196.527 187.012 195.94 186.265Z" fill="#DACAFC"/>
<path d="M286.843 215.383C285.708 201.44 279.431 187.171 266.664 180.199C258.861 175.937 250.391 174.689 241.866 172.693C241.616 172.634 241.35 172.576 241.107 172.661C240.774 172.777 240.588 173.12 240.426 173.432C236.354 181.261 227.547 186.405 218.689 186.128C209.482 185.84 202.448 180.245 197.609 172.919C191.333 175.001 185.087 177.392 179.599 181.067C161.692 193.062 160.549 218.345 158.236 237.722C160.655 237.797 186.892 242.139 186.735 241.367C187.521 245.236 186.824 244.634 186.981 248.494C187.271 255.618 187.801 262.73 188.44 269.831C189.168 277.912 190.416 285.851 192.228 293.711C210.644 299.81 231.658 298.324 251.406 296.553C257.037 296.048 262.879 295.478 267.748 292.621C281.449 284.583 282.032 260.83 283.988 247.005C285.5 236.311 287.732 226.304 286.843 215.383Z" fill="#FF9C40"/>
<path d="M148.953 353.396C148.563 350.215 150.386 346.559 153.109 344.54C156.879 341.745 161.734 341.019 166.204 339.59C171.23 337.983 175.89 335.425 180.716 333.291C185.542 331.156 190.697 329.416 195.97 329.605C201.244 329.794 206.68 332.225 209.318 336.796C211.531 340.63 211.052 345.393 208.474 348.887C205.841 352.454 202.744 351.676 198.635 352.127C191.242 352.939 184.108 355.142 177.111 357.578C169.612 360.189 164.212 361.241 156.238 359.487C154.12 359.021 151.923 358.335 150.461 356.735C149.58 355.773 149.103 354.62 148.953 353.396Z" fill="black"/>
<path d="M174.473 351.207C175.206 352.991 176.21 354.663 177.44 356.149C177.71 356.475 178.031 356.815 178.452 356.86C179.328 356.955 179.753 355.832 179.879 354.96C180.174 352.912 180.469 350.865 180.764 348.817C181.955 350.074 182.933 351.533 183.643 353.113C184.069 354.061 184.602 355.213 185.638 355.302C186.9 355.41 187.582 353.885 187.882 352.655C188.424 350.432 188.966 348.208 189.509 345.985" stroke="#FF9C40" stroke-miterlimit="10" stroke-linecap="round" stroke-linejoin="round"/>
<path d="M102.328 272.514C106.359 268.075 112.098 265.202 117.986 264.105C126.246 262.567 134.778 264.058 142.881 266.277C160.048 270.978 176.146 278.903 193.403 283.313C201.055 285.268 206.044 284.543 213.523 283.943C223.005 283.182 232.74 284.111 242.281 283.55C251.199 283.025 260.85 282.339 269.184 284.782C270.285 284.063 271.382 283.342 272.476 282.628C281.801 276.544 291.089 270.485 302.783 272.701C311.977 274.443 320.842 279.079 326.537 286.606C332.587 294.602 330.771 305.042 325.35 313.014C320.862 319.614 314.229 324.471 307.359 328.57C283.66 342.708 257.775 351.373 229.808 349.442C226.065 349.183 221.652 349.142 218.956 352.131C217.942 353.255 217.354 359.416 215.104 359.15C212.335 358.823 207.001 358.052 204.384 357.112C190.253 352.035 176.121 346.958 161.99 341.882C149.574 337.421 137.067 332.918 125.756 326.15C115.973 320.297 107.112 312.379 101.917 302.122C98.172 294.727 95.097 284.983 99.008 277.301C99.902 275.547 101.026 273.949 102.328 272.514Z" fill="url(#paint0_linear_292_42)"/>
<path d="M277.724 293.769C263.659 300.761 248.808 305.312 234.516 311.722C229.148 314.129 223.78 316.536 218.412 318.944C215.378 320.305 212.343 321.666 209.357 323.131" stroke="black" stroke-miterlimit="10" stroke-linecap="round" stroke-linejoin="round"/>
<path d="M263.424 362.98C259.222 356.358 252.693 351.091 249.064 344.25C248.294 342.799 247.606 341.265 246.455 340.09C244.396 337.985 240.437 338.267 237.686 337.943C233.929 337.499 230.172 337.056 226.415 336.612C226.166 336.583 225.903 336.556 225.675 336.66C225.669 336.663 225.666 336.67 225.66 336.673C224.867 339.594 223.12 342.265 221.768 344.932C220.972 346.502 218.644 352.378 218.328 353.31C219.868 354.465 223.213 355.536 225.329 356.325C229.838 358.007 234.46 359.755 238.056 362.954C240.709 365.314 242.66 368.341 244.672 371.267C246.684 374.193 248.848 377.113 251.778 379.118C254.708 381.123 258.573 382.086 261.873 380.776C269.023 377.939 266.528 367.871 263.424 362.98Z" fill="black"/>
<path d="M204.611 297.483C203.587 296.968 202.808 296.054 202.199 294.32C201.18 291.419 201.778 287.98 203.419 285.423C205.726 281.827 209.766 279.643 213.901 278.508C218.036 277.373 222.358 277.144 226.608 276.571C233.81 275.601 240.874 273.624 247.528 270.717C250.709 269.327 253.914 267.629 255.96 264.836C258.216 261.756 258.75 257.791 259.215 254.009C259.907 248.376 260.599 242.743 261.291 237.109C261.892 232.216 262.537 227.185 264.93 222.868C267.323 218.551 271.914 215.061 276.855 215.454C281.07 215.789 284.666 218.87 286.74 222.535C290.117 228.502 291.769 237.552 292.802 244.302C293.964 251.892 293.205 259.651 291.814 267.157C290.006 276.915 284.555 285.228 275.756 290.11C256.051 301.045 230.9 300.331 209.13 298.314C207.239 298.139 205.768 298.065 204.611 297.483Z" fill="#DACAFC"/>
<path d="M212.178 107.003C209.806 107.19 207.414 107.213 205.037 107.162C200.868 107.072 196.254 106.898 193.057 109.576C190.975 111.32 189.871 114.163 190.231 116.855C190.591 119.547 192.402 122 194.869 123.136C201.455 126.169 214.512 116.622 218.003 125.112C219.376 128.452 218.863 131.281 221.534 134.124C223.688 136.416 226.536 137.309 227.677 140.561C228.566 143.097 228.97 145.876 230.553 148.132C230.958 148.709 231.421 149.242 231.884 149.775C232.707 150.722 233.495 151.676 234.384 152.555C237.621 150.24 241.693 150.915 243.925 146.608C244.389 145.713 244.719 144.722 245.412 143.99C246.968 142.346 250.025 142.33 250.911 140.247C251.766 138.236 249.828 136.083 249.898 133.899C249.98 131.339 252.763 129.447 252.767 126.885C252.773 123.425 248.038 121.941 246.812 118.705C245.165 114.357 247.045 112.536 243.306 109.199C236.613 103.227 227.91 103.411 219.811 105.699C217.32 106.403 214.761 106.8 212.178 107.003Z" fill="black"/>
<path d="M216.533 134.127L224.687 131.919C225.754 131.63 226.895 131.884 227.739 132.599L231.116 135.462" stroke="#FF9C40" stroke-width="2" stroke-miterlimit="10" stroke-linecap="round" stroke-linejoin="round"/>
<path d="M140.826 280.077C156.735 287.232 169.538 299.662 184.023 309.358C197.55 318.413 212.527 325.065 227.419 331.671C226.641 333.369 226.325 335.043 225.547 336.741" stroke="black" stroke-miterlimit="10" stroke-linecap="round" stroke-linejoin="round"/>
<path d="M208.792 145.021C207.841 148.107 204.049 149.981 201.002 148.871" stroke="#1C1C1B" stroke-miterlimit="10" stroke-linecap="round" stroke-linejoin="round"/>
<path d="M224.844 144.124C230.708 145.583 234.359 139.437 232.577 135.429C230.096 129.851 222.23 130.777 220.791 136.64" fill="#DACAFC"/>
<path d="M227.846 134.957C226.743 134.655 225.47 134.836 224.547 135.427C223.624 136.018 223.076 137.001 223.128 137.976" stroke="#1C1C1B" stroke-miterlimit="10" stroke-linecap="round" stroke-linejoin="round"/>
<path d="M254.548 249.688C258.816 248.387 263.248 247.67 267.661 247.052C272.342 246.397 277.01 245.754 281.666 244.928C286.005 244.159 290.342 243.378 294.677 242.588C294.29 238.971 293.869 235.357 293.364 231.754C290.991 214.823 286.553 198.422 274.46 186.273L252.553 206.275C254.827 215.289 254.557 241.204 254.548 249.688Z" fill="#FF9C40"/>
<path d="M254.421 306.177H164.228C162.907 306.177 161.836 305.112 161.836 303.799C161.836 302.485 162.907 301.421 164.228 301.421H254.421C255.742 301.421 256.812 302.486 256.812 303.799C256.813 305.112 255.742 306.177 254.421 306.177Z" fill="black"/>
<path d="M241.042 302.951H162.105L145.709 262.683C145.175 261.372 146.145 259.94 147.568 259.94H222.178C222.995 259.94 223.73 260.433 224.037 261.186L241.042 302.951Z" fill="black"/>
<path d="M186.734 241.366C186.067 231.94 186.108 218.203 186.681 208.771Z" fill="#EE7273"/>
<path d="M186.734 241.366C186.067 231.94 186.108 218.203 186.681 208.771" stroke="black" stroke-miterlimit="10" stroke-linecap="round" stroke-linejoin="round"/>
<path d="M209.16 158.813L208.954 159.31C209.159 160.703 209.06 162.092 208.838 163.479C209.183 163.392 209.529 163.309 209.869 163.205C212.971 162.25 215.54 159.732 216.839 156.773C214.497 158.061 211.835 158.768 209.16 158.813Z" fill="black"/>
<path d="M258.845 248.121C259.445 235.531 257.765 226.149 255.186 213.812Z" fill="#EE7273"/>
<path d="M258.845 248.121C259.445 235.531 257.765 226.149 255.186 213.812" stroke="black" stroke-miterlimit="10" stroke-linecap="round" stroke-linejoin="round"/>
<path d="M201.13 133.922C201.13 137.212 198.463 139.878 195.174 139.878C191.884 139.878 189.217 137.211 189.217 133.922C189.217 130.632 191.884 127.966 195.174 127.966C198.463 127.965 201.13 130.632 201.13 133.922Z" stroke="#FF9C40" stroke-width="2" stroke-miterlimit="10" stroke-linecap="round" stroke-linejoin="round"/>
<path d="M216.533 134.127C216.533 137.417 213.866 140.083 210.577 140.083C207.287 140.083 204.621 137.416 204.621 134.127C204.621 130.837 207.288 128.171 210.577 128.171C213.866 128.171 216.533 130.837 216.533 134.127Z" stroke="#FF9C40" stroke-width="2" stroke-miterlimit="10" stroke-linecap="round" stroke-linejoin="round"/>
<path d="M201.129 133.922L204.62 134.127" stroke="#FF9C40" stroke-width="2" stroke-miterlimit="10" stroke-linecap="round" stroke-linejoin="round"/>
<path d="M230.735 351.499C229.308 354.328 228.328 357.383 227.841 360.514C227.796 360.805 227.76 361.124 227.916 361.374C228.199 361.827 228.881 361.747 229.376 361.546C232.296 360.356 234.216 356.948 237.362 356.721C236.738 359.902 234.146 362.676 234.469 365.901C234.499 366.2 234.565 366.517 234.781 366.726C235.104 367.039 235.627 366.99 236.057 366.861C238.423 366.15 239.933 363.771 242.205 362.803C242.785 362.556 243.593 362.474 243.923 363.011C244.184 363.436 243.973 363.982 243.759 364.433C242.747 366.567 241.735 368.7 240.723 370.834" stroke="#FF9C40" stroke-miterlimit="10" stroke-linecap="round" stroke-linejoin="round"/>
<path d="M309.078 246.87C310.321 250.336 311.564 253.937 312.579 256.925C313.986 261.062 317.849 263.857 322.218 263.899L366.767 264.32C371.642 264.366 375.879 260.983 376.913 256.218L379.867 242.604C381.31 235.954 376.013 229.762 369.22 230.158L318.158 233.133C311.304 233.532 306.761 240.406 309.078 246.87Z" fill="url(#paint1_linear_292_42)"/>
<path d="M359.544 209.252C359.515 209.687 359.479 210.122 359.43 210.556C359.052 213.922 357.84 217.054 355.882 219.816C353.815 222.732 351.059 225.154 348.244 227.327C343.062 231.327 337.105 234.772 330.821 236.801C329.66 237.993 329.248 239.331 331.558 240.328C333.447 241.143 335.443 241.71 337.478 242.009C339.116 242.249 340.83 242.309 342.386 241.743C343.869 241.204 345.093 240.141 346.28 239.1C351.13 234.848 356.553 230.186 359.256 224.154C359.443 223.736 359.618 223.312 359.778 222.88C361.222 218.995 361.275 213.505 359.544 209.252Z" fill="url(#paint2_linear_292_42)"/>
<path d="M318.182 244.35L366.179 242.935" stroke="#1D1D1B" stroke-miterlimit="10"/>
<path d="M320.436 254.367L327.064 249.013L333.059 253.805L341.489 248.371L347.156 253.9L356.275 247.712L361.974 253.963L367.455 247.214" stroke="#1D1D1B" stroke-miterlimit="10"/>
<path d="M90.8003 142.855H139.508C147.882 142.855 154.67 149.517 154.67 157.735V171.687C154.67 179.814 148.025 186.438 139.745 186.565L94.3363 187.261C87.1353 187.371 80.8493 182.495 79.2953 175.594L75.9963 160.946C73.9043 151.658 81.1083 142.855 90.8003 142.855Z" fill="url(#paint3_linear_292_42)"/>
<path d="M126.589 165.199C124.715 177.857 126.681 191.039 132.172 202.639C118.053 198.112 108.871 182.151 112.214 167.948" fill="url(#paint4_linear_292_42)"/>
<path d="M88.7812 164.41L95.9762 159.207L102.035 164.41L111.123 159.207L116.803 165.153L126.648 159.207L132.328 165.896L138.387 159.207" stroke="#1D1D1B" stroke-miterlimit="10"/>
<path d="M89.5391 172.958L139.144 171.471" stroke="#1D1D1B" stroke-miterlimit="10"/>
<path d="M302.25 55.823L302.681 74.805C302.856 82.524 309.32 88.604 317.035 88.307L371.753 86.202C378.659 85.936 384.308 80.613 384.982 73.735L387.308 50.015C388.17 41.226 380.683 33.892 371.913 34.937L314.438 41.779C307.364 42.621 302.088 48.701 302.25 55.823Z" fill="url(#paint5_linear_292_42)"/>
<path d="M321.177 97.535C316.227 104.47 307.334 107.121 299.104 109.328C309.421 109.817 319.847 107.858 329.283 103.657C330.963 102.909 332.655 102.06 333.895 100.702C335.349 99.11 336.038 96.98 336.624 94.903C339.415 85.005 341.502 73.633 340.527 63.307C339.79 55.504 333.333 46.494 325.42 56.569C318.052 65.949 329.991 85.188 321.177 97.535Z" fill="url(#paint6_linear_292_42)"/>
<path d="M320.266 64.674L326.827 59.84L332.353 64.674L340.64 59.84L345.82 65.365L354.799 59.84L359.978 66.056L365.504 59.84" stroke="#1D1D1B" stroke-miterlimit="10"/>
<path d="M319.576 52.588L368.612 51.207" stroke="#1D1D1B" stroke-miterlimit="10"/>
<path d="M319.92 72.271H368.265" stroke="#1D1D1B" stroke-miterlimit="10"/>
<path d="M125.663 24.453L115.303 3.73401L78.75 24.453H125.663Z" fill="#DACAFC"/>
<path d="M409.777 155.504C414.927 155.504 419.101 151.329 419.101 146.18C419.101 141.03 414.927 136.856 409.777 136.856C404.628 136.856 400.453 141.03 400.453 146.18C400.453 151.329 404.628 155.504 409.777 155.504Z" fill="#DACAFC"/>
<path d="M57.6121 320.222C61.7957 320.222 65.1871 316.811 65.1871 312.603C65.1871 308.395 61.7957 304.984 57.6121 304.984C53.4285 304.984 50.0371 308.395 50.0371 312.603C50.0371 316.811 53.4285 320.222 57.6121 320.222Z" fill="#DACAFC"/>
<path d="M307.992 15.13C311.997 15.13 315.244 11.8831 315.244 7.87798C315.244 3.87281 311.997 0.625977 307.992 0.625977C303.987 0.625977 300.74 3.87281 300.74 7.87798C300.74 11.8831 303.987 15.13 307.992 15.13Z" fill="#DACAFC"/>
<path d="M355.648 332.035H315.877V348.453H355.648V332.035Z" fill="#DACAFC"/>
<path d="M26.6988 198.848H4.13477V209.277H26.6988V198.848Z" fill="#B49EFF"/>
<path d="M54.1812 198.848H31.6172V209.277H54.1812V198.848Z" fill="#B49EFF"/>
<path d="M36.6226 181.237H14.0586V191.666H36.6226V181.237Z" fill="#B49EFF"/>
<path d="M42.2046 215.559H19.6406V225.988H42.2046V215.559Z" fill="#B49EFF"/>
<path d="M51.271 165.624H28.707V176.053H51.271V165.624Z" fill="#B49EFF"/>
<path d="M63.3461 157.575H0.828125V232.488H63.3461V157.575Z" stroke="#1D1D1B" stroke-miterlimit="10"/>
<path d="M216.82 12.302H193.426V22.035H216.82V12.302Z" fill="#B49EFF"/>
<path d="M245.312 12.302H221.918V22.035H245.312V12.302Z" fill="#B49EFF"/>
<path d="M230.316 26.1541H206.922V35.8871H230.316V26.1541Z" fill="#B49EFF"/>
<path d="M259.41 25.78H236.016V35.513H259.41V25.78Z" fill="#B49EFF"/>
<path d="M273.806 12.302H250.412V22.035H273.806V12.302Z" fill="#B49EFF"/>
<path d="M281.77 4.31201H189.959V45.99H281.77V4.31201Z" stroke="#1D1D1B" stroke-miterlimit="10"/>
<path d="M414.775 298.528H394.32V309.46H414.775V298.528Z" fill="#B49EFF"/>
<path d="M389.934 298.863H369.479V309.795H389.934V298.863Z" fill="#B49EFF"/>
<path d="M363.494 299.537H343.039V310.469H363.494V299.537Z" fill="#B49EFF"/>
<path d="M402.223 282.893H381.768V293.825H402.223V282.893Z" fill="#B49EFF"/>
<path d="M376.773 283.171H356.318V294.103H376.773V283.171Z" fill="#B49EFF"/>
<path d="M423.172 276.083H336.555V317.761H423.172V276.083Z" stroke="#1D1D1B" stroke-miterlimit="10"/>
<path d="M402.783 125.978L405.891 99.043L369.338 119.762L402.783 125.978Z" stroke="#FF9C40" stroke-width="2" stroke-miterlimit="10" stroke-linecap="round" stroke-linejoin="round"/>
<path d="M46.3301 325.281L79.2291 344.731L96.0561 325.281H46.3301Z" stroke="#FF9C40" stroke-width="2" stroke-miterlimit="10" stroke-linecap="round" stroke-linejoin="round"/>
<path d="M136.021 12.337C136.021 6.70897 140.891 2.14697 146.899 2.14697C152.907 2.14697 157.777 6.70897 157.777 12.337" stroke="#FF9C40" stroke-width="2" stroke-miterlimit="10" stroke-linecap="round" stroke-linejoin="round"/>
<path d="M39.2353 129.665H10.9043V146.698H39.2353V129.665Z" stroke="#FF9C40" stroke-width="2" stroke-miterlimit="10" stroke-linecap="round" stroke-linejoin="round"/>
<path d="M397.137 250.742C400.677 250.742 403.546 253.611 403.546 257.151C403.546 260.691 400.677 263.56 397.137 263.56" stroke="#FF9C40" stroke-width="2" stroke-miterlimit="10" stroke-linecap="round" stroke-linejoin="round"/>
<path d="M270.883 94.027C274.697 94.027 277.789 97.119 277.789 100.933C277.789 104.747 274.697 107.839 270.883 107.839" stroke="#FF9C40" stroke-width="2" stroke-miterlimit="10" stroke-linecap="round" stroke-linejoin="round"/>
<defs>
<linearGradient id="paint0_linear_292_42" x1="330.318" y1="311.317" x2="86.7007" y2="311.317" gradientUnits="userSpaceOnUse">
<stop stop-color="#F97316"/>
<stop offset="1" stop-color="#EF4444"/>
</linearGradient>
<linearGradient id="paint1_linear_292_42" x1="380.105" y1="247.23" x2="305.243" y2="247.23" gradientUnits="userSpaceOnUse">
<stop stop-color="#F97316"/>
<stop offset="1" stop-color="#EF4444"/>
</linearGradient>
<linearGradient id="paint2_linear_292_42" x1="360.852" y1="225.718" x2="328.491" y2="225.718" gradientUnits="userSpaceOnUse">
<stop stop-color="#F97316"/>
<stop offset="1" stop-color="#EF4444"/>
</linearGradient>
<linearGradient id="paint3_linear_292_42" x1="154.67" y1="165.059" x2="72.0761" y2="165.059" gradientUnits="userSpaceOnUse">
<stop stop-color="#F97316"/>
<stop offset="1" stop-color="#EF4444"/>
</linearGradient>
<linearGradient id="paint4_linear_292_42" x1="132.172" y1="183.919" x2="110.596" y2="183.919" gradientUnits="userSpaceOnUse">
<stop stop-color="#F97316"/>
<stop offset="1" stop-color="#EF4444"/>
</linearGradient>
<linearGradient id="paint5_linear_292_42" x1="387.375" y1="61.5775" x2="298.415" y2="61.5775" gradientUnits="userSpaceOnUse">
<stop stop-color="#F97316"/>
<stop offset="1" stop-color="#EF4444"/>
</linearGradient>
<linearGradient id="paint6_linear_292_42" x1="340.77" y1="80.7481" x2="297.229" y2="80.7481" gradientUnits="userSpaceOnUse">
<stop stop-color="#F97316"/>
<stop offset="1" stop-color="#EF4444"/>
</linearGradient>
</defs>
</svg>
