<svg width="67" height="40" viewBox="0 0 67 40" fill="none" xmlns="http://www.w3.org/2000/svg">
<g id="Frame" clip-path="url(#clip0_186_40583)">
<path id="Vector" d="M18.8983 14.5278C18.8983 15.3509 18.9873 16.0182 19.143 16.5076C19.321 16.997 19.5434 17.5309 19.8548 18.1092C19.966 18.2872 20.0105 18.4651 20.0105 18.6208C20.0105 18.8433 19.8771 19.0657 19.5879 19.2882L18.1865 20.2225C17.9863 20.3559 17.7861 20.4227 17.6081 20.4227C17.3857 20.4227 17.1632 20.3114 16.9408 20.1112C16.6294 19.7776 16.3624 19.4216 16.14 19.0657C15.9175 18.6876 15.6951 18.2649 15.4504 17.7533C13.7153 19.7998 11.5353 20.8231 8.91046 20.8231C7.04191 20.8231 5.55152 20.2892 4.46153 19.2214C3.37155 18.1537 2.81543 16.73 2.81543 14.9505C2.81543 13.0597 3.48277 11.5248 4.83969 10.3681C6.19661 9.21136 7.99843 8.633 10.2896 8.633C11.0459 8.633 11.8245 8.69973 12.6476 8.81095C13.4706 8.92218 14.3159 9.10013 15.2057 9.30033V7.67648C15.2057 5.98588 14.8498 4.80692 14.1602 4.11733C13.4484 3.42775 12.2472 3.09408 10.5343 3.09408C9.75576 3.09408 8.95495 3.18306 8.1319 3.38326C7.30885 3.58346 6.50804 3.82815 5.72948 4.13958C5.37356 4.29529 5.10663 4.38427 4.95092 4.42876C4.7952 4.47325 4.68398 4.49549 4.595 4.49549C4.28358 4.49549 4.12786 4.27305 4.12786 3.80591V2.71592C4.12786 2.36001 4.17235 2.09307 4.28358 1.93736C4.3948 1.78165 4.595 1.62593 4.90643 1.47022C5.68499 1.06982 6.61926 0.736148 7.70925 0.469213C8.79924 0.180032 9.95596 0.0465645 11.1794 0.0465645C13.8265 0.0465645 15.7618 0.64717 17.0075 1.84838C18.231 3.04959 18.8538 4.87365 18.8538 7.32056V14.5278H18.8983ZM9.86698 17.909C10.6011 17.909 11.3574 17.7755 12.1582 17.5086C12.959 17.2417 13.6708 16.7523 14.2714 16.085C14.6273 15.6623 14.8943 15.1952 15.0277 14.6613C15.1612 14.1274 15.2502 13.4823 15.2502 12.726V11.7917C14.6051 11.636 13.9155 11.5026 13.2037 11.4136C12.4918 11.3246 11.8023 11.2801 11.1127 11.2801C9.62229 11.2801 8.5323 11.5693 7.79823 12.1699C7.06416 12.7705 6.70824 13.6158 6.70824 14.728C6.70824 15.7735 6.97518 16.5521 7.53129 17.086C8.06516 17.6421 8.84373 17.909 9.86698 17.909ZM27.7294 20.3114C27.329 20.3114 27.0621 20.2447 26.8841 20.089C26.7062 19.9555 26.5505 19.6441 26.417 19.2214L21.1895 2.02634C21.056 1.58144 20.9893 1.29226 20.9893 1.13655C20.9893 0.780638 21.1673 0.580436 21.5232 0.580436H23.7031C24.1258 0.580436 24.415 0.64717 24.5707 0.802882C24.7486 0.93635 24.8821 1.24778 25.0156 1.67042L28.7527 16.3964L32.2228 1.67042C32.3341 1.22553 32.4675 0.93635 32.6455 0.802882C32.8234 0.669414 33.1349 0.580436 33.5353 0.580436H35.3148C35.7375 0.580436 36.0267 0.64717 36.2046 0.802882C36.3826 0.93635 36.5383 1.24778 36.6273 1.67042L40.1419 16.5743L43.9903 1.67042C44.1237 1.22553 44.2794 0.93635 44.4352 0.802882C44.6131 0.669414 44.9023 0.580436 45.3027 0.580436H47.3714C47.7274 0.580436 47.9276 0.758393 47.9276 1.13655C47.9276 1.24777 47.9053 1.359 47.8831 1.49247C47.8608 1.62593 47.8163 1.80389 47.7274 2.04858L42.3664 19.2437C42.2329 19.6886 42.0772 19.9778 41.8993 20.1112C41.7213 20.2447 41.4321 20.3337 41.054 20.3337H39.1409C38.7183 20.3337 38.4291 20.2669 38.2511 20.1112C38.0732 19.9555 37.9175 19.6663 37.8285 19.2214L34.3806 4.87365L30.9549 19.1992C30.8437 19.6441 30.7102 19.9333 30.5323 20.089C30.3543 20.2447 30.0429 20.3114 29.6425 20.3114H27.7294ZM56.3138 20.912C55.1571 20.912 54.0003 20.7786 52.8881 20.5116C51.7759 20.2447 50.9083 19.9555 50.33 19.6218C49.9741 19.4216 49.7294 19.1992 49.6404 18.999C49.5514 18.7988 49.5069 18.5763 49.5069 18.3761V17.2417C49.5069 16.7745 49.6849 16.5521 50.0186 16.5521C50.152 16.5521 50.2855 16.5743 50.419 16.6188C50.5524 16.6633 50.7526 16.7523 50.9751 16.8413C51.7314 17.1749 52.5544 17.4419 53.422 17.6198C54.3118 17.7978 55.1793 17.8868 56.0691 17.8868C57.4705 17.8868 58.5605 17.6421 59.3168 17.1527C60.0731 16.6633 60.4735 15.9515 60.4735 15.0395C60.4735 14.4166 60.2733 13.905 59.8729 13.4823C59.4725 13.0597 58.7162 12.6815 57.6262 12.3256L54.4008 11.3246C52.7769 10.813 51.5757 10.0567 50.8416 9.05564C50.1075 8.07688 49.7294 6.98689 49.7294 5.83017C49.7294 4.8959 49.9296 4.07284 50.33 3.36102C50.7304 2.64919 51.2643 2.02634 51.9316 1.53696C52.5989 1.02533 53.3553 0.64717 54.245 0.380234C55.1348 0.113298 56.0691 0.0020752 57.0479 0.0020752C57.5372 0.0020752 58.0489 0.0243198 58.5383 0.0910538C59.0499 0.157788 59.517 0.246766 59.9842 0.335745C60.429 0.446968 60.8517 0.558191 61.2521 0.691659C61.6525 0.825127 61.9639 0.958595 62.1864 1.09206C62.4978 1.27002 62.7202 1.44798 62.8537 1.64818C62.9872 1.82614 63.0539 2.07083 63.0539 2.38225V3.42775C63.0539 3.89489 62.876 4.13958 62.5423 4.13958C62.3643 4.13958 62.0752 4.0506 61.697 3.87264C60.429 3.29428 59.0054 3.0051 57.426 3.0051C56.1581 3.0051 55.1571 3.2053 54.4675 3.62795C53.7779 4.0506 53.422 4.69569 53.422 5.60772C53.422 6.23057 53.6444 6.76445 54.0893 7.18709C54.5342 7.60974 55.3573 8.03239 56.5362 8.41055L59.695 9.41156C61.2966 9.92318 62.4533 10.635 63.1429 11.547C63.8325 12.4591 64.1662 13.5046 64.1662 14.6613C64.1662 15.6178 63.9659 16.4854 63.5878 17.2417C63.1874 17.998 62.6535 18.6653 61.9639 19.1992C61.2743 19.7553 60.4513 20.1557 59.4948 20.4449C58.4938 20.7563 57.4483 20.912 56.3138 20.912Z" fill="white"/>
<path id="Vector_2" d="M60.5179 31.7229C53.1994 37.1284 42.5664 39.9979 33.4239 39.9979C20.611 39.9979 9.06601 35.2598 0.346107 27.3852C-0.343477 26.7624 0.279373 25.9171 1.10242 26.4065C10.5342 31.8786 22.1681 35.1931 34.2025 35.1931C42.3217 35.1931 51.2418 33.5025 59.4501 30.0323C60.6736 29.4762 61.7191 30.8331 60.5179 31.7229Z" fill="#FF9900"/>
<path id="Vector_3" d="M63.5657 28.2528C62.6314 27.0516 57.3817 27.6744 55.0015 27.9636C54.2897 28.0526 54.1785 27.4297 54.8236 26.9626C59.0056 24.0263 65.8792 24.8716 66.68 25.8503C67.4808 26.8513 66.4575 33.7249 62.5425 37.0171C61.9419 37.5288 61.3635 37.2618 61.6304 36.5945C62.5202 34.3923 64.5 29.4317 63.5657 28.2528Z" fill="#FF9900"/>
</g>
<defs>
<clipPath id="clip0_186_40583">
<rect width="66.8896" height="40" fill="white" transform="translate(0.0571289)"/>
</clipPath>
</defs>
</svg>
