<svg width="229" height="40" viewBox="0 0 229 40" fill="none" xmlns="http://www.w3.org/2000/svg">
<g clip-path="url(#clip0_186_40591)">
<path d="M28.4556 12.0685H29.7381L33.3932 8.41337L33.5728 6.86156C31.4789 5.01344 28.9484 3.72961 26.2205 3.13136C23.4925 2.5331 20.657 2.64017 17.9819 3.44244C15.3068 4.24472 12.8803 5.71572 10.9318 7.71648C8.98327 9.71725 7.57696 12.1817 6.8457 14.8771C7.2529 14.7102 7.70396 14.6831 8.12819 14.8002L15.4384 13.5946C15.4384 13.5946 15.8103 12.979 16.0027 13.0175C17.569 11.2973 19.7337 10.2408 22.0535 10.0644C24.3733 9.88793 26.6728 10.6049 28.4813 12.0685H28.4556Z" fill="#EA4335"/>
<path d="M38.6003 14.8771C37.7601 11.7833 36.0352 9.00197 33.637 6.87439L28.5071 12.0043C29.5762 12.8779 30.433 13.9829 31.0129 15.2359C31.5927 16.4889 31.8804 17.8572 31.8544 19.2376V20.1481C32.454 20.1481 33.0477 20.2662 33.6016 20.4957C34.1555 20.7251 34.6588 21.0614 35.0828 21.4854C35.5068 21.9094 35.8431 22.4127 36.0725 22.9666C36.3019 23.5205 36.42 24.1142 36.42 24.7138C36.42 25.3134 36.3019 25.9071 36.0725 26.461C35.8431 27.0149 35.5068 27.5182 35.0828 27.9422C34.6588 28.3662 34.1555 28.7025 33.6016 28.9319C33.0477 29.1614 32.454 29.2795 31.8544 29.2795H22.7231L21.8125 30.2029V35.6791L22.7231 36.5896H31.8544C34.4043 36.6095 36.8928 35.8081 38.9519 34.304C41.0111 32.7998 42.5313 30.6729 43.2879 28.2377C44.0445 25.8026 43.9972 23.1886 43.153 20.7824C42.3087 18.3763 40.7125 16.3057 38.6003 14.8771Z" fill="#4285F4"/>
<path d="M13.5788 36.5383H22.7101V29.2282H13.5788C12.9282 29.228 12.2853 29.0881 11.6935 28.8178L10.411 29.2153L6.73029 32.8704L6.40967 34.1529C8.47375 35.7115 10.9924 36.5496 13.5788 36.5383Z" fill="#34A853"/>
<path d="M13.5788 12.8251C11.1047 12.8399 8.69692 13.6271 6.69186 15.0767C4.68679 16.5263 3.18454 18.5659 2.39493 20.9107C1.60533 23.2555 1.56779 25.7884 2.28757 28.1556C3.00734 30.5228 4.44849 32.6061 6.40972 34.1144L11.7064 28.8178C11.0333 28.5137 10.444 28.0508 9.98914 27.4689C9.53426 26.887 9.22734 26.2034 9.09473 25.4768C8.96212 24.7502 9.00776 24.0023 9.22776 23.2972C9.44775 22.5921 9.83551 21.9509 10.3578 21.4286C10.8801 20.9064 11.5212 20.5186 12.2263 20.2986C12.9314 20.0786 13.6793 20.033 14.4059 20.1656C15.1325 20.2982 15.8161 20.6051 16.398 21.06C16.9799 21.5149 17.4428 22.1041 17.7469 22.7772L23.0436 17.4806C21.9319 16.0272 20.499 14.8507 18.8571 14.0431C17.2151 13.2355 15.4086 12.8186 13.5788 12.8251Z" fill="#FBBC05"/>
<path d="M68.136 31.434C66.5638 31.4541 65.0038 31.1566 63.5494 30.5594C62.0949 29.9622 60.776 29.0775 59.6715 27.9585C58.5323 26.8869 57.6283 25.5903 57.0167 24.1508C56.4052 22.7114 56.0995 21.1605 56.119 19.5967C56.1003 18.0329 56.4063 16.4823 57.0178 15.043C57.6293 13.6036 58.533 12.3069 59.6715 11.2348C60.7706 10.1042 62.0871 9.20772 63.5418 8.59939C64.9965 7.99106 66.5592 7.68348 68.136 7.69517C69.6383 7.67515 71.1297 7.95396 72.5233 8.51539C73.917 9.07681 75.1852 9.90966 76.2541 10.9655L73.9713 13.2868C72.408 11.776 70.3098 10.946 68.136 10.9783C67.0083 10.9645 65.8901 11.1854 64.8524 11.627C63.8147 12.0685 62.8802 12.7211 62.1083 13.5433C61.306 14.3392 60.6732 15.2892 60.2478 16.3361C59.8224 17.3831 59.6133 18.5053 59.6331 19.6351C59.6237 20.7521 59.8378 21.8597 60.2629 22.8927C60.688 23.9257 61.3154 24.8632 62.1083 25.65C63.6964 27.2327 65.8396 28.1331 68.0817 28.1594C70.3237 28.1858 72.4874 27.336 74.1124 25.7911C75.1183 24.6894 75.7355 23.2884 75.8694 21.8025H68.1744V18.5194H79.0628C79.1698 19.1806 79.2127 19.8506 79.191 20.5201C79.2587 21.9057 79.0447 23.2906 78.562 24.5912C78.0792 25.8917 77.3378 27.0809 76.3824 28.0867C75.3201 29.1927 74.0367 30.0624 72.6159 30.6391C71.195 31.2159 69.6685 31.4867 68.136 31.434ZM93.4523 29.2538C91.991 30.6545 90.0451 31.4365 88.0209 31.4365C85.9968 31.4365 84.0509 30.6545 82.5896 29.2538C81.8623 28.5486 81.2895 27.6999 80.9076 26.7616C80.5256 25.8233 80.3429 24.8159 80.3709 23.8032C80.3437 22.7907 80.5268 21.7835 80.9087 20.8453C81.2906 19.9071 81.8629 19.0583 82.5896 18.3527C84.0524 16.9549 85.9977 16.1749 88.0209 16.1749C90.0442 16.1749 91.9895 16.9549 93.4523 18.3527C94.179 19.0583 94.7513 19.9071 95.1332 20.8453C95.5151 21.7835 95.6983 22.7907 95.671 23.8032C95.6974 24.8168 95.5126 25.8248 95.1284 26.7632C94.7443 27.7016 94.1691 28.5497 93.4395 29.2538H93.4523ZM84.9879 27.112C85.3765 27.5271 85.8463 27.858 86.368 28.0842C86.8897 28.3104 87.4523 28.4271 88.0209 28.4271C88.5896 28.4271 89.1522 28.3104 89.6739 28.0842C90.1956 27.858 90.6654 27.5271 91.054 27.112C91.4778 26.674 91.8096 26.1556 92.0299 25.5873C92.2502 25.0191 92.3544 24.4124 92.3365 23.8032C92.3554 23.192 92.2517 22.5831 92.0314 22.0126C91.8111 21.4421 91.4788 20.9215 91.054 20.4816C90.6602 20.0708 90.1873 19.7438 89.6639 19.5205C89.1404 19.2972 88.5772 19.1821 88.0081 19.1821C87.439 19.1821 86.8758 19.2972 86.3524 19.5205C85.8289 19.7438 85.356 20.0708 84.9622 20.4816C84.5374 20.9215 84.2051 21.4421 83.9848 22.0126C83.7646 22.5831 83.6608 23.192 83.6797 23.8032C83.6635 24.4133 83.7698 25.0205 83.9923 25.5888C84.2148 26.1571 84.5489 26.6751 84.975 27.112H84.9879ZM110.15 29.2538C108.689 30.6545 106.743 31.4365 104.719 31.4365C102.695 31.4365 100.749 30.6545 99.2876 29.2538C98.5603 28.5486 97.9875 27.6999 97.6056 26.7616C97.2236 25.8233 97.0409 24.8159 97.0689 23.8032C97.0416 22.7907 97.2248 21.7835 97.6067 20.8453C97.9886 19.9071 98.5609 19.0583 99.2876 18.3527C100.749 16.9519 102.695 16.1699 104.719 16.1699C106.743 16.1699 108.689 16.9519 110.15 18.3527C110.877 19.0583 111.449 19.9071 111.831 20.8453C112.213 21.7835 112.396 22.7907 112.369 23.8032C112.397 24.8159 112.214 25.8233 111.832 26.7616C111.45 27.6999 110.878 28.5486 110.15 29.2538ZM101.686 27.112C102.075 27.5271 102.544 27.858 103.066 28.0842C103.588 28.3104 104.15 28.4271 104.719 28.4271C105.288 28.4271 105.85 28.3104 106.372 28.0842C106.894 27.858 107.363 27.5271 107.752 27.112C108.176 26.674 108.508 26.1556 108.728 25.5873C108.948 25.0191 109.052 24.4124 109.035 23.8032C109.053 23.192 108.95 22.5831 108.729 22.0126C108.509 21.4421 108.177 20.9215 107.752 20.4816C107.358 20.0708 106.885 19.7438 106.362 19.5205C105.838 19.2972 105.275 19.1821 104.706 19.1821C104.137 19.1821 103.574 19.2972 103.05 19.5205C102.527 19.7438 102.054 20.0708 101.66 20.4816C101.235 20.9215 100.903 21.4421 100.683 22.0126C100.463 22.5831 100.359 23.192 100.378 23.8032C100.362 24.4133 100.468 25.0205 100.69 25.5888C100.913 26.1571 101.247 26.6751 101.673 27.112H101.686ZM121.128 38.2825C119.591 38.3314 118.084 37.8516 116.858 36.9231C115.769 36.1047 114.912 35.0176 114.37 33.7682L117.294 32.5498C117.612 33.2965 118.11 33.9529 118.743 34.4607C119.421 35.007 120.271 35.2935 121.141 35.2687C121.693 35.3022 122.245 35.2165 122.761 35.0173C123.277 34.8182 123.743 34.5102 124.129 34.1144C124.902 33.1824 125.284 31.9873 125.194 30.78V29.677H125.078C124.59 30.2575 123.973 30.7161 123.276 31.0167C122.579 31.3172 121.822 31.4513 121.064 31.4084C120.101 31.4113 119.148 31.2145 118.265 30.8304C117.382 30.4463 116.589 29.8833 115.934 29.1769C115.224 28.4761 114.664 27.6385 114.287 26.7149C113.91 25.7912 113.724 24.8007 113.741 23.8032C113.724 22.7999 113.909 21.8034 114.286 20.8734C114.662 19.9434 115.223 19.0991 115.934 18.3911C116.587 17.6818 117.38 17.1159 118.263 16.7296C119.146 16.3432 120.1 16.1447 121.064 16.1468C121.88 16.1453 122.686 16.3249 123.424 16.6726C124.062 16.9514 124.632 17.3674 125.091 17.891H125.207V16.6726H128.387V30.3311C128.471 31.4116 128.333 32.4978 127.983 33.5232C127.632 34.5486 127.076 35.4917 126.348 36.2947C125.655 36.9578 124.836 37.4754 123.939 37.8168C123.043 38.1582 122.087 38.3166 121.128 38.2825ZM121.359 28.433C121.907 28.4451 122.45 28.3364 122.951 28.1147C123.452 27.8931 123.898 27.5639 124.258 27.1505C125.049 26.2437 125.466 25.0701 125.425 23.8674C125.472 22.6443 125.055 21.4485 124.258 20.5201C123.899 20.106 123.453 19.7763 122.952 19.5546C122.451 19.3329 121.907 19.2246 121.359 19.2376C120.797 19.226 120.238 19.3344 119.721 19.5555C119.203 19.7767 118.739 20.1055 118.358 20.5201C117.51 21.4151 117.049 22.6088 117.076 23.8417C117.063 24.4465 117.169 25.0478 117.389 25.6113C117.609 26.1747 117.939 26.6891 118.358 27.1249C118.737 27.5435 119.2 27.8766 119.718 28.1022C120.235 28.3277 120.795 28.4405 121.359 28.433ZM134.043 8.55444V30.9723H130.696V8.55444H134.043ZM143.226 31.434C142.223 31.4598 141.226 31.2783 140.297 30.901C139.368 30.5236 138.527 29.9585 137.826 29.241C137.116 28.5287 136.557 27.6795 136.184 26.7447C135.812 25.8099 135.633 24.8092 135.659 23.8032C135.621 22.7948 135.787 21.7891 136.146 20.846C136.505 19.903 137.05 19.0419 137.749 18.3142C138.408 17.6197 139.205 17.0704 140.088 16.7016C140.972 16.3328 141.922 16.1525 142.879 16.1724C143.759 16.1631 144.632 16.3333 145.444 16.6726C146.176 16.9679 146.843 17.4036 147.407 17.9551C147.891 18.4226 148.321 18.9432 148.689 19.5069C148.987 19.9828 149.24 20.4851 149.446 21.0074L149.792 21.8795L139.532 26.0989C139.842 26.8118 140.361 27.414 141.021 27.8261C141.68 28.2382 142.449 28.4409 143.226 28.4074C143.981 28.4094 144.725 28.2156 145.383 27.8447C146.042 27.4738 146.593 26.9386 146.983 26.2913L149.548 28.0226C148.894 28.9591 148.056 29.7531 147.086 30.3567C145.932 31.0857 144.59 31.4602 143.226 31.434ZM138.942 23.5724L145.765 20.7381C145.555 20.2383 145.179 19.8262 144.701 19.571C144.165 19.2685 143.559 19.1136 142.944 19.1221C141.9 19.1492 140.909 19.587 140.186 20.3405C139.754 20.7544 139.418 21.2587 139.203 21.8174C138.988 22.376 138.899 22.9753 138.942 23.5724ZM167.324 31.434C165.9 31.4586 164.486 31.1953 163.167 30.6598C161.848 30.1244 160.65 29.3279 159.647 28.3181C158.643 27.3084 157.853 26.1062 157.326 24.7838C156.798 23.4614 156.543 22.046 156.576 20.6227C156.543 19.1993 156.798 17.7839 157.326 16.4615C157.853 15.1391 158.643 13.9369 159.647 12.9272C160.65 11.9174 161.848 11.1209 163.167 10.5855C164.486 10.05 165.9 9.78671 167.324 9.81128C168.764 9.76623 170.197 10.0474 171.514 10.6336C172.831 11.2199 173.998 12.0962 174.929 13.1971L173.082 14.9925C172.399 14.1331 171.522 13.4471 170.524 12.9903C169.526 12.5334 168.433 12.3187 167.336 12.3634C166.28 12.3396 165.23 12.5296 164.25 12.9219C163.269 13.3142 162.378 13.9007 161.629 14.6463C160.851 15.4286 160.244 16.3634 159.844 17.3918C159.445 18.4203 159.262 19.5203 159.308 20.6227C159.262 21.725 159.445 22.825 159.844 23.8535C160.244 24.882 160.851 25.8167 161.629 26.5991C162.378 27.3446 163.269 27.9311 164.25 28.3234C165.23 28.7157 166.28 28.9057 167.336 28.8819C168.562 28.8956 169.775 28.6329 170.885 28.1134C171.995 27.5938 172.974 26.8307 173.749 25.8809L175.596 27.7276C174.629 28.8839 173.415 29.8086 172.043 30.4337C170.565 31.1163 168.952 31.4581 167.324 31.434ZM180.559 30.9723H177.904V10.2602H180.559V30.9723ZM184.894 18.5066C186.285 17.125 188.166 16.3497 190.126 16.3497C192.087 16.3497 193.968 17.125 195.359 18.5066C196.039 19.2248 196.571 20.0704 196.923 20.9949C197.275 21.9193 197.441 22.9042 197.411 23.893C197.441 24.8818 197.275 25.8667 196.923 26.7912C196.571 27.7156 196.039 28.5612 195.359 29.2795C193.968 30.661 192.087 31.4363 190.126 31.4363C188.166 31.4363 186.285 30.661 184.894 29.2795C184.213 28.5612 183.682 27.7156 183.33 26.7912C182.978 25.8667 182.812 24.8818 182.842 23.893C182.812 22.9042 182.978 21.9193 183.33 20.9949C183.682 20.0704 184.213 19.2248 184.894 18.5066ZM186.869 27.6122C187.287 28.0543 187.791 28.4064 188.35 28.647C188.909 28.8877 189.511 29.0118 190.12 29.0118C190.728 29.0118 191.331 28.8877 191.89 28.647C192.449 28.4064 192.953 28.0543 193.371 27.6122C193.835 27.1143 194.195 26.5291 194.431 25.8905C194.666 25.252 194.773 24.573 194.743 23.893C194.773 23.213 194.666 22.534 194.431 21.8955C194.195 21.257 193.835 20.6717 193.371 20.1738C192.953 19.7317 192.449 19.3796 191.89 19.139C191.331 18.8983 190.728 18.7742 190.12 18.7742C189.511 18.7742 188.909 18.8983 188.35 19.139C187.791 19.3796 187.287 19.7317 186.869 20.1738C186.405 20.6717 186.044 21.257 185.809 21.8955C185.573 22.534 185.467 23.213 185.496 23.893C185.47 24.5717 185.58 25.2489 185.817 25.8851C186.055 26.5214 186.417 27.1041 186.882 27.5994L186.869 27.6122ZM212.121 30.9723H209.556V29.0101H209.479C209.023 29.7554 208.376 30.3661 207.607 30.78C206.808 31.2429 205.901 31.4863 204.977 31.4853C204.228 31.5366 203.476 31.4179 202.779 31.1381C202.082 30.8583 201.457 30.4246 200.95 29.8694C199.979 28.6406 199.491 27.0986 199.578 25.5346V16.8137H202.233V25.0472C202.233 27.6892 203.4 29.0101 205.734 29.0101C206.253 29.0263 206.768 28.9184 207.236 28.6953C207.705 28.4722 208.113 28.1405 208.427 27.7276C209.115 26.8556 209.482 25.7732 209.466 24.6625V16.8137H212.121V30.9723ZM221.137 31.434C220.236 31.437 219.346 31.2448 218.527 30.8707C217.707 30.4965 216.979 29.9493 216.392 29.2666C215.062 27.7981 214.35 25.8733 214.404 23.893C214.35 21.9127 215.062 19.9879 216.392 18.5194C216.979 17.8367 217.707 17.2895 218.527 16.9153C219.346 16.5412 220.236 16.349 221.137 16.352C222.146 16.336 223.143 16.5742 224.035 17.0445C224.82 17.4393 225.484 18.0372 225.959 18.7759H226.074L225.959 16.8137V10.2602H228.614V30.9723H226.049V29.0101H225.933C225.458 29.7489 224.794 30.3467 224.01 30.7415C223.125 31.2076 222.137 31.4457 221.137 31.434ZM221.573 29.0101C222.173 29.0189 222.768 28.8999 223.319 28.6611C223.869 28.4223 224.363 28.0691 224.766 27.625C225.668 26.5982 226.129 25.2573 226.049 23.893C226.129 22.5287 225.668 21.1878 224.766 20.161C224.36 19.7145 223.865 19.3577 223.313 19.1136C222.761 18.8696 222.164 18.7435 221.56 18.7435C220.956 18.7435 220.359 18.8696 219.807 19.1136C219.255 19.3577 218.76 19.7145 218.354 20.161C217.906 20.666 217.562 21.2545 217.342 21.8927C217.122 22.531 217.03 23.2064 217.071 23.8802C217.03 24.554 217.122 25.2294 217.342 25.8676C217.562 26.5058 217.906 27.0943 218.354 27.5994C218.758 28.0514 219.255 28.4113 219.81 28.6547C220.365 28.8981 220.967 29.0193 221.573 29.0101Z" fill="white"/>
</g>
<defs>
<clipPath id="clip0_186_40591">
<rect width="228.311" height="40" fill="white" transform="translate(0.303223)"/>
</clipPath>
</defs>
</svg>
