<svg width="101" height="40" viewBox="0 0 101 40" fill="none" xmlns="http://www.w3.org/2000/svg">
<g id="ibm 1" clip-path="url(#clip0_186_40581)">
<path id="Vector" d="M0.0571289 0V2.7367H19.5219V0H0.0571289ZM22.2797 0V2.7367H50.018C50.018 2.7367 47.1847 0 43.4321 0H22.2797ZM55.4594 0V2.7367H72.2406L71.2446 0H55.4594ZM84.2719 0L83.2758 2.7367H99.9047V0H84.2719ZM0.0571289 5.3222V8.0589H19.5219V5.3222H0.0571289ZM22.2797 5.3261V8.059H53.2367C53.2367 8.059 52.8752 5.9527 52.2445 5.3261H22.2797ZM55.4594 5.3261V8.059H74.0805L73.1586 5.3261H55.4594ZM82.2797 5.3261L81.3578 8.059H99.9047V5.3261H82.2797ZM5.65083 10.6444V13.385H14.0805V10.6444H5.65083ZM27.8735 10.6444V13.385H36.3032V10.6444H27.8735ZM44.5024 10.6444V13.385H52.9321C52.9321 13.385 53.4673 11.9377 53.4673 10.6444H44.5024ZM61.0532 10.6444V13.385H75.9985L75.0024 10.6444H61.0532ZM80.4438 10.6444L79.4438 13.385H94.4633V10.6444H80.4438ZM5.65083 15.9706V18.7073H14.0805V15.9706H5.65083ZM27.8735 15.9706V18.7073H49.4047C49.4047 18.7073 51.2059 17.3031 51.7797 15.9706H27.8735ZM61.0532 15.9706V18.7073H69.4829V17.1839L70.0181 18.7073H85.4595L86.0337 17.1839V18.7073H94.4634V15.9706H78.6391L77.7993 18.2886L76.9555 15.9706H61.0532ZM5.65083 21.2928V24.0295H14.0805V21.2928H5.65083ZM27.8735 21.2928V24.0295H51.7797C51.2058 22.7014 49.4047 21.2928 49.4047 21.2928H27.8735ZM61.0532 21.2928V24.0295H69.4829V21.2928H61.0532ZM71.0141 21.2928L72.0336 24.0295H83.6117L84.5805 21.2928H71.0141ZM86.0336 21.2928V24.0295H94.4633V21.2928H86.0336ZM5.65083 26.615V29.3516H14.0805V26.615H5.65083ZM27.8735 26.615V29.3516H36.3032V26.615H27.8735ZM44.5024 26.615V29.3516H53.4672C53.4672 28.0601 52.932 26.615 52.932 26.615H44.5024ZM61.0532 26.615V29.3516H69.4829V26.615H61.0532ZM72.9282 26.615L73.9165 29.3516H81.6782L82.6743 26.615H72.9282ZM86.0336 26.615V29.3516H94.4633V26.615H86.0336ZM0.209429 31.9372V34.6778H19.6742V31.9372H0.209429ZM22.2797 31.9372V34.6778H52.2445C52.8752 34.0503 53.2367 31.9372 53.2367 31.9372H22.2797ZM55.6118 31.9372V34.6778H69.4829V31.9372H55.6118ZM74.8461 31.9372L75.8617 34.6778H79.8109L80.764 31.9372H74.8461ZM86.0336 31.9372V34.6778H100.057V31.9372H86.0336ZM0.209429 37.2633V40H19.6742V37.2633H0.209429ZM22.2797 37.2633V39.9961H43.4321C47.1847 39.9961 50.018 37.2633 50.018 37.2633H22.2797ZM55.6118 37.2633V40H69.4829V37.2633H55.6118ZM76.7719 37.2633L77.7485 39.9923L77.9165 39.9961L78.9087 37.2633H76.7719ZM86.0336 37.2633V40H100.057V37.2633H86.0336Z" fill="#1F70C1"/>
</g>
<defs>
<clipPath id="clip0_186_40581">
<rect width="100" height="40" fill="white" transform="translate(0.0571289)"/>
</clipPath>
</defs>
</svg>
