<svg width="289" height="40" viewBox="0 0 289 40" fill="none" xmlns="http://www.w3.org/2000/svg">
<g clip-path="url(#clip0_186_40587)">
<path d="M0.994141 5.50376L17.3978 3.24894V19.078H0.995651L0.994141 5.50376ZM17.3978 21.1036V36.7537L0.996406 34.5023L0.996028 21.1044H17.3982L17.3978 21.1036ZM19.2117 3.00013L41.0387 -0.00038147V19.078H19.2117V3.00013ZM41.0387 21.1036V40.0004L19.2117 37.0021V21.1036H41.0387Z" fill="#0DADEA"/>
<path d="M78.0941 31.8242H74.3022V17.163C74.3022 15.9612 74.3774 14.4936 74.5273 12.7541H74.4638C74.2271 13.7441 74.0183 14.4547 73.8371 14.8881L66.9609 31.8242H64.3258L57.433 15.015C57.2404 14.5204 57.0366 13.7668 56.8229 12.756H56.7594C56.8459 13.6622 56.8882 15.1415 56.8882 17.1951V31.8242H53.353V9.16879H58.7352L64.7925 24.257C65.2527 25.4154 65.5529 26.28 65.6915 26.8479H65.7715C66.168 25.6574 66.4889 24.772 66.7354 24.1929L72.9056 9.16879H78.0952L78.0937 31.8242H78.0941ZM85.212 12.249C84.6018 12.249 84.0781 12.0549 83.6458 11.6649C83.2116 11.2752 82.9949 10.7795 82.9949 10.1795C82.9949 9.57958 83.2116 9.07893 83.6458 8.67795C84.08 8.27849 84.6018 8.07762 85.212 8.07762C85.8433 8.07762 86.3802 8.27849 86.8189 8.67795C87.2576 9.07893 87.4781 9.57769 87.4781 10.1795C87.4781 10.7474 87.2576 11.2352 86.8189 11.6407C86.3783 12.047 85.8433 12.249 85.212 12.249ZM87.0586 31.8242H83.3324V15.6455H87.059V31.8242H87.0586ZM103.721 31.0815C102.404 31.8291 100.844 32.2029 99.0448 32.2029C96.6027 32.2029 94.6318 31.4523 93.1322 29.9522C91.6332 28.4522 90.8826 26.5062 90.8826 24.1143C90.8826 21.4495 91.6887 19.3094 93.3005 17.6919C94.9127 16.0752 97.0675 15.2665 99.7675 15.2665C101.267 15.2665 102.59 15.5247 103.735 16.0416V19.4537C102.588 18.6117 101.368 18.1896 100.073 18.1896C98.4985 18.1896 97.208 18.7144 96.2014 19.7618C95.1948 20.8095 94.6904 22.1812 94.6904 23.8768C94.6904 25.5517 95.1635 26.8736 96.1115 27.8424C97.0592 28.8116 98.3316 29.296 99.9276 29.296C101.267 29.296 102.529 28.8278 103.719 27.8907L103.721 31.0815ZM116.974 19.1376C116.524 18.7895 115.876 18.6166 115.03 18.6166C113.927 18.6166 113.005 19.1055 112.266 20.0857C111.527 21.0644 111.157 22.3975 111.157 24.0822V31.8242H107.429V15.6455H111.157V18.9791H111.22C111.584 17.8415 112.144 16.9542 112.899 16.3172C113.654 15.6807 114.498 15.3612 115.429 15.3612C116.105 15.3612 116.619 15.4624 116.973 15.6614L116.974 19.1376ZM126.936 32.2029C124.397 32.2029 122.371 31.4474 120.854 29.936C119.338 28.425 118.58 26.4209 118.58 23.9252C118.58 21.2071 119.369 19.0848 120.95 17.5575C122.531 16.0303 124.658 15.2665 127.337 15.2665C129.908 15.2665 131.91 16.0095 133.345 17.4949C134.781 18.9806 135.498 21.0387 135.498 23.6714C135.498 26.2529 134.724 28.3193 133.176 29.8718C131.629 31.4266 129.549 32.2029 126.936 32.2029ZM127.112 18.1896C125.655 18.1896 124.503 18.6902 123.658 19.6896C122.811 20.6906 122.389 22.0702 122.389 23.8285C122.389 25.5242 122.818 26.8592 123.675 27.833C124.531 28.8067 125.678 29.2941 127.113 29.2941C128.582 29.2941 129.709 28.8146 130.496 27.8571C131.282 26.8977 131.677 25.534 131.677 23.7643C131.677 21.9852 131.284 20.6105 130.496 19.6413C129.708 18.674 128.58 18.1896 127.112 18.1896ZM138.279 31.319V27.9228C139.672 28.9657 141.209 29.4867 142.889 29.4867C145.139 29.4867 146.263 28.8339 146.263 27.5279C146.263 27.159 146.167 26.8464 145.975 26.5878C145.782 26.3295 145.523 26.1003 145.195 25.9013C144.866 25.7024 144.482 25.5226 144.038 25.3641C143.593 25.2051 143.098 25.0269 142.552 24.8264C141.927 24.5862 141.318 24.3065 140.728 23.989C140.186 23.6937 139.738 23.3603 139.379 22.9865C139.025 22.6217 138.749 22.1888 138.568 21.7141C138.385 21.2411 138.295 20.6872 138.295 20.0555C138.295 19.2758 138.483 18.589 138.858 17.994C139.234 17.3986 139.736 16.8983 140.367 16.4939C141 16.088 141.716 15.7833 142.521 15.578C143.334 15.3712 144.171 15.2677 145.01 15.2699C146.531 15.2699 147.891 15.496 149.091 15.9483V19.1554C147.934 18.3757 146.606 17.9857 145.107 17.9857C144.635 17.9857 144.209 18.034 143.829 18.1269C143.449 18.2217 143.124 18.3534 142.857 18.5218C142.589 18.6902 142.381 18.8922 142.23 19.1297C142.081 19.363 142.003 19.6345 142.005 19.9113C142.005 20.259 142.08 20.5543 142.23 20.7967C142.381 21.0387 142.602 21.252 142.897 21.4366C143.191 21.6213 143.545 21.7897 143.958 21.9418C144.371 22.0943 144.844 22.2612 145.381 22.4394C146.029 22.6973 146.665 22.9875 147.284 23.309C147.847 23.6039 148.327 23.9376 148.723 24.3114C149.114 24.6764 149.425 25.1175 149.639 25.6076C149.853 26.0969 149.96 26.6795 149.96 27.3531C149.96 28.1747 149.768 28.8898 149.381 29.5014C148.996 30.1127 148.481 30.6179 147.839 31.0173C147.196 31.4183 146.454 31.7151 145.614 31.9092C144.772 32.1051 143.886 32.2014 142.955 32.2014C141.154 32.2029 139.596 31.9092 138.279 31.319ZM160.804 32.2029C158.266 32.2029 156.238 31.4474 154.722 29.936C153.207 28.425 152.45 26.4209 152.45 23.9252C152.45 21.2071 153.239 19.0848 154.82 17.5575C156.399 16.0303 158.528 15.2665 161.206 15.2665C163.777 15.2665 165.778 16.0095 167.214 17.4949C168.65 18.9806 169.367 21.0387 169.367 23.6714C169.367 26.2529 168.594 28.3193 167.046 29.8718C165.498 31.4266 163.416 32.2029 160.804 32.2029ZM160.981 18.1896C159.524 18.1896 158.372 18.6902 157.525 19.6896C156.678 20.6906 156.256 22.0702 156.256 23.8285C156.256 25.5242 156.685 26.8592 157.541 27.833C158.398 28.8067 159.545 29.2941 160.981 29.2941C162.447 29.2941 163.574 28.8146 164.362 27.8571C165.15 26.8977 165.543 25.534 165.543 23.7643C165.543 21.9852 165.15 20.6105 164.362 19.6413C163.574 18.674 162.447 18.1896 160.981 18.1896ZM182.478 10.8595C181.975 10.5756 181.401 10.4329 180.758 10.4329C178.947 10.4329 178.044 11.4387 178.044 13.4504V15.6467H181.868V18.5218H178.06V31.8242H174.332V18.5218H171.521V15.6467H174.332V13.0237C174.332 11.3171 174.9 9.97262 176.035 8.98756C177.171 8.00211 178.59 7.50977 180.293 7.50977C181.215 7.50977 181.943 7.60944 182.478 7.80993V10.8595ZM193.226 31.6509C192.498 32.0088 191.539 32.1886 190.349 32.1886C187.158 32.1886 185.563 30.6821 185.563 27.671V18.5233H182.816V15.6486H185.563V11.9039L189.291 10.8614V15.6486H193.227V18.5233H189.291V26.6115C189.291 27.5694 189.467 28.2543 189.821 28.6651C190.175 29.0759 190.764 29.2813 191.588 29.2813C192.219 29.2813 192.766 29.1031 193.226 28.7436V31.6509ZM224.845 31.8242H220.652L218.58 26.0569H209.519L207.527 31.8242H203.349L211.976 9.16879H216.281L224.844 31.8242H224.845ZM217.567 22.993L214.371 13.9559C214.274 13.6607 214.172 13.1876 214.066 12.5344H214.002C213.906 13.1347 213.798 13.6093 213.68 13.9559L210.516 22.993H217.567ZM239.754 17.1788L230.869 28.9638H239.721V31.8242H225.647V30.4495L234.724 18.5056H226.515V15.6452H239.754V17.1788ZM257.25 31.8242H253.523V29.2639H253.46C252.378 31.2227 250.696 32.2029 248.416 32.2029C244.527 32.2029 242.583 29.9073 242.583 25.3142V15.6452H246.311V24.9355C246.311 27.8428 247.451 29.296 249.734 29.296C250.836 29.296 251.743 28.8966 252.456 28.0961C253.169 27.2957 253.525 26.2479 253.525 24.9518V15.6452H257.253L257.25 31.8242ZM271.662 19.1376C271.211 18.7895 270.564 18.6166 269.717 18.6166C268.614 18.6166 267.692 19.1055 266.953 20.0857C266.214 21.0644 265.844 22.3975 265.844 24.0822V31.8242H262.117V15.6455H265.844V18.9791H265.907C266.271 17.8415 266.831 16.9542 267.586 16.3172C268.342 15.6807 269.185 15.3612 270.117 15.3612C270.79 15.3612 271.306 15.4624 271.658 15.6614L271.662 19.1376H271.662ZM288.258 24.7301H277.043C277.086 26.2253 277.554 27.3788 278.449 28.1905C279.343 29.0008 280.572 29.4067 282.137 29.4067C283.894 29.4067 285.505 28.8901 286.972 27.8586V30.812C285.473 31.7393 283.491 32.2029 281.027 32.2029C278.606 32.2029 276.709 31.4682 275.332 29.9987C273.955 28.5292 273.268 26.4628 273.268 23.7983C273.268 21.2811 274.025 19.229 275.543 17.644C277.058 16.059 278.941 15.2665 281.191 15.2665C283.44 15.2665 285.179 15.9774 286.411 17.3986C287.643 18.8201 288.259 20.7948 288.259 23.3233L288.258 24.7301H288.258ZM284.659 22.1393C284.643 20.8223 284.333 19.7984 283.712 19.067C283.09 18.3357 282.233 17.9698 281.14 17.9698C280.07 17.9698 279.161 18.3549 278.417 19.1233C277.674 19.8916 277.215 20.8978 277.044 22.1408H284.659V22.1393Z" fill="#00ADEF"/>
</g>
<defs>
<clipPath id="clip0_186_40587">
<rect width="287.356" height="40" fill="white" transform="translate(0.946777)"/>
</clipPath>
</defs>
</svg>
