<svg width="67" height="40" viewBox="0 0 67 40" fill="none" xmlns="http://www.w3.org/2000/svg">
<g clip-path="url(#clip0_186_40604)">
<path d="M15.9911 10.4375H28.4901V11.431H17.1369V18.9079H27.8132V19.9013H17.1369V28.1103H28.6203V29.1036H15.9911V10.4375ZM29.6099 10.4375H30.9379L36.8228 18.6465L42.8379 10.4374L51.0194 0.0103607L37.5779 19.5093L44.5044 29.1036H43.1243L36.8228 20.3719L30.4951 29.1036H29.1411L36.1197 19.5091L29.6099 10.4375ZM44.9991 11.431V10.4374H59.2428V11.4309H52.6808V29.1035H51.535V11.431H44.9991ZM0.354492 10.4374H1.78665L21.5353 39.9896L13.3743 29.1035L1.55225 11.8492L1.50022 29.1038H0.354492L0.354492 10.4374ZM59.1274 27.8102C58.8932 27.8102 58.7177 27.629 58.7177 27.3945C58.7177 27.1602 58.8932 26.9788 59.1274 26.9788C59.3642 26.9788 59.537 27.1601 59.537 27.3945C59.537 27.6289 59.3642 27.8102 59.1274 27.8102ZM60.2532 26.7165H60.8663C60.8746 27.0485 61.117 27.2718 61.4737 27.2718C61.8722 27.2718 62.098 27.0318 62.098 26.5826V23.7364H62.7222V26.5853C62.7222 27.3945 62.2541 27.8606 61.4793 27.8606C60.7519 27.8606 60.2532 27.4085 60.2532 26.7164V26.7165ZM63.5387 26.6803H64.1574C64.2103 27.0625 64.5837 27.3052 65.1216 27.3052C65.6232 27.3052 65.991 27.0457 65.991 26.6886C65.991 26.3817 65.7569 26.1975 65.2246 26.072L64.7063 25.9464C63.9789 25.7761 63.6474 25.4245 63.6474 24.833C63.6474 24.116 64.2325 23.6388 65.1104 23.6388C65.9268 23.6388 66.5232 24.1159 66.5595 24.7939H65.9519C65.8934 24.4229 65.5701 24.1912 65.1019 24.1912C64.6088 24.1912 64.2801 24.4284 64.2801 24.7911C64.2801 25.0784 64.4917 25.2432 65.0156 25.3659L65.4587 25.4748C66.2835 25.6674 66.6235 26.0022 66.6235 26.6077C66.6235 27.3778 66.0273 27.8606 65.0742 27.8606C64.1825 27.8606 63.5832 27.4001 63.5387 26.6802V26.6803Z" fill="white"/>
</g>
<defs>
<clipPath id="clip0_186_40604">
<rect width="66.2691" height="40" fill="white" transform="translate(0.354492)"/>
</clipPath>
</defs>
</svg>
