<svg width="165" height="40" viewBox="0 0 165 40" fill="none" xmlns="http://www.w3.org/2000/svg">
<g id="openai-wordmark 1">
<path id="Vector" d="M117.409 15.5841C115.017 15.5841 113.311 16.4008 112.473 17.9474L112.023 18.785V15.9873H108.132V32.993H112.225V22.8757C112.225 20.4585 113.539 19.0718 115.827 19.0718C118.01 19.0718 119.261 20.422 119.261 22.7749V32.993H123.355V22.0451C123.355 17.9961 121.133 15.5841 117.409 15.5841ZM97.5617 15.5841C92.7324 15.5841 89.7417 18.5974 89.7417 23.4475V25.8351C89.7417 30.4993 92.7672 33.3961 97.6381 33.3961C100.896 33.3961 103.18 32.2023 104.617 29.7468L102.08 28.2871C101.018 29.7034 99.322 30.581 97.6399 30.581C95.174 30.581 93.7021 29.0587 93.7021 26.5076V25.8317H105.124V23.0113C105.124 18.4931 102.158 15.5841 97.5651 15.5841H97.5617ZM101.4 23.0825H93.6882V22.6742C93.6882 19.8746 95.0628 18.3298 97.5582 18.3298C99.9615 18.3298 101.397 19.852 101.397 22.4031L101.4 23.0825ZM163.998 13.1877V9.93463H149.842V13.1877H154.805V29.7329H149.842V32.986H163.998V29.7329H159.033V13.1877H163.998ZM56.6635 9.46544C50.3415 9.46544 46.4107 13.4049 46.4107 19.7495V23.1798C46.4107 29.5227 50.3398 33.4639 56.6635 33.4639C62.9872 33.4639 66.9163 29.5227 66.9163 23.1798V19.7495C66.9145 13.398 62.9802 9.46544 56.6635 9.46544ZM62.6866 23.4144C62.6866 27.6268 60.4918 30.0423 56.6635 30.0423C52.8352 30.0423 50.6422 27.6268 50.6422 23.4144V19.5132C50.6422 15.3008 52.8387 12.8854 56.6652 12.8854C60.4918 12.8854 62.6883 15.3008 62.6883 19.5132L62.6866 23.4144ZM79.7705 15.5841C77.6226 15.5841 75.7632 16.4738 74.7935 17.9631L74.3539 18.6408V15.9873H70.4613V38.844H74.5555V30.5653L74.9934 31.2152C75.9144 32.5811 77.713 33.3961 79.8052 33.3961C83.3346 33.3961 86.8953 31.0901 86.8953 25.9359V23.0443C86.8953 19.3307 84.7005 15.5841 79.7705 15.5841ZM82.8011 25.7361C82.8011 28.4765 81.2024 30.1795 78.6305 30.1795C76.2324 30.1795 74.5589 28.3792 74.5589 25.8039V23.2459C74.5589 20.6392 76.2463 18.8042 78.6653 18.8042C81.218 18.8042 82.8046 20.5054 82.8046 23.2459L82.8011 25.7361ZM134.668 9.93637L126.408 32.993H130.567L132.148 28.0508H141.643L141.659 28.0994L143.223 32.993H147.38L139.106 9.93463L134.668 9.93637ZM133.163 24.7994L136.889 13.1425L140.576 24.7994H133.163ZM38.4066 16.373C38.8547 15.0279 39.0102 13.6026 38.8628 12.1925C38.7153 10.7825 38.2683 9.42017 37.5516 8.19687C36.4877 6.34804 34.8647 4.8844 32.9161 4.0166C30.9676 3.14879 28.7939 2.92158 26.708 3.36764C25.7672 2.30663 24.6106 1.45884 23.3156 0.881029C22.0206 0.303217 20.6171 0.00871548 19.1991 0.0172392C17.0657 0.012382 14.9858 0.685332 13.2596 1.93902C11.5333 3.19271 10.25 4.96232 9.59453 6.99261C8.20559 7.27752 6.89349 7.85573 5.74599 8.68855C4.5985 9.52138 3.64206 10.5896 2.94065 11.8218C1.87117 13.6676 1.41493 15.8052 1.63758 17.9268C1.86023 20.0484 2.7503 22.0446 4.17967 23.6282C3.73332 24.9721 3.5787 26.3957 3.72613 27.8041C3.87357 29.2125 4.31966 30.5733 5.03465 31.7957C6.09749 33.6481 7.72127 35.115 9.67176 35.9848C11.6223 36.8546 13.7986 37.0824 15.887 36.6353C16.8269 37.695 17.9822 38.5421 19.2755 39.1198C20.5689 39.6976 21.9706 39.9928 23.3871 39.9857C25.5206 39.9906 27.6004 39.3176 29.3267 38.0639C31.0529 36.8102 32.3363 35.0406 32.9917 33.0103C34.3804 32.7253 35.6922 32.147 36.8394 31.3142C37.9866 30.4814 38.9427 29.4132 39.6439 28.1811C40.7161 26.3359 41.1741 24.1977 40.9517 22.0752C40.7293 19.9527 39.838 17.9559 38.4066 16.373ZM23.3871 37.3791C21.6351 37.3806 19.9383 36.7654 18.5944 35.6413C18.6535 35.6083 18.7682 35.5509 18.8342 35.5075L26.7931 30.9129C26.9928 30.7994 27.1586 30.6348 27.2735 30.436C27.3883 30.2371 27.4481 30.0112 27.4465 29.7816V18.5591L30.8091 20.5002C30.8273 20.5088 30.8429 20.522 30.8545 20.5384C30.8661 20.5549 30.8732 20.574 30.8751 20.5941V29.8824C30.8751 31.8691 30.0865 33.7746 28.6825 35.1803C27.2785 36.5859 25.3739 37.3768 23.3871 37.3791ZM7.29721 30.508C6.41984 28.9917 6.10308 27.2154 6.40226 25.4893C6.46135 25.5258 6.56561 25.5884 6.6386 25.6301L14.5993 30.2265C14.7975 30.3425 15.023 30.4037 15.2527 30.4037C15.4824 30.4037 15.7079 30.3425 15.9061 30.2265L25.6184 24.61V28.4922C25.6202 28.5121 25.6169 28.5322 25.6086 28.5505C25.6004 28.5687 25.5876 28.5846 25.5715 28.5964L17.5257 33.2397C15.8053 34.2303 13.7623 34.498 11.8448 33.9843C9.92733 33.4706 8.29188 32.2172 7.29721 30.4993V30.508ZM5.2119 13.1304C6.08516 11.6118 7.46505 10.4491 9.10969 9.84601V19.3064C9.10852 19.5359 9.16842 19.7617 9.28323 19.9605C9.39805 20.1593 9.56366 20.324 9.76309 20.4377L19.4772 26.0471L16.1024 27.9952C16.086 28.0062 16.067 28.013 16.0473 28.0148C16.0276 28.0166 16.0077 28.0135 15.9895 28.0056L7.9454 23.3606C6.22661 22.3662 4.97266 20.7304 4.45886 18.8124C3.94505 16.8943 4.21339 14.8508 5.20495 13.1304H5.2119ZM32.8423 19.5601L23.1282 13.9506L26.4873 12.0078C26.5038 11.9969 26.5227 11.9902 26.5425 11.9884C26.5622 11.9865 26.582 11.9896 26.6002 11.9974L34.6443 16.6424C35.8764 17.3543 36.8802 18.4024 37.5382 19.6641C38.1962 20.9258 38.4811 22.3488 38.3597 23.7666C38.2383 25.1843 37.7155 26.5382 36.8525 27.6696C35.9896 28.801 34.8222 29.6632 33.487 30.1552V20.6966C33.4896 20.4664 33.4308 20.2398 33.3165 20.04C33.2023 19.8402 33.0367 19.6745 32.8371 19.5601H32.8423ZM36.1909 14.5206C36.1319 14.4841 36.0276 14.4215 35.9546 14.3798L27.9939 9.78345C27.7957 9.66738 27.5702 9.60619 27.3405 9.60619C27.1109 9.60619 26.8853 9.66738 26.6871 9.78345L16.9731 15.3912V11.5108C16.9724 11.4908 16.9764 11.4709 16.9849 11.4528C16.9933 11.4347 17.006 11.4188 17.0217 11.4065L25.0658 6.76322C26.2983 6.05274 27.7077 5.70799 29.1291 5.76932C30.5504 5.83065 31.9249 6.29551 33.0916 7.10951C34.2584 7.92351 35.1692 9.05298 35.7175 10.3657C36.2657 11.6785 36.4287 13.1203 36.1875 14.5223L36.1909 14.5206ZM15.1397 21.4438L11.7754 19.5027C11.7581 19.4932 11.7433 19.4797 11.7322 19.4634C11.721 19.4471 11.7138 19.4285 11.7111 19.4089V10.1206C11.71 8.69698 12.1148 7.30257 12.8779 6.10081C13.6411 4.89904 14.731 3.93972 16.0199 3.3353C17.3088 2.73088 18.7433 2.5064 20.1553 2.68817C21.5672 2.86995 22.8981 3.45046 23.9919 4.36164C23.9328 4.39466 23.8268 4.452 23.7521 4.49545L15.7931 9.09008C15.5937 9.20378 15.4281 9.36847 15.3133 9.56726C15.1984 9.76605 15.1386 9.9918 15.1397 10.2214V21.4438ZM16.9661 17.5043L21.2931 15.0054L25.6184 17.5043V22.4986L21.2914 24.9975L16.9644 22.4986L16.9661 17.5043Z" fill="white"/>
</g>
</svg>
