<svg width="139" height="40" viewBox="0 0 139 40" fill="none" xmlns="http://www.w3.org/2000/svg">
<g clip-path="url(#clip0_186_40598)">
<path d="M52.5485 17.0309C52.5485 12.8065 51.344 10.6377 48.9347 10.519C47.9759 10.4738 47.0404 10.6263 46.1297 10.98C45.403 11.2399 44.9139 11.4975 44.6566 11.7577V21.8411C46.1976 22.8083 47.566 23.258 48.7595 23.1872C51.2843 23.0198 52.5485 20.97 52.5485 17.0309ZM55.5204 17.2062C55.5204 19.3523 55.017 21.1339 54.0046 22.5504C52.8764 24.1538 51.3127 24.9795 49.3136 25.0247C47.8065 25.0726 46.2539 24.6006 44.6563 23.6108V32.7754L42.0718 31.8534V11.5114C42.4959 10.9913 43.0419 10.5445 43.7033 10.1654C45.2417 9.26896 47.1106 8.80827 49.3107 8.78564L49.3473 8.8222C51.358 8.79696 52.9071 9.62259 53.9959 11.2965C55.0112 12.832 55.5204 14.8001 55.5204 17.2062ZM71.3156 23.2209C71.3156 26.0996 71.0272 28.0928 70.4505 29.2013C69.8709 30.3095 68.7679 31.1946 67.1393 31.8537C65.8187 32.3739 64.3905 32.6567 62.8582 32.7049L62.4309 31.0763C63.989 30.8645 65.0862 30.6521 65.7224 30.4401C66.9751 30.0159 67.8346 29.3658 68.3069 28.4946C68.6858 27.785 68.8723 26.4306 68.8723 24.4259V23.7529C67.105 24.5562 65.253 24.9548 63.3163 24.9548C62.0436 24.9548 60.9212 24.5562 59.954 23.7529C58.8681 22.8791 58.3254 21.7709 58.3254 20.4278V9.67075L60.9099 8.78564V19.6126C60.9099 20.7689 61.283 21.6598 62.0294 22.2847C62.7758 22.9096 63.743 23.2095 64.9278 23.1866C66.1126 23.1611 67.3821 22.703 68.7308 21.8066V9.17554H71.3153L71.3156 23.2209ZM81.4045 24.8834C81.1214 24.9074 80.8374 24.9196 80.5533 24.92C79.0915 24.92 77.9517 24.5725 77.1376 23.8739C76.3259 23.1756 75.9189 22.2116 75.9189 20.9813V10.8016H74.1487V9.17583H75.9189V4.85795L78.5005 3.9389V9.17583H81.4045V10.8016H78.5005V20.9105C78.5005 21.8806 78.7605 22.5676 79.2806 22.9693C79.7274 23.3001 80.4373 23.4895 81.4042 23.5377V24.8834H81.4045ZM97.0529 24.6714H94.4684V14.6953C94.4684 13.6803 94.2311 12.8065 93.7588 12.0771C93.2131 11.2512 92.4554 10.8384 91.4824 10.8384C90.2976 10.8384 88.816 11.4633 87.0374 12.7131V24.6714H84.4532V0.825808L87.0374 0.0114899V10.8724C88.6887 9.67046 90.4928 9.0682 92.4525 9.0682C93.8212 9.0682 94.9293 9.52918 95.7779 10.4482C96.6291 11.367 97.0532 12.5123 97.0532 13.881L97.0529 24.6714ZM110.79 16.6239C110.79 15.0008 110.481 13.6605 109.868 12.6002C109.138 11.3081 108.004 10.6263 106.472 10.5559C103.638 10.7198 102.224 12.7499 102.224 16.641C102.224 18.4252 102.518 19.9154 103.112 21.1115C103.87 22.6357 105.007 23.388 106.523 23.3624C109.367 23.3395 110.79 21.0944 110.79 16.6239ZM113.62 16.6408C113.62 18.9511 113.029 20.8739 111.85 22.4092C110.552 24.1286 108.759 24.9908 106.472 24.9908C104.204 24.9908 102.437 24.1283 101.161 22.4092C100.005 20.8739 99.4277 18.9511 99.4277 16.6408C99.4277 14.4693 100.053 12.6426 101.303 11.1552C102.623 9.57733 104.359 8.78564 106.506 8.78564C108.651 8.78564 110.399 9.57733 111.745 11.1552C112.995 12.6426 113.62 14.4693 113.62 16.6408ZM128.437 24.6714H125.852V14.1299C125.852 12.9736 125.505 12.0713 124.809 11.4209C124.113 10.7734 123.186 10.4595 122.029 10.4848C120.802 10.5074 119.634 10.9089 118.526 11.6867V24.6714H115.941V11.3673C117.429 10.2846 118.798 9.57733 120.047 9.24662C121.226 8.93853 122.267 8.78564 123.163 8.78564C123.777 8.78564 124.354 8.84483 124.897 8.96377C125.912 9.19846 126.738 9.6339 127.374 10.273C128.083 10.98 128.437 11.828 128.437 12.8207V24.6714Z" fill="white"/>
<path d="M16.5453 0.921258C15.2155 0.92735 13.9457 1.04078 12.8285 1.23863C9.53701 1.82029 8.9394 3.03727 8.9394 5.28208V8.24664H16.7176V9.23473H6.0201C3.75962 9.23473 1.77996 10.5936 1.16088 13.1784C0.446645 16.1412 0.415024 17.99 1.16088 21.0837C1.71381 23.3865 3.03436 25.0273 5.29484 25.0273H7.9693V21.4736C7.9693 18.9062 10.1906 16.6416 12.8285 16.6416H20.5978C22.7605 16.6416 24.4869 14.861 24.4869 12.689V5.28179C24.4869 3.17391 22.7085 1.59024 20.5978 1.23834C19.2613 1.01612 17.8751 0.914876 16.5453 0.921258ZM12.3388 3.30532C13.1424 3.30532 13.7983 3.97227 13.7983 4.7921C13.7983 5.60903 13.1421 6.26988 12.3388 6.26988C11.5326 6.26988 10.8793 5.60932 10.8793 4.7921C10.8793 3.97227 11.5326 3.30532 12.3388 3.30532Z" fill="url(#paint0_linear_186_40598)"/>
<path d="M25.457 9.23444V12.6884C25.457 15.3663 23.1867 17.6201 20.5978 17.6201H12.8286C10.7004 17.6201 8.93945 19.4414 8.93945 21.5728V28.9794C8.93945 31.0876 10.7723 32.3275 12.8286 32.9321C15.2907 33.6561 17.6518 33.787 20.5978 32.9321C22.556 32.3652 24.4869 31.2239 24.4869 28.9794V26.0151H16.7177V25.027H28.376C30.6368 25.027 31.479 23.45 32.2652 21.0834C33.0774 18.6471 33.0429 16.3037 32.2652 13.1781C31.7064 10.9278 30.6394 9.23444 28.376 9.23444H25.457ZM21.0872 27.9913C21.8934 27.9913 22.5467 28.6519 22.5467 29.4691C22.5467 30.2889 21.8934 30.9559 21.0872 30.9559C20.2836 30.9559 19.6277 30.2889 19.6277 29.4691C19.6277 28.6522 20.2839 27.9913 21.0872 27.9913Z" fill="url(#paint1_linear_186_40598)"/>
<path d="M133.47 6.87154H133.923V4.0297H134.996V3.69086H132.396V4.0297H133.469L133.47 6.87154ZM135.398 6.87154H135.785V4.27599L136.625 6.87125H137.056L137.932 4.2847V6.87154H138.354V3.69115H137.795L136.838 6.41608L136.023 3.69115H135.398V6.87154Z" fill="#646464"/>
<path opacity="0.444" d="M27.2295 37.9674C27.2295 39.0837 22.5626 39.9885 16.8055 39.9885C11.0487 39.9885 6.38184 39.0837 6.38184 37.9674C6.38184 36.851 11.0487 35.9459 16.8055 35.9459C22.5626 35.9459 27.2295 36.851 27.2295 37.9674Z" fill="url(#paint2_radial_186_40598)"/>
</g>
<defs>
<linearGradient id="paint0_linear_186_40598" x1="-0.153868" y1="1.84697" x2="17.7827" y2="17.1294" gradientUnits="userSpaceOnUse">
<stop stop-color="#5A9FD4"/>
<stop offset="1" stop-color="#306998"/>
</linearGradient>
<linearGradient id="paint1_linear_186_40598" x1="24.5131" y1="26.6565" x2="18.0778" y2="17.6397" gradientUnits="userSpaceOnUse">
<stop stop-color="#FFD43B"/>
<stop offset="1" stop-color="#FFE873"/>
</linearGradient>
<radialGradient id="paint2_radial_186_40598" cx="0" cy="0" r="1" gradientUnits="userSpaceOnUse" gradientTransform="translate(16.8022 37.9209) rotate(-90) scale(2.02085 8.88449)">
<stop stop-color="#B8B8B8" stop-opacity="0.498"/>
<stop offset="1" stop-color="#7F7F7F" stop-opacity="0"/>
</radialGradient>
<clipPath id="clip0_186_40598">
<rect width="137.741" height="40" fill="white" transform="translate(0.613281)"/>
</clipPath>
</defs>
</svg>
