<svg width="51" height="40" viewBox="0 0 51 40" fill="none" xmlns="http://www.w3.org/2000/svg">
<g clip-path="url(#clip0_186_40609)">
<path d="M41.7203 18.2676C41.7203 16.0873 38.99 14.0211 34.8038 12.7398C35.7699 8.47315 35.3405 5.07862 33.4486 3.99183C33.0125 3.7369 32.5028 3.61614 31.946 3.61614V5.11216C32.2545 5.11216 32.5028 5.17254 32.7107 5.28658C33.6231 5.80984 34.0189 7.80229 33.7102 10.365C33.6366 10.9956 33.5158 11.6597 33.3682 12.3373C32.0532 12.0153 30.6176 11.7671 29.1082 11.6061C28.2026 10.365 27.2634 9.23792 26.3174 8.25177C28.5044 6.21907 30.5573 5.10544 31.9527 5.10544V3.60944C30.1077 3.60944 27.6927 4.92432 25.2509 7.20522C22.8088 4.93773 20.3938 3.63627 18.549 3.63627V5.13228C19.9377 5.13228 21.9971 6.2392 24.1841 8.25847C23.2449 9.24464 22.3057 10.365 21.4135 11.6061C19.8973 11.7671 18.4617 12.0153 17.1469 12.344C16.9925 11.6731 16.8785 11.0224 16.7979 10.3985C16.4828 7.83583 16.8717 5.84339 17.7775 5.31341C17.9787 5.19266 18.2403 5.139 18.549 5.139V3.64298C17.9854 3.64298 17.4755 3.76374 17.0329 4.01866C15.1477 5.10544 14.7251 8.49327 15.6978 12.7465C11.5251 14.0346 8.80811 16.0941 8.80811 18.2676C8.80811 20.448 11.5385 22.5142 15.7246 23.7955C14.7586 28.0622 15.1879 31.4566 17.0798 32.5435C17.5159 32.7983 18.0256 32.9191 18.5892 32.9191C20.434 32.9191 22.8492 31.6042 25.2911 29.3233C27.7329 31.5909 30.1481 32.8924 31.9929 32.8924C32.5563 32.8924 33.0662 32.7716 33.5091 32.5166C35.3941 31.4298 35.8168 28.042 34.844 23.7889C39.0033 22.5075 41.7203 20.4412 41.7203 18.2676ZM32.9858 13.793C32.7376 14.6585 32.429 15.5506 32.0801 16.4429C31.8051 15.9063 31.5166 15.3695 31.2013 14.8328C30.8927 14.2962 30.5639 13.7729 30.2352 13.2631C31.1878 13.4039 32.1069 13.5784 32.9858 13.793ZM29.9132 20.9376C29.3899 21.8434 28.8534 22.702 28.2965 23.5004C27.2968 23.5876 26.284 23.6345 25.2642 23.6345C24.2512 23.6345 23.2382 23.5876 22.2454 23.507C21.6886 22.7086 21.1451 21.8567 20.6218 20.9577C20.112 20.079 19.6492 19.1867 19.2265 18.2878C19.6424 17.3888 20.112 16.4898 20.6152 15.6111C21.1385 14.7055 21.6751 13.8467 22.2319 13.0484C23.2316 12.9612 24.2444 12.9142 25.2642 12.9142C26.2772 12.9142 27.2902 12.9612 28.283 13.0417C28.8398 13.84 29.3833 14.692 29.9066 15.591C30.4165 16.4697 30.8792 17.362 31.302 18.261C30.8792 19.1599 30.4165 20.0589 29.9132 20.9376ZM32.0801 20.0656C32.4322 20.9399 32.7412 21.8309 33.0059 22.7355C32.127 22.9502 31.2013 23.1314 30.242 23.2722C30.5707 22.7557 30.8993 22.2258 31.2081 21.6823C31.5166 21.1457 31.8051 20.6022 32.0801 20.0656ZM25.2776 27.2236C24.6537 26.5795 24.0298 25.8617 23.4126 25.0769C24.0164 25.1037 24.6336 25.1238 25.2575 25.1238C25.8881 25.1238 26.512 25.1105 27.1225 25.0769C26.5467 25.8252 25.9308 26.5418 25.2776 27.2236ZM20.2864 23.2722C19.3339 23.1314 18.4147 22.9569 17.536 22.7422C17.7841 21.8768 18.0928 20.9846 18.4416 20.0923C18.7167 20.6291 19.0052 21.1658 19.3204 21.7024C19.6357 22.2391 19.9578 22.7623 20.2864 23.2722ZM25.2441 9.31172C25.868 9.95573 26.4919 10.6736 27.109 11.4585C26.5052 11.4316 25.8881 11.4115 25.2642 11.4115C24.6336 11.4115 24.0097 11.4249 23.3993 11.4585C23.9751 10.7102 24.5909 9.99353 25.2441 9.31172ZM20.2797 13.2631C19.951 13.7796 19.6223 14.3096 19.3138 14.8529C19.0052 15.3897 18.7167 15.9264 18.4416 16.463C18.0894 15.5887 17.7805 14.6977 17.5159 13.793C18.3946 13.5851 19.3204 13.4039 20.2797 13.2631ZM14.2085 21.6622C11.8337 20.6492 10.2974 19.321 10.2974 18.2676C10.2974 17.2144 11.8337 15.8794 14.2085 14.8732C14.7854 14.6249 15.416 14.4035 16.0668 14.1956C16.4492 15.5104 16.9523 16.879 17.5762 18.2811C16.9591 19.6765 16.4625 21.0383 16.0869 22.3465C15.4228 22.1385 14.7922 21.9104 14.2085 21.6622ZM17.8177 31.2487C16.9053 30.7255 16.5095 28.733 16.8182 26.1703C16.892 25.5398 17.0126 24.8755 17.1602 24.1979C18.4752 24.52 19.9108 24.7683 21.4202 24.9292C22.3258 26.1703 23.265 27.2973 24.211 28.2835C22.024 30.3163 19.9711 31.4298 18.5757 31.4298C18.2739 31.4232 18.019 31.3627 17.8177 31.2487ZM33.7305 26.1368C34.0456 28.6994 33.6567 30.6919 32.7509 31.2219C32.5497 31.3426 32.2881 31.3963 31.9794 31.3963C30.5908 31.3963 28.5313 30.2894 26.3443 28.2701C27.2835 27.284 28.2227 26.1637 29.115 24.9225C30.6311 24.7615 32.0667 24.5133 33.3816 24.1846C33.5359 24.8622 33.6567 25.5129 33.7305 26.1368ZM36.3132 21.6622C35.7363 21.9104 35.1056 22.1319 34.4549 22.3398C34.0725 21.0249 33.5694 19.6564 32.9455 18.2542C33.5628 16.8588 34.0592 15.4971 34.4348 14.1888C35.099 14.3968 35.7295 14.6249 36.32 14.8732C38.6948 15.886 40.231 17.2144 40.231 18.2676C40.2243 19.321 38.688 20.6559 36.3132 21.6622Z" fill="#61DAFB"/>
<path d="M25.2573 21.3335C26.9506 21.3335 28.3232 19.9609 28.3232 18.2676C28.3232 16.5744 26.9506 15.2018 25.2573 15.2018C23.5641 15.2018 22.1915 16.5744 22.1915 18.2676C22.1915 19.9609 23.5641 21.3335 25.2573 21.3335ZM10.3024 38.1978H9.29036V39.9408H8.71924V35.6322H10.1456C10.6309 35.6322 11.0037 35.7427 11.2641 35.9637C11.5265 36.1845 11.6577 36.5061 11.6577 36.9282C11.6577 37.1966 11.5847 37.4303 11.4387 37.6297C11.2947 37.8289 11.0935 37.9779 10.8351 38.0764L11.8471 39.9052V39.9408H11.2375L10.3024 38.1978ZM9.29036 37.7332H10.1633C10.4454 37.7332 10.6693 37.6601 10.8351 37.5142C11.0027 37.3682 11.0866 37.1729 11.0866 36.9282C11.0866 36.662 11.0067 36.4578 10.8469 36.3158C10.6891 36.1737 10.4602 36.1017 10.1604 36.0997H9.29036V37.7332ZM13.6996 40C13.2655 40 12.9124 39.8579 12.6402 39.5738C12.3679 39.2878 12.2318 38.906 12.2318 38.4286V38.328C12.2318 38.0104 12.292 37.7274 12.4123 37.4788C12.5346 37.2281 12.7043 37.0328 12.9213 36.8928C13.1403 36.7508 13.377 36.6797 13.6315 36.6797C14.0478 36.6797 14.3713 36.8168 14.6021 37.091C14.8329 37.3652 14.9483 37.7578 14.9483 38.2687V38.4966H12.7792C12.7871 38.8124 12.8789 39.0678 13.0544 39.2632C13.232 39.4564 13.4569 39.5531 13.7292 39.5531C13.9225 39.5531 14.0862 39.5137 14.2203 39.4348C14.3545 39.3559 14.4719 39.2513 14.5725 39.1211L14.9069 39.3815C14.6385 39.7937 14.2362 40 13.6996 40ZM13.6315 37.1296C13.4105 37.1296 13.2251 37.2104 13.0752 37.3721C12.9252 37.532 12.8325 37.7569 12.797 38.0469H14.4009V38.0055C14.3851 37.7274 14.3101 37.5122 14.176 37.3603C14.0418 37.2065 13.8603 37.1296 13.6315 37.1296ZM17.5613 39.9408C17.5297 39.8776 17.504 39.7652 17.4844 39.6034C17.2298 39.8677 16.926 40 16.5729 40C16.2573 40 15.9979 39.9112 15.7946 39.7336C15.5935 39.554 15.4928 39.3272 15.4928 39.053C15.4928 38.7197 15.6191 38.4612 15.8716 38.2777C16.126 38.0922 16.4832 37.9995 16.9428 37.9995H17.4755V37.7481C17.4755 37.5566 17.4182 37.4047 17.3039 37.2923C17.1894 37.1779 17.0207 37.1207 16.7978 37.1207C16.6024 37.1207 16.4388 37.1699 16.3066 37.2686C16.1745 37.3672 16.1083 37.4866 16.1083 37.6267H15.5579C15.5579 37.4669 15.6142 37.313 15.7265 37.165C15.841 37.0151 15.9949 36.8967 16.1883 36.8099C16.3836 36.7232 16.5975 36.6797 16.8303 36.6797C17.1993 36.6797 17.4883 36.7724 17.6974 36.958C17.9065 37.1414 18.0149 37.3949 18.0229 37.7184V39.1921C18.0229 39.4861 18.0604 39.7198 18.1354 39.8933V39.9408H17.5613ZM16.6529 39.5236C16.8245 39.5236 16.9872 39.4792 17.1411 39.3904C17.2949 39.3016 17.4064 39.1862 17.4755 39.0441V38.3872H17.0463C16.3756 38.3872 16.0402 38.5835 16.0402 38.976C16.0402 39.1476 16.0975 39.2819 16.2118 39.3785C16.3263 39.4751 16.4733 39.5236 16.6529 39.5236ZM20.1653 39.5531C20.3606 39.5531 20.5314 39.4939 20.6773 39.3755C20.8233 39.2572 20.9041 39.1092 20.9199 38.9316H21.4379C21.428 39.1151 21.3648 39.2897 21.2484 39.4555C21.132 39.6212 20.9761 39.7534 20.7808 39.8519C20.5875 39.9507 20.3824 40 20.1653 40C19.7294 40 19.3821 39.8549 19.1237 39.565C18.8673 39.2729 18.739 38.8745 18.739 38.3694V38.2777C18.739 37.966 18.7962 37.6888 18.9107 37.4462C19.0251 37.2035 19.1888 37.0151 19.4019 36.881C19.6169 36.7467 19.8704 36.6797 20.1623 36.6797C20.5215 36.6797 20.8194 36.7872 21.0561 37.0024C21.2948 37.2173 21.422 37.4965 21.4379 37.8397H20.9199C20.9041 37.6325 20.8252 37.4629 20.6832 37.3307C20.5432 37.1966 20.3695 37.1296 20.1623 37.1296C19.8842 37.1296 19.6682 37.2301 19.5143 37.4314C19.3625 37.6306 19.2864 37.9197 19.2864 38.2984V38.4019C19.2864 38.7708 19.3625 39.0549 19.5143 39.2542C19.6663 39.4535 19.8833 39.5531 20.1653 39.5531ZM22.7961 35.9637V36.7389H23.3939V37.1621H22.7961V39.1476C22.7961 39.2759 22.8228 39.3725 22.876 39.4376C22.9293 39.5008 23.02 39.5324 23.1483 39.5324C23.2113 39.5324 23.2981 39.5206 23.4086 39.4969V39.9408C23.2645 39.9802 23.1246 40 22.9884 40C22.7439 40 22.5593 39.9259 22.435 39.778C22.3108 39.6301 22.2487 39.4199 22.2487 39.1476V37.1621H21.6656V36.7389H22.2487V35.9637H22.7961ZM28.9364 39.9408H28.3652L26.1962 36.6206V39.9408H25.6251V35.6322H26.1962L28.3712 38.9672V35.6322H28.9364V39.9408ZM31.8364 39.9408C31.8048 39.8776 31.7791 39.7652 31.7595 39.6034C31.5049 39.8677 31.2011 40 30.848 40C30.5324 40 30.2729 39.9112 30.0698 39.7336C29.8686 39.554 29.7679 39.3272 29.7679 39.053C29.7679 38.7197 29.8941 38.4612 30.1467 38.2777C30.4011 38.0922 30.7583 37.9995 31.2179 37.9995H31.7506V37.7481C31.7506 37.5566 31.6933 37.4047 31.5789 37.2923C31.4645 37.1779 31.2958 37.1207 31.0729 37.1207C30.8776 37.1207 30.7139 37.1699 30.5817 37.2686C30.4496 37.3672 30.3834 37.4866 30.3834 37.6267H29.833C29.833 37.4669 29.8893 37.313 30.0016 37.165C30.1161 37.0151 30.27 36.8967 30.4634 36.8099C30.6587 36.7232 30.8726 36.6797 31.1054 36.6797C31.4743 36.6797 31.7634 36.7724 31.9725 36.958C32.1816 37.1414 32.29 37.3949 32.298 37.7184V39.1921C32.298 39.4861 32.3355 39.7198 32.4105 39.8933V39.9408H31.8364ZM30.928 39.5236C31.0996 39.5236 31.2623 39.4792 31.4162 39.3904C31.57 39.3016 31.6815 39.1862 31.7506 39.0441V38.3872H31.3214C30.6507 38.3872 30.3153 38.5835 30.3153 38.976C30.3153 39.1476 30.3726 39.2819 30.4869 39.3785C30.6014 39.4751 30.7484 39.5236 30.928 39.5236ZM33.8989 35.9637V36.7389H34.4967V37.1621H33.8989V39.1476C33.8989 39.2759 33.9256 39.3725 33.9789 39.4376C34.0321 39.5008 34.1229 39.5324 34.2511 39.5324C34.3141 39.5324 34.401 39.5206 34.5115 39.4969V39.9408C34.3674 39.9802 34.2274 40 34.0912 40C33.8467 40 33.6622 39.9259 33.5378 39.778C33.4136 39.6301 33.3515 39.4199 33.3515 39.1476V37.1621H32.7686V36.7389H33.3515V35.9637H33.8989ZM35.7337 39.9408H35.1861V36.7389H35.7337V39.9408ZM35.1417 35.8896C35.1417 35.8009 35.1684 35.7259 35.2217 35.6647C35.2769 35.6035 35.3578 35.5731 35.4643 35.5731C35.5709 35.5731 35.6518 35.6035 35.707 35.6647C35.7622 35.7259 35.7898 35.8009 35.7898 35.8896C35.7898 35.9784 35.7622 36.0523 35.707 36.1116C35.6518 36.1707 35.5709 36.2004 35.4643 36.2004C35.3578 36.2004 35.2769 36.1707 35.2217 36.1116C35.1684 36.0523 35.1417 35.9784 35.1417 35.8896ZM37.669 39.1981L38.4619 36.7389H39.0213L37.8731 39.9408H37.4558L36.2959 36.7389H36.8552L37.669 39.1981ZM40.8352 40C40.4012 40 40.0481 39.8579 39.7759 39.5738C39.5036 39.2878 39.3675 38.906 39.3675 38.4286V38.328C39.3675 38.0104 39.4277 37.7274 39.548 37.4788C39.6702 37.2281 39.8399 37.0328 40.057 36.8928C40.276 36.7508 40.5127 36.6797 40.7671 36.6797C41.1834 36.6797 41.507 36.8168 41.7378 37.091C41.9685 37.3652 42.0841 37.7578 42.0841 38.2687V38.4966H39.9149C39.9229 38.8124 40.0145 39.0678 40.1902 39.2632C40.3676 39.4564 40.5927 39.5531 40.8648 39.5531C41.0581 39.5531 41.222 39.5137 41.3561 39.4348C41.4902 39.3559 41.6076 39.2513 41.7083 39.1211L42.0427 39.3815C41.7743 39.7937 41.3718 40 40.8352 40ZM40.7671 37.1296C40.5463 37.1296 40.3607 37.2104 40.2109 37.3721C40.0609 37.532 39.9682 37.7569 39.9328 38.0469H41.5365V38.0055C41.5208 37.7274 41.4458 37.5122 41.3117 37.3603C41.1775 37.2065 40.996 37.1296 40.7671 37.1296Z" fill="#61DAFB"/>
</g>
<defs>
<clipPath id="clip0_186_40609">
<rect width="49.8753" height="40" fill="white" transform="translate(0.463867)"/>
</clipPath>
</defs>
</svg>
