<svg width="41" height="40" viewBox="0 0 41 40" fill="none" xmlns="http://www.w3.org/2000/svg">
<g clip-path="url(#clip0_186_40606)">
<path d="M40.0499 6.10552L21.6032 39.0914C21.2223 39.7724 20.2438 39.7764 19.8572 39.0987L1.04482 6.10859C0.623592 5.37015 1.25512 4.47554 2.09205 4.62526L20.5585 7.92587C20.6764 7.94692 20.797 7.94671 20.9147 7.92525L38.995 4.62986C39.8291 4.47784 40.4636 5.36554 40.0499 6.10552Z" fill="url(#paint0_linear_186_40606)"/>
<path d="M29.355 0.295676L15.7041 2.97058C15.595 2.99195 15.4961 3.04896 15.423 3.13265C15.3499 3.21634 15.3066 3.32197 15.3 3.43292L14.4604 17.6152C14.4557 17.693 14.4693 17.7708 14.5 17.8424C14.5307 17.914 14.5777 17.9775 14.6372 18.0278C14.6967 18.0781 14.7671 18.1138 14.8429 18.1322C14.9186 18.1505 14.9976 18.1509 15.0735 18.1334L18.8742 17.2563C19.2297 17.1742 19.5511 17.4875 19.4779 17.845L18.3488 23.3745C18.2728 23.7466 18.6221 24.0647 18.9855 23.9543L21.3331 23.2412C21.6969 23.1307 22.0467 23.4498 21.9697 23.8222L20.1753 32.5076C20.063 33.051 20.7856 33.3472 21.0869 32.8815L21.2883 32.5704L32.4119 10.371C32.5983 9.99931 32.2769 9.57548 31.8689 9.65433L27.9565 10.4093C27.589 10.4802 27.2762 10.1378 27.3799 9.77827L29.9333 0.926591C30.0372 0.566112 29.723 0.22358 29.355 0.295676Z" fill="url(#paint1_linear_186_40606)"/>
</g>
<defs>
<linearGradient id="paint0_linear_186_40606" x1="-83.5374" y1="695.099" x2="5087.57" y2="7667.3" gradientUnits="userSpaceOnUse">
<stop stop-color="#41D1FF"/>
<stop offset="1" stop-color="#BD34FE"/>
</linearGradient>
<linearGradient id="paint1_linear_186_40606" x1="2043.03" y1="190.055" x2="3105.77" y2="7427.65" gradientUnits="userSpaceOnUse">
<stop stop-color="#FFEA83"/>
<stop offset="0.083" stop-color="#FFDD35"/>
<stop offset="1" stop-color="#FFA800"/>
</linearGradient>
<clipPath id="clip0_186_40606">
<rect width="39.84" height="40" fill="white" transform="translate(0.623535)"/>
</clipPath>
</defs>
</svg>
