<svg width="230" height="204" viewBox="0 0 230 204" fill="none" xmlns="http://www.w3.org/2000/svg">
<g clip-path="url(#clip0_325_753)">
<path d="M202.55 114.7C167.643 115.363 134.987 128.614 100.08 130.271C89.9452 130.602 79.8108 129.608 71.9284 125.633C86.1917 123.314 99.7043 119.007 109.839 110.725C120.725 102.112 121.85 86.2099 115.094 74.9461C108.713 64.3449 92.5727 64.0136 81.3122 66.6639C54.6617 72.2953 36.6455 100.455 51.6589 120.331C35.1435 121.325 18.6281 120.331 2.48806 120.994C-0.890092 121.325 -0.890092 125.632 2.86341 125.632C19.3788 126.626 39.2724 127.951 58.7906 126.957C59.9166 127.62 61.0427 128.614 62.1687 129.276C101.956 153.791 160.135 122.982 202.925 121.988C207.804 121.657 207.804 114.369 202.55 114.7ZM55.0371 106.749C50.9082 93.1664 64.4208 81.5713 76.8074 75.9389C89.1939 70.307 106.835 70.307 110.964 84.5524C115.844 101.117 99.7037 111.055 84.3144 115.362C77.1827 117.35 70.4264 118.675 63.2948 119.338C59.1665 116.025 56.5391 112.049 55.0371 106.749Z" fill="white"/>
<path d="M228.073 115.031C222.819 112.049 217.94 109.068 213.06 106.087C208.931 103.436 204.802 100.455 199.923 99.4608C196.169 98.4669 192.416 103.436 195.794 105.755C199.923 108.405 204.427 110.724 208.556 113.043C211.559 114.7 214.562 116.687 217.189 118.344C214.186 119.669 211.183 120.663 208.18 121.988C205.928 122.982 203.301 123.975 201.049 124.969C200.298 125.301 199.547 125.963 199.171 126.626C198.045 127.951 198.797 127.289 199.171 126.957C197.671 127.951 197.671 131.264 200.298 130.933C201.049 131.264 201.799 131.264 202.925 131.264C205.552 130.601 208.556 129.607 211.183 128.614C216.813 126.625 222.443 124.638 227.699 121.988C230.701 120.001 230.701 116.356 228.073 115.031Z" fill="white"/>
</g>
<defs>
<clipPath id="clip0_325_753">
<rect width="230" height="203" fill="white" transform="translate(0 0.5)"/>
</clipPath>
</defs>
</svg>
